ISO-10303-21;
HEADER;
/* Generated by software containing ST-Developer
 * from STEP Tools, Inc. (www.steptools.com) 
 */
/* OPTION: using custom renumber hook */

FILE_DESCRIPTION(
/* description */ ('STEP AP242 Edition 2',
'CAx-IF Rec.Pracs.---Representation and Presentation of Product Manufa
cturing Information (PMI)---4.0---2014-10-13',
'CAx-IF Rec.Pracs.---3D Tessellated Geometry---0.4---2014-09-14','2;1',
'CAx-IF Rec.Pracs.---User Defined Attributes---1.5---2016-08-15'),
/* implementation_level */ '2;1');

FILE_NAME(
/* name */ 'Part Studio 1 - Part 1',
/* time_stamp */ '2026-10-07T22:37:22Z',
/* author */ (''),
/* organization */ (''),
/* preprocessor_version */ 'ST-DEVELOPER v20',
/* originating_system */ 'ONSHAPE BY PTC INC, 1.221',
/* authorisation */ '  ');

FILE_SCHEMA (('AP242_MANAGED_MODEL_BASED_3D_ENGINEERING_MIM_LF { 1 0 10303 442 3 1 4 }'));
ENDSEC;

DATA;
#10=SHAPE_REPRESENTATION_RELATIONSHIP('','',#649,#11);
#11=ADVANCED_BREP_SHAPE_REPRESENTATION('',(#647),#1107);
#12=ORIENTED_CLOSED_SHELL('',*,#635,.F.);
#13=ORIENTED_CLOSED_SHELL('',*,#636,.F.);
#14=ORIENTED_CLOSED_SHELL('',*,#637,.F.);
#15=ORIENTED_CLOSED_SHELL('',*,#638,.F.);
#16=LINE('',#941,#56);
#17=LINE('',#944,#57);
#18=LINE('',#946,#58);
#19=LINE('',#948,#59);
#20=LINE('',#953,#60);
#21=LINE('',#957,#61);
#22=LINE('',#961,#62);
#23=LINE('',#965,#63);
#24=LINE('',#966,#64);
#25=LINE('',#968,#65);
#26=LINE('',#970,#66);
#27=LINE('',#972,#67);
#28=LINE('',#974,#68);
#29=LINE('',#976,#69);
#30=LINE('',#978,#70);
#31=LINE('',#981,#71);
#32=LINE('',#983,#72);
#33=LINE('',#985,#73);
#34=LINE('',#987,#74);
#35=LINE('',#989,#75);
#36=LINE('',#991,#76);
#37=LINE('',#993,#77);
#38=LINE('',#995,#78);
#39=LINE('',#997,#79);
#40=LINE('',#999,#80);
#41=LINE('',#1004,#81);
#42=LINE('',#1008,#82);
#43=LINE('',#1012,#83);
#44=LINE('',#1015,#84);
#45=LINE('',#1016,#85);
#46=LINE('',#1018,#86);
#47=LINE('',#1019,#87);
#48=LINE('',#1022,#88);
#49=LINE('',#1023,#89);
#50=LINE('',#1025,#90);
#51=LINE('',#1027,#91);
#52=LINE('',#1029,#92);
#53=LINE('',#1031,#93);
#54=LINE('',#1033,#94);
#55=LINE('',#1035,#95);
#56=VECTOR('',#746,1.);
#57=VECTOR('',#747,1.);
#58=VECTOR('',#748,1.);
#59=VECTOR('',#749,1.);
#60=VECTOR('',#754,1.);
#61=VECTOR('',#757,1.);
#62=VECTOR('',#760,1.);
#63=VECTOR('',#763,1.);
#64=VECTOR('',#764,1.);
#65=VECTOR('',#765,1.);
#66=VECTOR('',#766,1.);
#67=VECTOR('',#769,1.);
#68=VECTOR('',#770,1.);
#69=VECTOR('',#771,1.);
#70=VECTOR('',#774,1.);
#71=VECTOR('',#775,1.);
#72=VECTOR('',#776,1.);
#73=VECTOR('',#777,1.);
#74=VECTOR('',#780,1.);
#75=VECTOR('',#781,1.);
#76=VECTOR('',#782,1.);
#77=VECTOR('',#785,1.);
#78=VECTOR('',#786,1.);
#79=VECTOR('',#787,1.);
#80=VECTOR('',#790,1.);
#81=VECTOR('',#793,1.);
#82=VECTOR('',#796,1.);
#83=VECTOR('',#799,1.);
#84=VECTOR('',#802,1.);
#85=VECTOR('',#803,1.);
#86=VECTOR('',#806,1.);
#87=VECTOR('',#807,1.);
#88=VECTOR('',#812,1.);
#89=VECTOR('',#813,1.);
#90=VECTOR('',#816,1.);
#91=VECTOR('',#819,1.);
#92=VECTOR('',#822,1.);
#93=VECTOR('',#825,1.);
#94=VECTOR('',#828,1.);
#95=VECTOR('',#831,1.);
#96=PLANE('',#654);
#97=PLANE('',#655);
#98=PLANE('',#657);
#99=PLANE('',#658);
#100=PLANE('',#663);
#101=PLANE('',#664);
#102=PLANE('',#665);
#103=PLANE('',#666);
#104=PLANE('',#667);
#105=PLANE('',#672);
#106=PLANE('',#673);
#107=PLANE('',#675);
#108=PLANE('',#677);
#109=PLANE('',#679);
#110=PLANE('',#681);
#111=PLANE('',#685);
#112=PLANE('',#686);
#113=PLANE('',#693);
#114=PLANE('',#694);
#115=PLANE('',#703);
#116=PLANE('',#704);
#117=PLANE('',#708);
#118=PLANE('',#709);
#119=PLANE('',#710);
#120=PLANE('',#712);
#121=PLANE('',#715);
#122=PLANE('',#719);
#123=PLANE('',#720);
#124=PLANE('',#724);
#125=PLANE('',#728);
#126=PLANE('',#729);
#127=ORIENTED_EDGE('',*,*,#271,.T.);
#128=ORIENTED_EDGE('',*,*,#272,.F.);
#129=ORIENTED_EDGE('',*,*,#271,.F.);
#130=ORIENTED_EDGE('',*,*,#273,.F.);
#131=ORIENTED_EDGE('',*,*,#272,.T.);
#132=ORIENTED_EDGE('',*,*,#274,.F.);
#133=ORIENTED_EDGE('',*,*,#275,.F.);
#134=ORIENTED_EDGE('',*,*,#276,.T.);
#135=ORIENTED_EDGE('',*,*,#277,.T.);
#136=ORIENTED_EDGE('',*,*,#278,.F.);
#137=ORIENTED_EDGE('',*,*,#279,.F.);
#138=ORIENTED_EDGE('',*,*,#280,.F.);
#139=ORIENTED_EDGE('',*,*,#281,.F.);
#140=ORIENTED_EDGE('',*,*,#282,.F.);
#141=ORIENTED_EDGE('',*,*,#283,.F.);
#142=ORIENTED_EDGE('',*,*,#284,.F.);
#143=ORIENTED_EDGE('',*,*,#285,.F.);
#144=ORIENTED_EDGE('',*,*,#286,.F.);
#145=ORIENTED_EDGE('',*,*,#287,.F.);
#146=ORIENTED_EDGE('',*,*,#288,.T.);
#147=ORIENTED_EDGE('',*,*,#275,.T.);
#148=ORIENTED_EDGE('',*,*,#289,.F.);
#149=ORIENTED_EDGE('',*,*,#290,.F.);
#150=ORIENTED_EDGE('',*,*,#291,.T.);
#151=ORIENTED_EDGE('',*,*,#287,.T.);
#152=ORIENTED_EDGE('',*,*,#292,.T.);
#153=ORIENTED_EDGE('',*,*,#293,.F.);
#154=ORIENTED_EDGE('',*,*,#294,.F.);
#155=ORIENTED_EDGE('',*,*,#295,.T.);
#156=ORIENTED_EDGE('',*,*,#296,.T.);
#157=ORIENTED_EDGE('',*,*,#297,.F.);
#158=ORIENTED_EDGE('',*,*,#298,.F.);
#159=ORIENTED_EDGE('',*,*,#293,.T.);
#160=ORIENTED_EDGE('',*,*,#299,.T.);
#161=ORIENTED_EDGE('',*,*,#300,.F.);
#162=ORIENTED_EDGE('',*,*,#301,.F.);
#163=ORIENTED_EDGE('',*,*,#297,.T.);
#164=ORIENTED_EDGE('',*,*,#302,.T.);
#165=ORIENTED_EDGE('',*,*,#303,.T.);
#166=ORIENTED_EDGE('',*,*,#304,.T.);
#167=ORIENTED_EDGE('',*,*,#305,.T.);
#168=ORIENTED_EDGE('',*,*,#306,.T.);
#169=ORIENTED_EDGE('',*,*,#307,.T.);
#170=ORIENTED_EDGE('',*,*,#308,.T.);
#171=ORIENTED_EDGE('',*,*,#309,.T.);
#172=ORIENTED_EDGE('',*,*,#310,.T.);
#173=ORIENTED_EDGE('',*,*,#295,.F.);
#174=ORIENTED_EDGE('',*,*,#311,.T.);
#175=ORIENTED_EDGE('',*,*,#300,.T.);
#176=ORIENTED_EDGE('',*,*,#312,.F.);
#177=ORIENTED_EDGE('',*,*,#277,.F.);
#178=ORIENTED_EDGE('',*,*,#313,.T.);
#179=ORIENTED_EDGE('',*,*,#290,.T.);
#180=ORIENTED_EDGE('',*,*,#292,.F.);
#181=ORIENTED_EDGE('',*,*,#310,.F.);
#182=ORIENTED_EDGE('',*,*,#299,.F.);
#183=ORIENTED_EDGE('',*,*,#296,.F.);
#184=ORIENTED_EDGE('',*,*,#274,.T.);
#185=ORIENTED_EDGE('',*,*,#312,.T.);
#186=ORIENTED_EDGE('',*,*,#289,.T.);
#187=ORIENTED_EDGE('',*,*,#286,.T.);
#188=ORIENTED_EDGE('',*,*,#278,.T.);
#189=ORIENTED_EDGE('',*,*,#314,.F.);
#190=ORIENTED_EDGE('',*,*,#303,.F.);
#191=ORIENTED_EDGE('',*,*,#315,.T.);
#192=ORIENTED_EDGE('',*,*,#285,.T.);
#193=ORIENTED_EDGE('',*,*,#316,.F.);
#194=ORIENTED_EDGE('',*,*,#304,.F.);
#195=ORIENTED_EDGE('',*,*,#314,.T.);
#196=ORIENTED_EDGE('',*,*,#284,.T.);
#197=ORIENTED_EDGE('',*,*,#317,.F.);
#198=ORIENTED_EDGE('',*,*,#305,.F.);
#199=ORIENTED_EDGE('',*,*,#316,.T.);
#200=ORIENTED_EDGE('',*,*,#283,.T.);
#201=ORIENTED_EDGE('',*,*,#318,.F.);
#202=ORIENTED_EDGE('',*,*,#306,.F.);
#203=ORIENTED_EDGE('',*,*,#317,.T.);
#204=ORIENTED_EDGE('',*,*,#282,.T.);
#205=ORIENTED_EDGE('',*,*,#319,.F.);
#206=ORIENTED_EDGE('',*,*,#307,.F.);
#207=ORIENTED_EDGE('',*,*,#318,.T.);
#208=ORIENTED_EDGE('',*,*,#281,.T.);
#209=ORIENTED_EDGE('',*,*,#320,.F.);
#210=ORIENTED_EDGE('',*,*,#308,.F.);
#211=ORIENTED_EDGE('',*,*,#319,.T.);
#212=ORIENTED_EDGE('',*,*,#280,.T.);
#213=ORIENTED_EDGE('',*,*,#321,.F.);
#214=ORIENTED_EDGE('',*,*,#309,.F.);
#215=ORIENTED_EDGE('',*,*,#320,.T.);
#216=ORIENTED_EDGE('',*,*,#279,.T.);
#217=ORIENTED_EDGE('',*,*,#315,.F.);
#218=ORIENTED_EDGE('',*,*,#302,.F.);
#219=ORIENTED_EDGE('',*,*,#321,.T.);
#220=ORIENTED_EDGE('',*,*,#322,.T.);
#221=ORIENTED_EDGE('',*,*,#323,.F.);
#222=ORIENTED_EDGE('',*,*,#322,.F.);
#223=ORIENTED_EDGE('',*,*,#324,.F.);
#224=ORIENTED_EDGE('',*,*,#323,.T.);
#225=ORIENTED_EDGE('',*,*,#325,.T.);
#226=ORIENTED_EDGE('',*,*,#324,.T.);
#227=ORIENTED_EDGE('',*,*,#326,.T.);
#228=ORIENTED_EDGE('',*,*,#327,.F.);
#229=ORIENTED_EDGE('',*,*,#326,.F.);
#230=ORIENTED_EDGE('',*,*,#328,.F.);
#231=ORIENTED_EDGE('',*,*,#327,.T.);
#232=ORIENTED_EDGE('',*,*,#329,.T.);
#233=ORIENTED_EDGE('',*,*,#328,.T.);
#234=ORIENTED_EDGE('',*,*,#330,.T.);
#235=ORIENTED_EDGE('',*,*,#273,.T.);
#236=ORIENTED_EDGE('',*,*,#331,.T.);
#237=ORIENTED_EDGE('',*,*,#332,.F.);
#238=ORIENTED_EDGE('',*,*,#331,.F.);
#239=ORIENTED_EDGE('',*,*,#333,.F.);
#240=ORIENTED_EDGE('',*,*,#332,.T.);
#241=ORIENTED_EDGE('',*,*,#334,.F.);
#242=ORIENTED_EDGE('',*,*,#333,.T.);
#243=ORIENTED_EDGE('',*,*,#276,.F.);
#244=ORIENTED_EDGE('',*,*,#288,.F.);
#245=ORIENTED_EDGE('',*,*,#291,.F.);
#246=ORIENTED_EDGE('',*,*,#313,.F.);
#247=ORIENTED_EDGE('',*,*,#325,.F.);
#248=ORIENTED_EDGE('',*,*,#329,.F.);
#249=ORIENTED_EDGE('',*,*,#330,.F.);
#250=ORIENTED_EDGE('',*,*,#334,.T.);
#251=ORIENTED_EDGE('',*,*,#301,.T.);
#252=ORIENTED_EDGE('',*,*,#311,.F.);
#253=ORIENTED_EDGE('',*,*,#294,.T.);
#254=ORIENTED_EDGE('',*,*,#298,.T.);
#255=ORIENTED_EDGE('',*,*,#335,.T.);
#256=ORIENTED_EDGE('',*,*,#336,.F.);
#257=ORIENTED_EDGE('',*,*,#336,.T.);
#258=ORIENTED_EDGE('',*,*,#335,.F.);
#259=ORIENTED_EDGE('',*,*,#337,.F.);
#260=ORIENTED_EDGE('',*,*,#337,.T.);
#261=ORIENTED_EDGE('',*,*,#338,.F.);
#262=ORIENTED_EDGE('',*,*,#338,.T.);
#263=ORIENTED_EDGE('',*,*,#339,.F.);
#264=ORIENTED_EDGE('',*,*,#339,.T.);
#265=ORIENTED_EDGE('',*,*,#340,.F.);
#266=ORIENTED_EDGE('',*,*,#340,.T.);
#267=ORIENTED_EDGE('',*,*,#341,.T.);
#268=ORIENTED_EDGE('',*,*,#342,.F.);
#269=ORIENTED_EDGE('',*,*,#342,.T.);
#270=ORIENTED_EDGE('',*,*,#341,.F.);
#271=EDGE_CURVE('',#343,#343,#399,.T.);
#272=EDGE_CURVE('',#344,#344,#400,.T.);
#273=EDGE_CURVE('',#345,#345,#401,.T.);
#274=EDGE_CURVE('',#346,#347,#16,.T.);
#275=EDGE_CURVE('',#348,#346,#17,.T.);
#276=EDGE_CURVE('',#348,#349,#18,.T.);
#277=EDGE_CURVE('',#349,#347,#19,.T.);
#278=EDGE_CURVE('',#350,#351,#402,.T.);
#279=EDGE_CURVE('',#352,#350,#20,.F.);
#280=EDGE_CURVE('',#353,#352,#403,.T.);
#281=EDGE_CURVE('',#354,#353,#21,.T.);
#282=EDGE_CURVE('',#355,#354,#404,.T.);
#283=EDGE_CURVE('',#356,#355,#22,.T.);
#284=EDGE_CURVE('',#357,#356,#405,.T.);
#285=EDGE_CURVE('',#351,#357,#23,.T.);
#286=EDGE_CURVE('',#358,#346,#24,.T.);
#287=EDGE_CURVE('',#359,#358,#25,.T.);
#288=EDGE_CURVE('',#359,#348,#26,.T.);
#289=EDGE_CURVE('',#360,#358,#27,.T.);
#290=EDGE_CURVE('',#361,#360,#28,.T.);
#291=EDGE_CURVE('',#361,#359,#29,.T.);
#292=EDGE_CURVE('',#362,#363,#30,.T.);
#293=EDGE_CURVE('',#364,#363,#31,.T.);
#294=EDGE_CURVE('',#365,#364,#32,.F.);
#295=EDGE_CURVE('',#365,#362,#33,.T.);
#296=EDGE_CURVE('',#363,#366,#34,.T.);
#297=EDGE_CURVE('',#367,#366,#35,.T.);
#298=EDGE_CURVE('',#364,#367,#36,.F.);
#299=EDGE_CURVE('',#366,#368,#37,.T.);
#300=EDGE_CURVE('',#369,#368,#38,.T.);
#301=EDGE_CURVE('',#367,#369,#39,.T.);
#302=EDGE_CURVE('',#370,#371,#40,.F.);
#303=EDGE_CURVE('',#371,#372,#406,.T.);
#304=EDGE_CURVE('',#372,#373,#41,.T.);
#305=EDGE_CURVE('',#373,#374,#407,.T.);
#306=EDGE_CURVE('',#374,#375,#42,.T.);
#307=EDGE_CURVE('',#375,#376,#408,.T.);
#308=EDGE_CURVE('',#376,#377,#43,.T.);
#309=EDGE_CURVE('',#377,#370,#409,.T.);
#310=EDGE_CURVE('',#368,#362,#44,.T.);
#311=EDGE_CURVE('',#365,#369,#45,.T.);
#312=EDGE_CURVE('',#347,#360,#46,.T.);
#313=EDGE_CURVE('',#349,#361,#47,.T.);
#314=EDGE_CURVE('',#372,#351,#48,.T.);
#315=EDGE_CURVE('',#371,#350,#49,.T.);
#316=EDGE_CURVE('',#373,#357,#50,.T.);
#317=EDGE_CURVE('',#374,#356,#51,.T.);
#318=EDGE_CURVE('',#375,#355,#52,.T.);
#319=EDGE_CURVE('',#376,#354,#53,.T.);
#320=EDGE_CURVE('',#377,#353,#54,.T.);
#321=EDGE_CURVE('',#370,#352,#55,.T.);
#322=EDGE_CURVE('',#378,#378,#410,.T.);
#323=EDGE_CURVE('',#379,#379,#411,.T.);
#324=EDGE_CURVE('',#380,#380,#412,.T.);
#325=EDGE_CURVE('',#381,#381,#413,.F.);
#326=EDGE_CURVE('',#382,#382,#414,.T.);
#327=EDGE_CURVE('',#383,#383,#415,.T.);
#328=EDGE_CURVE('',#384,#384,#416,.T.);
#329=EDGE_CURVE('',#385,#385,#417,.F.);
#330=EDGE_CURVE('',#386,#386,#418,.F.);
#331=EDGE_CURVE('',#387,#387,#419,.T.);
#332=EDGE_CURVE('',#388,#388,#420,.T.);
#333=EDGE_CURVE('',#389,#389,#421,.T.);
#334=EDGE_CURVE('',#390,#390,#422,.T.);
#335=EDGE_CURVE('',#391,#391,#423,.T.);
#336=EDGE_CURVE('',#392,#392,#424,.T.);
#337=EDGE_CURVE('',#393,#393,#425,.T.);
#338=EDGE_CURVE('',#394,#394,#426,.T.);
#339=EDGE_CURVE('',#395,#395,#427,.T.);
#340=EDGE_CURVE('',#396,#396,#428,.T.);
#341=EDGE_CURVE('',#397,#397,#429,.T.);
#342=EDGE_CURVE('',#398,#398,#430,.T.);
#343=VERTEX_POINT('',#933);
#344=VERTEX_POINT('',#935);
#345=VERTEX_POINT('',#939);
#346=VERTEX_POINT('',#942);
#347=VERTEX_POINT('',#943);
#348=VERTEX_POINT('',#945);
#349=VERTEX_POINT('',#947);
#350=VERTEX_POINT('',#951);
#351=VERTEX_POINT('',#952);
#352=VERTEX_POINT('',#954);
#353=VERTEX_POINT('',#956);
#354=VERTEX_POINT('',#958);
#355=VERTEX_POINT('',#960);
#356=VERTEX_POINT('',#962);
#357=VERTEX_POINT('',#964);
#358=VERTEX_POINT('',#967);
#359=VERTEX_POINT('',#969);
#360=VERTEX_POINT('',#973);
#361=VERTEX_POINT('',#975);
#362=VERTEX_POINT('',#979);
#363=VERTEX_POINT('',#980);
#364=VERTEX_POINT('',#982);
#365=VERTEX_POINT('',#984);
#366=VERTEX_POINT('',#988);
#367=VERTEX_POINT('',#990);
#368=VERTEX_POINT('',#994);
#369=VERTEX_POINT('',#996);
#370=VERTEX_POINT('',#1000);
#371=VERTEX_POINT('',#1001);
#372=VERTEX_POINT('',#1003);
#373=VERTEX_POINT('',#1005);
#374=VERTEX_POINT('',#1007);
#375=VERTEX_POINT('',#1009);
#376=VERTEX_POINT('',#1011);
#377=VERTEX_POINT('',#1013);
#378=VERTEX_POINT('',#1039);
#379=VERTEX_POINT('',#1041);
#380=VERTEX_POINT('',#1045);
#381=VERTEX_POINT('',#1048);
#382=VERTEX_POINT('',#1051);
#383=VERTEX_POINT('',#1053);
#384=VERTEX_POINT('',#1057);
#385=VERTEX_POINT('',#1060);
#386=VERTEX_POINT('',#1063);
#387=VERTEX_POINT('',#1066);
#388=VERTEX_POINT('',#1068);
#389=VERTEX_POINT('',#1072);
#390=VERTEX_POINT('',#1075);
#391=VERTEX_POINT('',#1080);
#392=VERTEX_POINT('',#1083);
#393=VERTEX_POINT('',#1087);
#394=VERTEX_POINT('',#1090);
#395=VERTEX_POINT('',#1094);
#396=VERTEX_POINT('',#1097);
#397=VERTEX_POINT('',#1101);
#398=VERTEX_POINT('',#1103);
#399=CIRCLE('',#652,0.0014);
#400=CIRCLE('',#653,0.0014);
#401=CIRCLE('',#656,0.0023);
#402=CIRCLE('',#659,0.00209261922966105);
#403=CIRCLE('',#660,0.00206689023212545);
#404=CIRCLE('',#661,0.0020755011010327);
#405=CIRCLE('',#662,0.00207795027719788);
#406=CIRCLE('',#668,0.00209261922966105);
#407=CIRCLE('',#669,0.00207795027719788);
#408=CIRCLE('',#670,0.0020755011010327);
#409=CIRCLE('',#671,0.00206689023212545);
#410=CIRCLE('',#683,0.0014);
#411=CIRCLE('',#684,0.0014);
#412=CIRCLE('',#687,0.0023);
#413=CIRCLE('',#689,0.0023);
#414=CIRCLE('',#691,0.0014);
#415=CIRCLE('',#692,0.0014);
#416=CIRCLE('',#695,0.0023);
#417=CIRCLE('',#697,0.0023);
#418=CIRCLE('',#699,0.0023);
#419=CIRCLE('',#701,0.0014);
#420=CIRCLE('',#702,0.0014);
#421=CIRCLE('',#705,0.0023);
#422=CIRCLE('',#707,0.0023);
#423=CIRCLE('',#711,1.000000000001E-6);
#424=CIRCLE('',#713,1.000000000001E-6);
#425=CIRCLE('',#716,1.000000000001E-6);
#426=CIRCLE('',#718,1.000000000001E-6);
#427=CIRCLE('',#721,9.9999999999406E-7);
#428=CIRCLE('',#723,9.9999999999406E-7);
#429=CIRCLE('',#726,9.9999999999406E-7);
#430=CIRCLE('',#727,9.9999999999406E-7);
#431=EDGE_LOOP('',(#127));
#432=EDGE_LOOP('',(#128));
#433=EDGE_LOOP('',(#129));
#434=EDGE_LOOP('',(#130));
#435=EDGE_LOOP('',(#131));
#436=EDGE_LOOP('',(#132,#133,#134,#135));
#437=EDGE_LOOP('',(#136,#137,#138,#139,#140,#141,#142,#143));
#438=EDGE_LOOP('',(#144,#145,#146,#147));
#439=EDGE_LOOP('',(#148,#149,#150,#151));
#440=EDGE_LOOP('',(#152,#153,#154,#155));
#441=EDGE_LOOP('',(#156,#157,#158,#159));
#442=EDGE_LOOP('',(#160,#161,#162,#163));
#443=EDGE_LOOP('',(#164,#165,#166,#167,#168,#169,#170,#171));
#444=EDGE_LOOP('',(#172,#173,#174,#175));
#445=EDGE_LOOP('',(#176,#177,#178,#179));
#446=EDGE_LOOP('',(#180,#181,#182,#183));
#447=EDGE_LOOP('',(#184,#185,#186,#187));
#448=EDGE_LOOP('',(#188,#189,#190,#191));
#449=EDGE_LOOP('',(#192,#193,#194,#195));
#450=EDGE_LOOP('',(#196,#197,#198,#199));
#451=EDGE_LOOP('',(#200,#201,#202,#203));
#452=EDGE_LOOP('',(#204,#205,#206,#207));
#453=EDGE_LOOP('',(#208,#209,#210,#211));
#454=EDGE_LOOP('',(#212,#213,#214,#215));
#455=EDGE_LOOP('',(#216,#217,#218,#219));
#456=EDGE_LOOP('',(#220));
#457=EDGE_LOOP('',(#221));
#458=EDGE_LOOP('',(#222));
#459=EDGE_LOOP('',(#223));
#460=EDGE_LOOP('',(#224));
#461=EDGE_LOOP('',(#225));
#462=EDGE_LOOP('',(#226));
#463=EDGE_LOOP('',(#227));
#464=EDGE_LOOP('',(#228));
#465=EDGE_LOOP('',(#229));
#466=EDGE_LOOP('',(#230));
#467=EDGE_LOOP('',(#231));
#468=EDGE_LOOP('',(#232));
#469=EDGE_LOOP('',(#233));
#470=EDGE_LOOP('',(#234));
#471=EDGE_LOOP('',(#235));
#472=EDGE_LOOP('',(#236));
#473=EDGE_LOOP('',(#237));
#474=EDGE_LOOP('',(#238));
#475=EDGE_LOOP('',(#239));
#476=EDGE_LOOP('',(#240));
#477=EDGE_LOOP('',(#241));
#478=EDGE_LOOP('',(#242));
#479=EDGE_LOOP('',(#243,#244,#245,#246));
#480=EDGE_LOOP('',(#247));
#481=EDGE_LOOP('',(#248));
#482=EDGE_LOOP('',(#249));
#483=EDGE_LOOP('',(#250));
#484=EDGE_LOOP('',(#251,#252,#253,#254));
#485=EDGE_LOOP('',(#255));
#486=EDGE_LOOP('',(#256));
#487=EDGE_LOOP('',(#257));
#488=EDGE_LOOP('',(#258));
#489=EDGE_LOOP('',(#259));
#490=EDGE_LOOP('',(#260));
#491=EDGE_LOOP('',(#261));
#492=EDGE_LOOP('',(#262));
#493=EDGE_LOOP('',(#263));
#494=EDGE_LOOP('',(#264));
#495=EDGE_LOOP('',(#265));
#496=EDGE_LOOP('',(#266));
#497=EDGE_LOOP('',(#267));
#498=EDGE_LOOP('',(#268));
#499=EDGE_LOOP('',(#269));
#500=EDGE_LOOP('',(#270));
#501=FACE_BOUND('',#431,.T.);
#502=FACE_BOUND('',#432,.T.);
#503=FACE_BOUND('',#433,.T.);
#504=FACE_BOUND('',#434,.T.);
#505=FACE_BOUND('',#435,.T.);
#506=FACE_BOUND('',#436,.T.);
#507=FACE_BOUND('',#437,.T.);
#508=FACE_BOUND('',#438,.T.);
#509=FACE_BOUND('',#439,.T.);
#510=FACE_BOUND('',#440,.T.);
#511=FACE_BOUND('',#441,.T.);
#512=FACE_BOUND('',#442,.T.);
#513=FACE_BOUND('',#443,.T.);
#514=FACE_BOUND('',#444,.T.);
#515=FACE_BOUND('',#445,.T.);
#516=FACE_BOUND('',#446,.T.);
#517=FACE_BOUND('',#447,.T.);
#518=FACE_BOUND('',#448,.T.);
#519=FACE_BOUND('',#449,.T.);
#520=FACE_BOUND('',#450,.T.);
#521=FACE_BOUND('',#451,.T.);
#522=FACE_BOUND('',#452,.T.);
#523=FACE_BOUND('',#453,.T.);
#524=FACE_BOUND('',#454,.T.);
#525=FACE_BOUND('',#455,.T.);
#526=FACE_BOUND('',#456,.T.);
#527=FACE_BOUND('',#457,.T.);
#528=FACE_BOUND('',#458,.T.);
#529=FACE_BOUND('',#459,.T.);
#530=FACE_BOUND('',#460,.T.);
#531=FACE_BOUND('',#461,.T.);
#532=FACE_BOUND('',#462,.T.);
#533=FACE_BOUND('',#463,.T.);
#534=FACE_BOUND('',#464,.T.);
#535=FACE_BOUND('',#465,.T.);
#536=FACE_BOUND('',#466,.T.);
#537=FACE_BOUND('',#467,.T.);
#538=FACE_BOUND('',#468,.T.);
#539=FACE_BOUND('',#469,.T.);
#540=FACE_BOUND('',#470,.T.);
#541=FACE_BOUND('',#471,.T.);
#542=FACE_BOUND('',#472,.T.);
#543=FACE_BOUND('',#473,.T.);
#544=FACE_BOUND('',#474,.T.);
#545=FACE_BOUND('',#475,.T.);
#546=FACE_BOUND('',#476,.T.);
#547=FACE_BOUND('',#477,.T.);
#548=FACE_BOUND('',#478,.T.);
#549=FACE_BOUND('',#479,.T.);
#550=FACE_BOUND('',#480,.T.);
#551=FACE_BOUND('',#481,.T.);
#552=FACE_BOUND('',#482,.T.);
#553=FACE_BOUND('',#483,.T.);
#554=FACE_BOUND('',#484,.T.);
#555=FACE_BOUND('',#485,.T.);
#556=FACE_BOUND('',#486,.T.);
#557=FACE_BOUND('',#487,.T.);
#558=FACE_BOUND('',#488,.T.);
#559=FACE_BOUND('',#489,.T.);
#560=FACE_BOUND('',#490,.T.);
#561=FACE_BOUND('',#491,.T.);
#562=FACE_BOUND('',#492,.T.);
#563=FACE_BOUND('',#493,.T.);
#564=FACE_BOUND('',#494,.T.);
#565=FACE_BOUND('',#495,.T.);
#566=FACE_BOUND('',#496,.T.);
#567=FACE_BOUND('',#497,.T.);
#568=FACE_BOUND('',#498,.T.);
#569=FACE_BOUND('',#499,.T.);
#570=FACE_BOUND('',#500,.T.);
#571=CYLINDRICAL_SURFACE('',#651,0.0014);
#572=CYLINDRICAL_SURFACE('',#674,0.00209261922966105);
#573=CYLINDRICAL_SURFACE('',#676,0.00207795027719788);
#574=CYLINDRICAL_SURFACE('',#678,0.0020755011010327);
#575=CYLINDRICAL_SURFACE('',#680,0.00206689023212545);
#576=CYLINDRICAL_SURFACE('',#682,0.0014);
#577=CYLINDRICAL_SURFACE('',#688,0.0023);
#578=CYLINDRICAL_SURFACE('',#690,0.0014);
#579=CYLINDRICAL_SURFACE('',#696,0.0023);
#580=CYLINDRICAL_SURFACE('',#698,0.0023);
#581=CYLINDRICAL_SURFACE('',#700,0.0014);
#582=CYLINDRICAL_SURFACE('',#706,0.0023);
#583=CYLINDRICAL_SURFACE('',#714,1.000000000001E-6);
#584=CYLINDRICAL_SURFACE('',#717,1.000000000001E-6);
#585=CYLINDRICAL_SURFACE('',#722,9.9999999999406E-7);
#586=CYLINDRICAL_SURFACE('',#725,9.9999999999406E-7);
#587=ADVANCED_FACE('',(#501,#502),#571,.T.);
#588=ADVANCED_FACE('',(#503),#96,.F.);
#589=ADVANCED_FACE('',(#504,#505),#97,.F.);
#590=ADVANCED_FACE('',(#506),#98,.T.);
#591=ADVANCED_FACE('',(#507,#508),#99,.T.);
#592=ADVANCED_FACE('',(#509),#100,.T.);
#593=ADVANCED_FACE('',(#510),#101,.F.);
#594=ADVANCED_FACE('',(#511),#102,.F.);
#595=ADVANCED_FACE('',(#512),#103,.F.);
#596=ADVANCED_FACE('',(#513,#514),#104,.F.);
#597=ADVANCED_FACE('',(#515),#105,.T.);
#598=ADVANCED_FACE('',(#516,#517),#106,.F.);
#599=ADVANCED_FACE('',(#518),#572,.F.);
#600=ADVANCED_FACE('',(#519),#107,.F.);
#601=ADVANCED_FACE('',(#520),#573,.F.);
#602=ADVANCED_FACE('',(#521),#108,.F.);
#603=ADVANCED_FACE('',(#522),#574,.F.);
#604=ADVANCED_FACE('',(#523),#109,.F.);
#605=ADVANCED_FACE('',(#524),#575,.F.);
#606=ADVANCED_FACE('',(#525),#110,.F.);
#607=ADVANCED_FACE('',(#526,#527),#576,.T.);
#608=ADVANCED_FACE('',(#528),#111,.F.);
#609=ADVANCED_FACE('',(#529,#530),#112,.F.);
#610=ADVANCED_FACE('',(#531,#532),#577,.T.);
#611=ADVANCED_FACE('',(#533,#534),#578,.T.);
#612=ADVANCED_FACE('',(#535),#113,.F.);
#613=ADVANCED_FACE('',(#536,#537),#114,.F.);
#614=ADVANCED_FACE('',(#538,#539),#579,.T.);
#615=ADVANCED_FACE('',(#540,#541),#580,.T.);
#616=ADVANCED_FACE('',(#542,#543),#581,.T.);
#617=ADVANCED_FACE('',(#544),#115,.F.);
#618=ADVANCED_FACE('',(#545,#546),#116,.F.);
#619=ADVANCED_FACE('',(#547,#548),#582,.T.);
#620=ADVANCED_FACE('',(#549,#550,#551,#552,#553),#117,.F.);
#621=ADVANCED_FACE('',(#554),#118,.T.);
#622=ADVANCED_FACE('',(#555),#119,.T.);
#623=ADVANCED_FACE('',(#556),#120,.F.);
#624=ADVANCED_FACE('',(#557,#558),#583,.F.);
#625=ADVANCED_FACE('',(#559),#121,.F.);
#626=ADVANCED_FACE('',(#560,#561),#584,.F.);
#627=ADVANCED_FACE('',(#562),#122,.T.);
#628=ADVANCED_FACE('',(#563),#123,.F.);
#629=ADVANCED_FACE('',(#564,#565),#585,.F.);
#630=ADVANCED_FACE('',(#566),#124,.T.);
#631=ADVANCED_FACE('',(#567,#568),#586,.F.);
#632=ADVANCED_FACE('',(#569),#125,.T.);
#633=ADVANCED_FACE('',(#570),#126,.F.);
#634=CLOSED_SHELL('',(#587,#588,#589,#590,#591,#592,#593,#594,#595,#596,
#597,#598,#599,#600,#601,#602,#603,#604,#605,#606,#607,#608,#609,#610,#611,
#612,#613,#614,#615,#616,#617,#618,#619,#620,#621));
#635=CLOSED_SHELL('',(#622,#623,#624));
#636=CLOSED_SHELL('',(#625,#626,#627));
#637=CLOSED_SHELL('',(#628,#629,#630));
#638=CLOSED_SHELL('',(#631,#632,#633));
#639=STYLED_ITEM('',(#640),#647);
#640=PRESENTATION_STYLE_ASSIGNMENT((#641));
#641=SURFACE_STYLE_USAGE(.BOTH.,#642);
#642=SURFACE_SIDE_STYLE('',(#643));
#643=SURFACE_STYLE_FILL_AREA(#644);
#644=FILL_AREA_STYLE('',(#645));
#645=FILL_AREA_STYLE_COLOUR('',#646);
#646=COLOUR_RGB('',0.647058823529412,0.647058823529412,0.647058823529412);
#647=BREP_WITH_VOIDS('Part 1',#634,(#12,#13,#14,#15));
#648=SHAPE_DEFINITION_REPRESENTATION(#1112,#649);
#649=SHAPE_REPRESENTATION('Part 1',(#650),#1107);
#650=AXIS2_PLACEMENT_3D('',#930,#730,#731);
#651=AXIS2_PLACEMENT_3D('',#931,#732,#733);
#652=AXIS2_PLACEMENT_3D('',#932,#734,#735);
#653=AXIS2_PLACEMENT_3D('',#934,#736,#737);
#654=AXIS2_PLACEMENT_3D('',#936,#738,#739);
#655=AXIS2_PLACEMENT_3D('',#937,#740,#741);
#656=AXIS2_PLACEMENT_3D('',#938,#742,#743);
#657=AXIS2_PLACEMENT_3D('',#940,#744,#745);
#658=AXIS2_PLACEMENT_3D('',#949,#750,#751);
#659=AXIS2_PLACEMENT_3D('',#950,#752,#753);
#660=AXIS2_PLACEMENT_3D('',#955,#755,#756);
#661=AXIS2_PLACEMENT_3D('',#959,#758,#759);
#662=AXIS2_PLACEMENT_3D('',#963,#761,#762);
#663=AXIS2_PLACEMENT_3D('',#971,#767,#768);
#664=AXIS2_PLACEMENT_3D('',#977,#772,#773);
#665=AXIS2_PLACEMENT_3D('',#986,#778,#779);
#666=AXIS2_PLACEMENT_3D('',#992,#783,#784);
#667=AXIS2_PLACEMENT_3D('',#998,#788,#789);
#668=AXIS2_PLACEMENT_3D('',#1002,#791,#792);
#669=AXIS2_PLACEMENT_3D('',#1006,#794,#795);
#670=AXIS2_PLACEMENT_3D('',#1010,#797,#798);
#671=AXIS2_PLACEMENT_3D('',#1014,#800,#801);
#672=AXIS2_PLACEMENT_3D('',#1017,#804,#805);
#673=AXIS2_PLACEMENT_3D('',#1020,#808,#809);
#674=AXIS2_PLACEMENT_3D('',#1021,#810,#811);
#675=AXIS2_PLACEMENT_3D('',#1024,#814,#815);
#676=AXIS2_PLACEMENT_3D('',#1026,#817,#818);
#677=AXIS2_PLACEMENT_3D('',#1028,#820,#821);
#678=AXIS2_PLACEMENT_3D('',#1030,#823,#824);
#679=AXIS2_PLACEMENT_3D('',#1032,#826,#827);
#680=AXIS2_PLACEMENT_3D('',#1034,#829,#830);
#681=AXIS2_PLACEMENT_3D('',#1036,#832,#833);
#682=AXIS2_PLACEMENT_3D('',#1037,#834,#835);
#683=AXIS2_PLACEMENT_3D('',#1038,#836,#837);
#684=AXIS2_PLACEMENT_3D('',#1040,#838,#839);
#685=AXIS2_PLACEMENT_3D('',#1042,#840,#841);
#686=AXIS2_PLACEMENT_3D('',#1043,#842,#843);
#687=AXIS2_PLACEMENT_3D('',#1044,#844,#845);
#688=AXIS2_PLACEMENT_3D('',#1046,#846,#847);
#689=AXIS2_PLACEMENT_3D('',#1047,#848,#849);
#690=AXIS2_PLACEMENT_3D('',#1049,#850,#851);
#691=AXIS2_PLACEMENT_3D('',#1050,#852,#853);
#692=AXIS2_PLACEMENT_3D('',#1052,#854,#855);
#693=AXIS2_PLACEMENT_3D('',#1054,#856,#857);
#694=AXIS2_PLACEMENT_3D('',#1055,#858,#859);
#695=AXIS2_PLACEMENT_3D('',#1056,#860,#861);
#696=AXIS2_PLACEMENT_3D('',#1058,#862,#863);
#697=AXIS2_PLACEMENT_3D('',#1059,#864,#865);
#698=AXIS2_PLACEMENT_3D('',#1061,#866,#867);
#699=AXIS2_PLACEMENT_3D('',#1062,#868,#869);
#700=AXIS2_PLACEMENT_3D('',#1064,#870,#871);
#701=AXIS2_PLACEMENT_3D('',#1065,#872,#873);
#702=AXIS2_PLACEMENT_3D('',#1067,#874,#875);
#703=AXIS2_PLACEMENT_3D('',#1069,#876,#877);
#704=AXIS2_PLACEMENT_3D('',#1070,#878,#879);
#705=AXIS2_PLACEMENT_3D('',#1071,#880,#881);
#706=AXIS2_PLACEMENT_3D('',#1073,#882,#883);
#707=AXIS2_PLACEMENT_3D('',#1074,#884,#885);
#708=AXIS2_PLACEMENT_3D('',#1076,#886,#887);
#709=AXIS2_PLACEMENT_3D('',#1077,#888,#889);
#710=AXIS2_PLACEMENT_3D('',#1078,#890,#891);
#711=AXIS2_PLACEMENT_3D('',#1079,#892,#893);
#712=AXIS2_PLACEMENT_3D('',#1081,#894,#895);
#713=AXIS2_PLACEMENT_3D('',#1082,#896,#897);
#714=AXIS2_PLACEMENT_3D('',#1084,#898,#899);
#715=AXIS2_PLACEMENT_3D('',#1085,#900,#901);
#716=AXIS2_PLACEMENT_3D('',#1086,#902,#903);
#717=AXIS2_PLACEMENT_3D('',#1088,#904,#905);
#718=AXIS2_PLACEMENT_3D('',#1089,#906,#907);
#719=AXIS2_PLACEMENT_3D('',#1091,#908,#909);
#720=AXIS2_PLACEMENT_3D('',#1092,#910,#911);
#721=AXIS2_PLACEMENT_3D('',#1093,#912,#913);
#722=AXIS2_PLACEMENT_3D('',#1095,#914,#915);
#723=AXIS2_PLACEMENT_3D('',#1096,#916,#917);
#724=AXIS2_PLACEMENT_3D('',#1098,#918,#919);
#725=AXIS2_PLACEMENT_3D('',#1099,#920,#921);
#726=AXIS2_PLACEMENT_3D('',#1100,#922,#923);
#727=AXIS2_PLACEMENT_3D('',#1102,#924,#925);
#728=AXIS2_PLACEMENT_3D('',#1104,#926,#927);
#729=AXIS2_PLACEMENT_3D('',#1105,#928,#929);
#730=DIRECTION('',(0.,0.,1.));
#731=DIRECTION('',(1.,0.,0.));
#732=DIRECTION('',(0.,0.,-1.));
#733=DIRECTION('',(-1.,0.,0.));
#734=DIRECTION('',(0.,0.,-1.));
#735=DIRECTION('',(-1.,0.,0.));
#736=DIRECTION('',(0.,0.,-1.));
#737=DIRECTION('',(-1.,0.,0.));
#738=DIRECTION('',(0.,0.,-1.));
#739=DIRECTION('',(1.,0.,0.));
#740=DIRECTION('',(0.,0.,-1.));
#741=DIRECTION('',(-1.,0.,0.));
#742=DIRECTION('',(0.,0.,-1.));
#743=DIRECTION('',(-1.,0.,0.));
#744=DIRECTION('',(0.,1.,0.));
#745=DIRECTION('',(0.,0.,1.));
#746=DIRECTION('',(-1.,0.,0.));
#747=DIRECTION('',(0.,0.,1.));
#748=DIRECTION('',(-1.,0.,0.));
#749=DIRECTION('',(0.,0.,1.));
#750=DIRECTION('',(-1.,0.,0.));
#751=DIRECTION('',(0.,0.,1.));
#752=DIRECTION('',(-1.,0.,0.));
#753=DIRECTION('',(0.,-1.,0.));
#754=DIRECTION('',(0.,0.,-1.));
#755=DIRECTION('',(-1.,0.,0.));
#756=DIRECTION('',(0.,0.,-1.));
#757=DIRECTION('',(0.,-1.,0.));
#758=DIRECTION('',(-1.,0.,0.));
#759=DIRECTION('',(0.,0.999863897937836,0.016498048386301));
#760=DIRECTION('',(0.,0.,-1.));
#761=DIRECTION('',(-1.,0.,0.));
#762=DIRECTION('',(0.,1.3574264249001E-15,1.));
#763=DIRECTION('',(0.,1.,0.));
#764=DIRECTION('',(0.,-1.,0.));
#765=DIRECTION('',(0.,0.,1.));
#766=DIRECTION('',(0.,-1.,0.));
#767=DIRECTION('',(0.,-1.,0.));
#768=DIRECTION('',(0.,0.,-1.));
#769=DIRECTION('',(1.,0.,0.));
#770=DIRECTION('',(0.,0.,1.));
#771=DIRECTION('',(1.,0.,0.));
#772=DIRECTION('',(0.,1.,0.));
#773=DIRECTION('',(0.,0.,1.));
#774=DIRECTION('',(-1.,0.,0.));
#775=DIRECTION('',(0.,0.,1.));
#776=DIRECTION('',(1.,0.,0.));
#777=DIRECTION('',(0.,0.,1.));
#778=DIRECTION('',(1.,0.,0.));
#779=DIRECTION('',(0.,0.,-1.));
#780=DIRECTION('',(0.,1.,0.));
#781=DIRECTION('',(0.,0.,1.));
#782=DIRECTION('',(0.,-1.,0.));
#783=DIRECTION('',(0.,-1.,0.));
#784=DIRECTION('',(0.,0.,-1.));
#785=DIRECTION('',(1.,0.,0.));
#786=DIRECTION('',(0.,0.,1.));
#787=DIRECTION('',(1.,0.,0.));
#788=DIRECTION('',(-1.,0.,0.));
#789=DIRECTION('',(0.,0.,1.));
#790=DIRECTION('',(0.,0.,-1.));
#791=DIRECTION('',(-1.,0.,0.));
#792=DIRECTION('',(0.,-1.,0.));
#793=DIRECTION('',(0.,1.,0.));
#794=DIRECTION('',(-1.,0.,0.));
#795=DIRECTION('',(0.,1.3574264249001E-15,1.));
#796=DIRECTION('',(0.,0.,-1.));
#797=DIRECTION('',(-1.,0.,0.));
#798=DIRECTION('',(0.,0.999863897937836,0.016498048386301));
#799=DIRECTION('',(0.,-1.,0.));
#800=DIRECTION('',(-1.,0.,0.));
#801=DIRECTION('',(0.,0.,-1.));
#802=DIRECTION('',(0.,-1.,0.));
#803=DIRECTION('',(0.,1.,0.));
#804=DIRECTION('',(1.,0.,0.));
#805=DIRECTION('',(0.,0.,-1.));
#806=DIRECTION('',(0.,1.,0.));
#807=DIRECTION('',(0.,1.,0.));
#808=DIRECTION('',(0.,0.,-1.));
#809=DIRECTION('',(-1.,0.,0.));
#810=DIRECTION('',(-1.,0.,0.));
#811=DIRECTION('',(0.,0.,1.));
#812=DIRECTION('',(-1.,0.,0.));
#813=DIRECTION('',(-1.,0.,0.));
#814=DIRECTION('',(0.,0.,1.));
#815=DIRECTION('',(1.,0.,0.));
#816=DIRECTION('',(-1.,0.,0.));
#817=DIRECTION('',(-1.,0.,0.));
#818=DIRECTION('',(0.,0.,1.));
#819=DIRECTION('',(-1.,0.,0.));
#820=DIRECTION('',(0.,1.,0.));
#821=DIRECTION('',(0.,0.,1.));
#822=DIRECTION('',(-1.,0.,0.));
#823=DIRECTION('',(-1.,0.,0.));
#824=DIRECTION('',(0.,0.,1.));
#825=DIRECTION('',(-1.,0.,0.));
#826=DIRECTION('',(0.,0.,-1.));
#827=DIRECTION('',(-1.,0.,0.));
#828=DIRECTION('',(-1.,0.,0.));
#829=DIRECTION('',(-1.,0.,0.));
#830=DIRECTION('',(0.,0.,1.));
#831=DIRECTION('',(-1.,0.,0.));
#832=DIRECTION('',(0.,-1.,0.));
#833=DIRECTION('',(0.,0.,-1.));
#834=DIRECTION('',(0.,0.,-1.));
#835=DIRECTION('',(-1.,0.,0.));
#836=DIRECTION('',(0.,0.,-1.));
#837=DIRECTION('',(-1.,0.,0.));
#838=DIRECTION('',(0.,0.,-1.));
#839=DIRECTION('',(-1.,0.,0.));
#840=DIRECTION('',(0.,0.,-1.));
#841=DIRECTION('',(1.,0.,0.));
#842=DIRECTION('',(0.,0.,-1.));
#843=DIRECTION('',(-1.,0.,0.));
#844=DIRECTION('',(0.,0.,-1.));
#845=DIRECTION('',(-1.,0.,0.));
#846=DIRECTION('',(0.,0.,1.));
#847=DIRECTION('',(1.,0.,0.));
#848=DIRECTION('',(0.,0.,-1.));
#849=DIRECTION('',(-1.,0.,0.));
#850=DIRECTION('',(0.,0.,-1.));
#851=DIRECTION('',(-1.,0.,0.));
#852=DIRECTION('',(0.,0.,-1.));
#853=DIRECTION('',(-1.,0.,0.));
#854=DIRECTION('',(0.,0.,-1.));
#855=DIRECTION('',(-1.,0.,0.));
#856=DIRECTION('',(0.,0.,-1.));
#857=DIRECTION('',(1.,0.,0.));
#858=DIRECTION('',(0.,0.,-1.));
#859=DIRECTION('',(-1.,0.,0.));
#860=DIRECTION('',(0.,0.,-1.));
#861=DIRECTION('',(-1.,0.,0.));
#862=DIRECTION('',(0.,0.,1.));
#863=DIRECTION('',(1.,0.,0.));
#864=DIRECTION('',(0.,0.,-1.));
#865=DIRECTION('',(-1.,0.,0.));
#866=DIRECTION('',(0.,0.,1.));
#867=DIRECTION('',(1.,0.,0.));
#868=DIRECTION('',(0.,0.,-1.));
#869=DIRECTION('',(-1.,0.,0.));
#870=DIRECTION('',(0.,0.,-1.));
#871=DIRECTION('',(-1.,0.,0.));
#872=DIRECTION('',(0.,0.,-1.));
#873=DIRECTION('',(-1.,0.,0.));
#874=DIRECTION('',(0.,0.,-1.));
#875=DIRECTION('',(-1.,0.,0.));
#876=DIRECTION('',(0.,0.,-1.));
#877=DIRECTION('',(1.,0.,0.));
#878=DIRECTION('',(0.,0.,-1.));
#879=DIRECTION('',(-1.,0.,0.));
#880=DIRECTION('',(0.,0.,-1.));
#881=DIRECTION('',(-1.,0.,0.));
#882=DIRECTION('',(0.,0.,1.));
#883=DIRECTION('',(1.,0.,0.));
#884=DIRECTION('',(0.,0.,-1.));
#885=DIRECTION('',(-1.,0.,0.));
#886=DIRECTION('',(0.,0.,-1.));
#887=DIRECTION('',(1.,0.,0.));
#888=DIRECTION('',(0.,0.,-1.));
#889=DIRECTION('',(1.,0.,0.));
#890=DIRECTION('',(0.,0.,-1.));
#891=DIRECTION('',(1.,0.,0.));
#892=DIRECTION('',(0.,0.,-1.));
#893=DIRECTION('',(-1.,0.,0.));
#894=DIRECTION('',(0.,0.,-1.));
#895=DIRECTION('',(1.,0.,0.));
#896=DIRECTION('',(0.,0.,-1.));
#897=DIRECTION('',(-1.,0.,0.));
#898=DIRECTION('',(0.,0.,1.));
#899=DIRECTION('',(1.,0.,0.));
#900=DIRECTION('',(0.,0.,-1.));
#901=DIRECTION('',(1.,0.,0.));
#902=DIRECTION('',(0.,0.,-1.));
#903=DIRECTION('',(-1.,0.,0.));
#904=DIRECTION('',(0.,0.,1.));
#905=DIRECTION('',(1.,0.,0.));
#906=DIRECTION('',(0.,0.,-1.));
#907=DIRECTION('',(-1.,0.,0.));
#908=DIRECTION('',(0.,0.,-1.));
#909=DIRECTION('',(1.,0.,0.));
#910=DIRECTION('',(0.,0.,-1.));
#911=DIRECTION('',(1.,0.,0.));
#912=DIRECTION('',(0.,0.,-1.));
#913=DIRECTION('',(-1.,0.,0.));
#914=DIRECTION('',(0.,0.,1.));
#915=DIRECTION('',(1.,0.,0.));
#916=DIRECTION('',(0.,0.,-1.));
#917=DIRECTION('',(-1.,0.,0.));
#918=DIRECTION('',(0.,0.,-1.));
#919=DIRECTION('',(1.,0.,0.));
#920=DIRECTION('',(0.,0.,1.));
#921=DIRECTION('',(1.,0.,0.));
#922=DIRECTION('',(0.,0.,-1.));
#923=DIRECTION('',(-1.,0.,0.));
#924=DIRECTION('',(0.,0.,-1.));
#925=DIRECTION('',(-1.,0.,0.));
#926=DIRECTION('',(0.,0.,-1.));
#927=DIRECTION('',(1.,0.,0.));
#928=DIRECTION('',(0.,0.,-1.));
#929=DIRECTION('',(1.,0.,0.));
#930=CARTESIAN_POINT('',(0.,0.,0.));
#931=CARTESIAN_POINT('',(0.0283994577303529,-0.0227074424437014,0.00856097200036049));
#932=CARTESIAN_POINT('',(0.0283994577303529,-0.0227074424437014,0.00906097200036049));
#933=CARTESIAN_POINT('',(0.0269994577303529,-0.0227074424437014,0.00906097200036049));
#934=CARTESIAN_POINT('',(0.0283994577303529,-0.0227074424437014,0.00156097200036049));
#935=CARTESIAN_POINT('',(0.0269994577303529,-0.0227074424437014,0.00156097200036049));
#936=CARTESIAN_POINT('',(-0.00272554226964711,0.000192545056298559,0.00906097200036049));
#937=CARTESIAN_POINT('',(0.0283994577303529,-0.0227074424437014,0.00156097200036049));
#938=CARTESIAN_POINT('',(0.0283994577303529,-0.0227074424437014,0.00156097200036049));
#939=CARTESIAN_POINT('',(0.0260994577303529,-0.0227074424437014,0.00156097200036049));
#940=CARTESIAN_POINT('',(-0.140100542269647,-0.0279074424437014,-0.00593902799963951));
#941=CARTESIAN_POINT('',(-0.140100542269647,-0.0279074424437014,0.00906097200036049));
#942=CARTESIAN_POINT('',(0.0330994577303529,-0.0279074424437014,0.00906097200036049));
#943=CARTESIAN_POINT('',(-0.0383005422696471,-0.0279074424437014,0.00906097200036049));
#944=CARTESIAN_POINT('',(0.0330994577303529,-0.0279074424437014,-0.00593902799963951));
#945=CARTESIAN_POINT('',(0.0330994577303529,-0.0279074424437014,-0.00593902799963951));
#946=CARTESIAN_POINT('',(-0.140100542269647,-0.0279074424437014,-0.00593902799963951));
#947=CARTESIAN_POINT('',(-0.0383005422696471,-0.0279074424437014,-0.00593902799963951));
#948=CARTESIAN_POINT('',(-0.0383005422696471,-0.0279074424437014,-0.00593902799963951));
#949=CARTESIAN_POINT('',(0.0330994577303529,0.0887925575562986,-0.00593902799963951));
#950=CARTESIAN_POINT('',(0.0330994577303529,0.00264500759878283,0.00621242991382889));
#951=CARTESIAN_POINT('',(0.0330994577303529,0.000552388369121788,0.00621242991382889));
#952=CARTESIAN_POINT('',(0.0330994577303529,0.00260365970818285,0.00830464060883313));
#953=CARTESIAN_POINT('',(0.0330994577303529,0.000552388369121788,0.00585644339597458));
#954=CARTESIAN_POINT('',(0.0330994577303529,0.00055238836912179,0.00550940447736819));
#955=CARTESIAN_POINT('',(0.0330994577303529,0.00261886771342731,0.00546819342042672));
#956=CARTESIAN_POINT('',(0.0330994577303529,0.00261886771342731,0.00340130318830127));
#957=CARTESIAN_POINT('',(0.0330994577303529,0.00583781844265848,0.00340130318830127));
#958=CARTESIAN_POINT('',(0.0330994577303529,0.00905676917188965,0.00340130318830127));
#959=CARTESIAN_POINT('',(0.0330994577303529,0.00905676917188965,0.00547680428933396));
#960=CARTESIAN_POINT('',(0.0330994577303529,0.0111320966745922,0.005503647853075));
#961=CARTESIAN_POINT('',(0.0330994577303529,0.0111320966745922,0.00585312210768235));
#962=CARTESIAN_POINT('',(0.0330994577303529,0.0111320966745922,0.00620336294621274));
#963=CARTESIAN_POINT('',(0.0330994577303529,0.00905427733990594,0.00622669033163526));
#964=CARTESIAN_POINT('',(0.0330994577303529,0.00905427733990594,0.00830464060883313));
#965=CARTESIAN_POINT('',(0.0330994577303529,0.0058333944494175,0.00830464060883313));
#966=CARTESIAN_POINT('',(0.0330994577303529,0.0887925575562986,0.00906097200036049));
#967=CARTESIAN_POINT('',(0.0330994577303529,0.0279925575562986,0.00906097200036049));
#968=CARTESIAN_POINT('',(0.0330994577303529,0.0279925575562986,-0.00593902799963951));
#969=CARTESIAN_POINT('',(0.0330994577303529,0.0279925575562986,-0.00593902799963951));
#970=CARTESIAN_POINT('',(0.0330994577303529,0.0887925575562986,-0.00593902799963951));
#971=CARTESIAN_POINT('',(-0.140100542269647,0.0279925575562986,-0.00593902799963951));
#972=CARTESIAN_POINT('',(-0.140100542269647,0.0279925575562986,0.00906097200036049));
#973=CARTESIAN_POINT('',(-0.0383005422696471,0.0279925575562986,0.00906097200036049));
#974=CARTESIAN_POINT('',(-0.0383005422696471,0.0279925575562986,-0.00593902799963951));
#975=CARTESIAN_POINT('',(-0.0383005422696471,0.0279925575562986,-0.00593902799963951));
#976=CARTESIAN_POINT('',(-0.140100542269647,0.0279925575562986,-0.00593902799963951));
#977=CARTESIAN_POINT('',(-0.140100542269647,-0.0299074424437014,-0.00593902799963951));
#978=CARTESIAN_POINT('',(-0.140100542269647,-0.0299074424437014,0.00906097200036049));
#979=CARTESIAN_POINT('',(0.0350994577303529,-0.0299074424437014,0.00906097200036049));
#980=CARTESIAN_POINT('',(-0.0403005422696471,-0.0299074424437014,0.00906097200036049));
#981=CARTESIAN_POINT('',(-0.0403005422696471,-0.0299074424437014,-0.00593902799963951));
#982=CARTESIAN_POINT('',(-0.0403005422696471,-0.0299074424437014,-0.00793902799963951));
#983=CARTESIAN_POINT('',(-0.00260054226964712,-0.0299074424437014,-0.00793902799963951));
#984=CARTESIAN_POINT('',(0.0350994577303529,-0.0299074424437014,-0.00793902799963951));
#985=CARTESIAN_POINT('',(0.0350994577303529,-0.0299074424437014,-0.00593902799963951));
#986=CARTESIAN_POINT('',(-0.0403005422696471,0.0887925575562986,-0.00593902799963951));
#987=CARTESIAN_POINT('',(-0.0403005422696471,0.0887925575562986,0.00906097200036049));
#988=CARTESIAN_POINT('',(-0.0403005422696471,0.0299925575562985,0.00906097200036049));
#989=CARTESIAN_POINT('',(-0.0403005422696471,0.0299925575562985,-0.00593902799963951));
#990=CARTESIAN_POINT('',(-0.0403005422696471,0.0299925575562985,-0.00793902799963951));
#991=CARTESIAN_POINT('',(-0.0403005422696471,4.25575562985614E-5,-0.00793902799963951));
#992=CARTESIAN_POINT('',(-0.140100542269647,0.0299925575562985,-0.00593902799963951));
#993=CARTESIAN_POINT('',(-0.140100542269647,0.0299925575562985,0.00906097200036049));
#994=CARTESIAN_POINT('',(0.0350994577303529,0.0299925575562985,0.00906097200036049));
#995=CARTESIAN_POINT('',(0.0350994577303529,0.0299925575562985,-0.00593902799963951));
#996=CARTESIAN_POINT('',(0.0350994577303529,0.0299925575562985,-0.00793902799963951));
#997=CARTESIAN_POINT('',(-0.00260054226964712,0.0299925575562985,-0.00793902799963951));
#998=CARTESIAN_POINT('',(0.0350994577303529,0.0887925575562986,-0.00593902799963951));
#999=CARTESIAN_POINT('',(0.0350994577303529,0.000552388369121788,0.00585644339597458));
#1000=CARTESIAN_POINT('',(0.0350994577303529,0.000552388369121788,0.00550940447736819));
#1001=CARTESIAN_POINT('',(0.0350994577303529,0.00055238836912179,0.00621242991382889));
#1002=CARTESIAN_POINT('',(0.0350994577303529,0.00264500759878283,0.00621242991382889));
#1003=CARTESIAN_POINT('',(0.0350994577303529,0.00260365970818285,0.00830464060883313));
#1004=CARTESIAN_POINT('',(0.0350994577303529,0.0058333944494175,0.00830464060883313));
#1005=CARTESIAN_POINT('',(0.0350994577303529,0.00905427733990594,0.00830464060883313));
#1006=CARTESIAN_POINT('',(0.0350994577303529,0.00905427733990594,0.00622669033163526));
#1007=CARTESIAN_POINT('',(0.0350994577303529,0.0111320966745922,0.00620336294621274));
#1008=CARTESIAN_POINT('',(0.0350994577303529,0.0111320966745922,0.00585312210768235));
#1009=CARTESIAN_POINT('',(0.0350994577303529,0.0111320966745922,0.005503647853075));
#1010=CARTESIAN_POINT('',(0.0350994577303529,0.00905676917188965,0.00547680428933396));
#1011=CARTESIAN_POINT('',(0.0350994577303529,0.00905676917188965,0.00340130318830127));
#1012=CARTESIAN_POINT('',(0.0350994577303529,0.00583781844265848,0.00340130318830127));
#1013=CARTESIAN_POINT('',(0.0350994577303529,0.00261886771342731,0.00340130318830127));
#1014=CARTESIAN_POINT('',(0.0350994577303529,0.00261886771342731,0.00546819342042672));
#1015=CARTESIAN_POINT('',(0.0350994577303529,0.0887925575562986,0.00906097200036049));
#1016=CARTESIAN_POINT('',(0.0350994577303529,0.0887925575562986,-0.00793902799963951));
#1017=CARTESIAN_POINT('',(-0.0383005422696471,0.0887925575562986,-0.00593902799963951));
#1018=CARTESIAN_POINT('',(-0.0383005422696471,0.0887925575562986,0.00906097200036049));
#1019=CARTESIAN_POINT('',(-0.0383005422696471,0.0887925575562986,-0.00593902799963951));
#1020=CARTESIAN_POINT('',(0.,0.,0.00906097200036049));
#1021=CARTESIAN_POINT('',(0.0350994577303529,0.00264500759878283,0.00621242991382889));
#1022=CARTESIAN_POINT('',(0.0350994577303529,0.00260365970818285,0.00830464060883313));
#1023=CARTESIAN_POINT('',(0.0350994577303529,0.000552388369121788,0.00621242991382889));
#1024=CARTESIAN_POINT('',(0.0350994577303529,0.0058333944494175,0.00830464060883313));
#1025=CARTESIAN_POINT('',(0.0350994577303529,0.00905427733990594,0.00830464060883313));
#1026=CARTESIAN_POINT('',(0.0350994577303529,0.00905427733990594,0.00622669033163526));
#1027=CARTESIAN_POINT('',(0.0350994577303529,0.0111320966745922,0.00620336294621274));
#1028=CARTESIAN_POINT('',(0.0350994577303529,0.0111320966745922,0.00585312210768235));
#1029=CARTESIAN_POINT('',(0.0350994577303529,0.0111320966745922,0.005503647853075));
#1030=CARTESIAN_POINT('',(0.0350994577303529,0.00905676917188965,0.00547680428933396));
#1031=CARTESIAN_POINT('',(0.0350994577303529,0.00905676917188965,0.00340130318830127));
#1032=CARTESIAN_POINT('',(0.0350994577303529,0.00583781844265848,0.00340130318830127));
#1033=CARTESIAN_POINT('',(0.0350994577303529,0.00261886771342731,0.00340130318830127));
#1034=CARTESIAN_POINT('',(0.0350994577303529,0.00261886771342731,0.00546819342042672));
#1035=CARTESIAN_POINT('',(0.0350994577303529,0.000552388369121788,0.00550940447736819));
#1036=CARTESIAN_POINT('',(0.0350994577303529,0.000552388369121788,0.00585644339597458));
#1037=CARTESIAN_POINT('',(0.0283994577303529,0.0227925575562986,0.00856097200036049));
#1038=CARTESIAN_POINT('',(0.0283994577303529,0.0227925575562986,0.00906097200036049));
#1039=CARTESIAN_POINT('',(0.0269994577303529,0.0227925575562986,0.00906097200036049));
#1040=CARTESIAN_POINT('',(0.0283994577303529,0.0227925575562986,0.00156097200036049));
#1041=CARTESIAN_POINT('',(0.0269994577303529,0.0227925575562986,0.00156097200036049));
#1042=CARTESIAN_POINT('',(-0.00272554226964711,0.000192545056298559,0.00906097200036049));
#1043=CARTESIAN_POINT('',(0.0283994577303529,0.0227925575562986,0.00156097200036049));
#1044=CARTESIAN_POINT('',(0.0283994577303529,0.0227925575562986,0.00156097200036049));
#1045=CARTESIAN_POINT('',(0.0260994577303529,0.0227925575562986,0.00156097200036049));
#1046=CARTESIAN_POINT('',(0.0283994577303529,0.0227925575562986,-0.00593902799963951));
#1047=CARTESIAN_POINT('',(0.0283994577303529,0.0227925575562986,-0.00593902799963951));
#1048=CARTESIAN_POINT('',(0.0260994577303529,0.0227925575562986,-0.00593902799963951));
#1049=CARTESIAN_POINT('',(-0.0336005422696471,0.0232925575562986,0.00856097200036049));
#1050=CARTESIAN_POINT('',(-0.0336005422696471,0.0232925575562986,0.00906097200036049));
#1051=CARTESIAN_POINT('',(-0.0350005422696471,0.0232925575562986,0.00906097200036049));
#1052=CARTESIAN_POINT('',(-0.0336005422696471,0.0232925575562986,0.00156097200036049));
#1053=CARTESIAN_POINT('',(-0.0350005422696471,0.0232925575562986,0.00156097200036049));
#1054=CARTESIAN_POINT('',(-0.00272554226964711,0.000192545056298559,0.00906097200036049));
#1055=CARTESIAN_POINT('',(-0.0336005422696471,0.0232925575562986,0.00156097200036049));
#1056=CARTESIAN_POINT('',(-0.0336005422696471,0.0232925575562986,0.00156097200036049));
#1057=CARTESIAN_POINT('',(-0.0359005422696471,0.0232925575562986,0.00156097200036049));
#1058=CARTESIAN_POINT('',(-0.0336005422696471,0.0232925575562986,-0.00593902799963951));
#1059=CARTESIAN_POINT('',(-0.0336005422696471,0.0232925575562986,-0.00593902799963951));
#1060=CARTESIAN_POINT('',(-0.0359005422696471,0.0232925575562986,-0.00593902799963951));
#1061=CARTESIAN_POINT('',(0.0283994577303529,-0.0227074424437014,-0.00593902799963951));
#1062=CARTESIAN_POINT('',(0.0283994577303529,-0.0227074424437014,-0.00593902799963951));
#1063=CARTESIAN_POINT('',(0.0260994577303529,-0.0227074424437014,-0.00593902799963951));
#1064=CARTESIAN_POINT('',(-0.0336005422696471,-0.0227074424437014,0.00856097200036049));
#1065=CARTESIAN_POINT('',(-0.0336005422696471,-0.0227074424437014,0.00906097200036049));
#1066=CARTESIAN_POINT('',(-0.0350005422696471,-0.0227074424437014,0.00906097200036049));
#1067=CARTESIAN_POINT('',(-0.0336005422696471,-0.0227074424437014,0.00156097200036049));
#1068=CARTESIAN_POINT('',(-0.0350005422696471,-0.0227074424437014,0.00156097200036049));
#1069=CARTESIAN_POINT('',(-0.00272554226964711,0.000192545056298559,0.00906097200036049));
#1070=CARTESIAN_POINT('',(-0.0336005422696471,-0.0227074424437014,0.00156097200036049));
#1071=CARTESIAN_POINT('',(-0.0336005422696471,-0.0227074424437014,0.00156097200036049));
#1072=CARTESIAN_POINT('',(-0.0359005422696471,-0.0227074424437014,0.00156097200036049));
#1073=CARTESIAN_POINT('',(-0.0336005422696471,-0.0227074424437014,-0.00593902799963951));
#1074=CARTESIAN_POINT('',(-0.0336005422696471,-0.0227074424437014,-0.00593902799963951));
#1075=CARTESIAN_POINT('',(-0.0359005422696471,-0.0227074424437014,-0.00593902799963951));
#1076=CARTESIAN_POINT('',(-0.00260054226964712,4.25575562985614E-5,-0.00593902799963951));
#1077=CARTESIAN_POINT('',(-0.00260054226964712,4.25575562985614E-5,-0.00793902799963951));
#1078=CARTESIAN_POINT('',(-0.00272554226964711,0.000192545056298559,0.00156097200036049));
#1079=CARTESIAN_POINT('',(0.0283994577303529,-0.0227074424437014,0.00156097200036049));
#1080=CARTESIAN_POINT('',(0.0283984577303529,-0.0227074424437014,0.00156097200036049));
#1081=CARTESIAN_POINT('',(-0.00260054226964712,4.25575562985614E-5,-0.00593902799963951));
#1082=CARTESIAN_POINT('',(0.0283994577303529,-0.0227074424437014,-0.00593902799963951));
#1083=CARTESIAN_POINT('',(0.0283984577303529,-0.0227074424437014,-0.00593902799963951));
#1084=CARTESIAN_POINT('',(0.0283994577303529,-0.0227074424437014,-0.00593902799963951));
#1085=CARTESIAN_POINT('',(-0.00260054226964712,4.25575562985614E-5,-0.00593902799963951));
#1086=CARTESIAN_POINT('',(0.0283994577303529,0.0227925575562986,-0.00593902799963951));
#1087=CARTESIAN_POINT('',(0.0283984577303529,0.0227925575562986,-0.00593902799963951));
#1088=CARTESIAN_POINT('',(0.0283994577303529,0.0227925575562986,-0.00593902799963951));
#1089=CARTESIAN_POINT('',(0.0283994577303529,0.0227925575562986,0.00156097200036049));
#1090=CARTESIAN_POINT('',(0.0283984577303529,0.0227925575562986,0.00156097200036049));
#1091=CARTESIAN_POINT('',(-0.00272554226964711,0.000192545056298559,0.00156097200036049));
#1092=CARTESIAN_POINT('',(-0.00260054226964712,4.25575562985614E-5,-0.00593902799963951));
#1093=CARTESIAN_POINT('',(-0.0336005422696471,0.0232925575562986,-0.00593902799963951));
#1094=CARTESIAN_POINT('',(-0.0336015422696471,0.0232925575562986,-0.00593902799963951));
#1095=CARTESIAN_POINT('',(-0.0336005422696471,0.0232925575562986,-0.00593902799963951));
#1096=CARTESIAN_POINT('',(-0.0336005422696471,0.0232925575562986,0.00156097200036049));
#1097=CARTESIAN_POINT('',(-0.0336015422696471,0.0232925575562986,0.00156097200036049));
#1098=CARTESIAN_POINT('',(-0.00272554226964711,0.000192545056298559,0.00156097200036049));
#1099=CARTESIAN_POINT('',(-0.0336005422696471,-0.0227074424437014,-0.00593902799963951));
#1100=CARTESIAN_POINT('',(-0.0336005422696471,-0.0227074424437014,-0.00593902799963951));
#1101=CARTESIAN_POINT('',(-0.0336015422696471,-0.0227074424437014,-0.00593902799963951));
#1102=CARTESIAN_POINT('',(-0.0336005422696471,-0.0227074424437014,0.00156097200036049));
#1103=CARTESIAN_POINT('',(-0.0336015422696471,-0.0227074424437014,0.00156097200036049));
#1104=CARTESIAN_POINT('',(-0.00272554226964711,0.000192545056298559,0.00156097200036049));
#1105=CARTESIAN_POINT('',(-0.00260054226964712,4.25575562985614E-5,-0.00593902799963951));
#1106=MECHANICAL_DESIGN_GEOMETRIC_PRESENTATION_REPRESENTATION('',(#639),
#1107);
#1107=(
GEOMETRIC_REPRESENTATION_CONTEXT(3)
GLOBAL_UNCERTAINTY_ASSIGNED_CONTEXT((#1108))
GLOBAL_UNIT_ASSIGNED_CONTEXT((#1111,#1110,#1109))
REPRESENTATION_CONTEXT('Part 1','TOP_LEVEL_ASSEMBLY_PART')
);
#1108=UNCERTAINTY_MEASURE_WITH_UNIT(LENGTH_MEASURE(1.E-8),#1111,
'DISTANCE_ACCURACY_VALUE','Maximum Tolerance applied to model');
#1109=(
NAMED_UNIT(*)
SI_UNIT($,.STERADIAN.)
SOLID_ANGLE_UNIT()
);
#1110=(
NAMED_UNIT(*)
PLANE_ANGLE_UNIT()
SI_UNIT($,.RADIAN.)
);
#1111=(
LENGTH_UNIT()
NAMED_UNIT(*)
SI_UNIT($,.METRE.)
);
#1112=PRODUCT_DEFINITION_SHAPE('','',#1113);
#1113=PRODUCT_DEFINITION('','',#1115,#1114);
#1114=PRODUCT_DEFINITION_CONTEXT('',#1121,'design');
#1115=PRODUCT_DEFINITION_FORMATION_WITH_SPECIFIED_SOURCE('','',#1117,
 .NOT_KNOWN.);
#1116=PRODUCT_RELATED_PRODUCT_CATEGORY('','',(#1117));
#1117=PRODUCT('Part 1','Part 1','Part 1',(#1119));
#1118=PRODUCT_CATEGORY('','');
#1119=PRODUCT_CONTEXT('',#1121,'mechanical');
#1120=APPLICATION_PROTOCOL_DEFINITION('international standard',
'ap242_managed_model_based_3d_engineering',2020,#1121);
#1121=APPLICATION_CONTEXT('managed model based 3d engineering');
ENDSEC;
END-ISO-10303-21;
