ISO-10303-21;
HEADER;
/* Generated by software containing ST-Developer
 * from STEP Tools, Inc. (www.steptools.com) 
 */
/* OPTION: using custom renumber hook */

FILE_DESCRIPTION(
/* description */ ('STEP AP242 Edition 2',
'CAx-IF Rec.Pracs.---Representation and Presentation of Product Manufa
cturing Information (PMI)---4.0---2014-10-13',
'CAx-IF Rec.Pracs.---3D Tessellated Geometry---0.4---2014-09-14','2;1',
'CAx-IF Rec.Pracs.---User Defined Attributes---1.5---2016-08-15'),
/* implementation_level */ '2;1');

FILE_NAME(
/* name */ 'Part Studio 1 - Part 1',
/* time_stamp */ '2026-10-09T00:00:05Z',
/* author */ (''),
/* organization */ (''),
/* preprocessor_version */ 'ST-DEVELOPER v20',
/* originating_system */ 'ONSHAPE BY PTC INC, 1.221',
/* authorisation */ '  ');

FILE_SCHEMA (('AP242_MANAGED_MODEL_BASED_3D_ENGINEERING_MIM_LF { 1 0 10303 442 3 1 4 }'));
ENDSEC;

DATA;
#10=SHAPE_REPRESENTATION_RELATIONSHIP('','',#725,#11);
#11=ADVANCED_BREP_SHAPE_REPRESENTATION('',(#723),#1247);
#12=ORIENTED_CLOSED_SHELL('',*,#711,.F.);
#13=ORIENTED_CLOSED_SHELL('',*,#712,.F.);
#14=ORIENTED_CLOSED_SHELL('',*,#713,.F.);
#15=ORIENTED_CLOSED_SHELL('',*,#714,.F.);
#16=LINE('',#1057,#60);
#17=LINE('',#1060,#61);
#18=LINE('',#1062,#62);
#19=LINE('',#1064,#63);
#20=LINE('',#1069,#64);
#21=LINE('',#1073,#65);
#22=LINE('',#1077,#66);
#23=LINE('',#1081,#67);
#24=LINE('',#1082,#68);
#25=LINE('',#1084,#69);
#26=LINE('',#1086,#70);
#27=LINE('',#1088,#71);
#28=LINE('',#1090,#72);
#29=LINE('',#1092,#73);
#30=LINE('',#1094,#74);
#31=LINE('',#1097,#75);
#32=LINE('',#1099,#76);
#33=LINE('',#1101,#77);
#34=LINE('',#1103,#78);
#35=LINE('',#1106,#79);
#36=LINE('',#1108,#80);
#37=LINE('',#1110,#81);
#38=LINE('',#1112,#82);
#39=LINE('',#1115,#83);
#40=LINE('',#1117,#84);
#41=LINE('',#1119,#85);
#42=LINE('',#1121,#86);
#43=LINE('',#1126,#87);
#44=LINE('',#1130,#88);
#45=LINE('',#1134,#89);
#46=LINE('',#1137,#90);
#47=LINE('',#1140,#91);
#48=LINE('',#1142,#92);
#49=LINE('',#1144,#93);
#50=LINE('',#1146,#94);
#51=LINE('',#1147,#95);
#52=LINE('',#1154,#96);
#53=LINE('',#1155,#97);
#54=LINE('',#1157,#98);
#55=LINE('',#1159,#99);
#56=LINE('',#1161,#100);
#57=LINE('',#1163,#101);
#58=LINE('',#1165,#102);
#59=LINE('',#1167,#103);
#60=VECTOR('',#834,1.);
#61=VECTOR('',#835,1.);
#62=VECTOR('',#836,1.);
#63=VECTOR('',#837,1.);
#64=VECTOR('',#842,1.);
#65=VECTOR('',#845,1.);
#66=VECTOR('',#848,1.);
#67=VECTOR('',#851,1.);
#68=VECTOR('',#852,1.);
#69=VECTOR('',#853,1.);
#70=VECTOR('',#854,1.);
#71=VECTOR('',#857,1.);
#72=VECTOR('',#858,1.);
#73=VECTOR('',#859,1.);
#74=VECTOR('',#862,1.);
#75=VECTOR('',#863,1.);
#76=VECTOR('',#864,1.);
#77=VECTOR('',#865,1.);
#78=VECTOR('',#868,1.);
#79=VECTOR('',#869,1.);
#80=VECTOR('',#870,1.);
#81=VECTOR('',#871,1.);
#82=VECTOR('',#874,1.);
#83=VECTOR('',#875,1.);
#84=VECTOR('',#876,1.);
#85=VECTOR('',#877,1.);
#86=VECTOR('',#880,1.);
#87=VECTOR('',#883,1.);
#88=VECTOR('',#886,1.);
#89=VECTOR('',#889,1.);
#90=VECTOR('',#892,1.);
#91=VECTOR('',#893,1.);
#92=VECTOR('',#894,1.);
#93=VECTOR('',#895,1.);
#94=VECTOR('',#898,1.);
#95=VECTOR('',#899,1.);
#96=VECTOR('',#912,1.);
#97=VECTOR('',#913,1.);
#98=VECTOR('',#916,1.);
#99=VECTOR('',#919,1.);
#100=VECTOR('',#922,1.);
#101=VECTOR('',#925,1.);
#102=VECTOR('',#928,1.);
#103=VECTOR('',#931,1.);
#104=PLANE('',#730);
#105=PLANE('',#731);
#106=PLANE('',#733);
#107=PLANE('',#734);
#108=PLANE('',#739);
#109=PLANE('',#740);
#110=PLANE('',#741);
#111=PLANE('',#742);
#112=PLANE('',#743);
#113=PLANE('',#748);
#114=PLANE('',#749);
#115=PLANE('',#755);
#116=PLANE('',#757);
#117=PLANE('',#759);
#118=PLANE('',#761);
#119=PLANE('',#765);
#120=PLANE('',#766);
#121=PLANE('',#773);
#122=PLANE('',#774);
#123=PLANE('',#783);
#124=PLANE('',#784);
#125=PLANE('',#788);
#126=PLANE('',#789);
#127=PLANE('',#798);
#128=PLANE('',#800);
#129=PLANE('',#803);
#130=PLANE('',#807);
#131=PLANE('',#808);
#132=PLANE('',#812);
#133=PLANE('',#816);
#134=PLANE('',#817);
#135=ORIENTED_EDGE('',*,*,#303,.T.);
#136=ORIENTED_EDGE('',*,*,#304,.F.);
#137=ORIENTED_EDGE('',*,*,#303,.F.);
#138=ORIENTED_EDGE('',*,*,#305,.F.);
#139=ORIENTED_EDGE('',*,*,#304,.T.);
#140=ORIENTED_EDGE('',*,*,#306,.F.);
#141=ORIENTED_EDGE('',*,*,#307,.F.);
#142=ORIENTED_EDGE('',*,*,#308,.T.);
#143=ORIENTED_EDGE('',*,*,#309,.T.);
#144=ORIENTED_EDGE('',*,*,#310,.F.);
#145=ORIENTED_EDGE('',*,*,#311,.F.);
#146=ORIENTED_EDGE('',*,*,#312,.F.);
#147=ORIENTED_EDGE('',*,*,#313,.F.);
#148=ORIENTED_EDGE('',*,*,#314,.F.);
#149=ORIENTED_EDGE('',*,*,#315,.F.);
#150=ORIENTED_EDGE('',*,*,#316,.F.);
#151=ORIENTED_EDGE('',*,*,#317,.F.);
#152=ORIENTED_EDGE('',*,*,#318,.F.);
#153=ORIENTED_EDGE('',*,*,#319,.F.);
#154=ORIENTED_EDGE('',*,*,#320,.T.);
#155=ORIENTED_EDGE('',*,*,#307,.T.);
#156=ORIENTED_EDGE('',*,*,#321,.F.);
#157=ORIENTED_EDGE('',*,*,#322,.F.);
#158=ORIENTED_EDGE('',*,*,#323,.T.);
#159=ORIENTED_EDGE('',*,*,#319,.T.);
#160=ORIENTED_EDGE('',*,*,#324,.T.);
#161=ORIENTED_EDGE('',*,*,#325,.T.);
#162=ORIENTED_EDGE('',*,*,#326,.F.);
#163=ORIENTED_EDGE('',*,*,#327,.T.);
#164=ORIENTED_EDGE('',*,*,#328,.F.);
#165=ORIENTED_EDGE('',*,*,#329,.T.);
#166=ORIENTED_EDGE('',*,*,#330,.T.);
#167=ORIENTED_EDGE('',*,*,#331,.T.);
#168=ORIENTED_EDGE('',*,*,#332,.F.);
#169=ORIENTED_EDGE('',*,*,#333,.T.);
#170=ORIENTED_EDGE('',*,*,#334,.T.);
#171=ORIENTED_EDGE('',*,*,#335,.T.);
#172=ORIENTED_EDGE('',*,*,#336,.T.);
#173=ORIENTED_EDGE('',*,*,#337,.T.);
#174=ORIENTED_EDGE('',*,*,#338,.T.);
#175=ORIENTED_EDGE('',*,*,#339,.T.);
#176=ORIENTED_EDGE('',*,*,#340,.T.);
#177=ORIENTED_EDGE('',*,*,#341,.T.);
#178=ORIENTED_EDGE('',*,*,#342,.T.);
#179=ORIENTED_EDGE('',*,*,#343,.T.);
#180=ORIENTED_EDGE('',*,*,#344,.T.);
#181=ORIENTED_EDGE('',*,*,#345,.T.);
#182=ORIENTED_EDGE('',*,*,#346,.T.);
#183=ORIENTED_EDGE('',*,*,#347,.T.);
#184=ORIENTED_EDGE('',*,*,#348,.F.);
#185=ORIENTED_EDGE('',*,*,#309,.F.);
#186=ORIENTED_EDGE('',*,*,#349,.T.);
#187=ORIENTED_EDGE('',*,*,#322,.T.);
#188=ORIENTED_EDGE('',*,*,#330,.F.);
#189=ORIENTED_EDGE('',*,*,#350,.T.);
#190=ORIENTED_EDGE('',*,*,#324,.F.);
#191=ORIENTED_EDGE('',*,*,#351,.T.);
#192=ORIENTED_EDGE('',*,*,#346,.F.);
#193=ORIENTED_EDGE('',*,*,#352,.T.);
#194=ORIENTED_EDGE('',*,*,#334,.F.);
#195=ORIENTED_EDGE('',*,*,#353,.T.);
#196=ORIENTED_EDGE('',*,*,#306,.T.);
#197=ORIENTED_EDGE('',*,*,#348,.T.);
#198=ORIENTED_EDGE('',*,*,#321,.T.);
#199=ORIENTED_EDGE('',*,*,#318,.T.);
#200=ORIENTED_EDGE('',*,*,#310,.T.);
#201=ORIENTED_EDGE('',*,*,#354,.F.);
#202=ORIENTED_EDGE('',*,*,#337,.F.);
#203=ORIENTED_EDGE('',*,*,#355,.T.);
#204=ORIENTED_EDGE('',*,*,#317,.T.);
#205=ORIENTED_EDGE('',*,*,#356,.F.);
#206=ORIENTED_EDGE('',*,*,#338,.F.);
#207=ORIENTED_EDGE('',*,*,#354,.T.);
#208=ORIENTED_EDGE('',*,*,#316,.T.);
#209=ORIENTED_EDGE('',*,*,#357,.F.);
#210=ORIENTED_EDGE('',*,*,#339,.F.);
#211=ORIENTED_EDGE('',*,*,#356,.T.);
#212=ORIENTED_EDGE('',*,*,#315,.T.);
#213=ORIENTED_EDGE('',*,*,#358,.F.);
#214=ORIENTED_EDGE('',*,*,#340,.F.);
#215=ORIENTED_EDGE('',*,*,#357,.T.);
#216=ORIENTED_EDGE('',*,*,#314,.T.);
#217=ORIENTED_EDGE('',*,*,#359,.F.);
#218=ORIENTED_EDGE('',*,*,#341,.F.);
#219=ORIENTED_EDGE('',*,*,#358,.T.);
#220=ORIENTED_EDGE('',*,*,#313,.T.);
#221=ORIENTED_EDGE('',*,*,#360,.F.);
#222=ORIENTED_EDGE('',*,*,#342,.F.);
#223=ORIENTED_EDGE('',*,*,#359,.T.);
#224=ORIENTED_EDGE('',*,*,#312,.T.);
#225=ORIENTED_EDGE('',*,*,#361,.F.);
#226=ORIENTED_EDGE('',*,*,#343,.F.);
#227=ORIENTED_EDGE('',*,*,#360,.T.);
#228=ORIENTED_EDGE('',*,*,#311,.T.);
#229=ORIENTED_EDGE('',*,*,#355,.F.);
#230=ORIENTED_EDGE('',*,*,#336,.F.);
#231=ORIENTED_EDGE('',*,*,#361,.T.);
#232=ORIENTED_EDGE('',*,*,#362,.T.);
#233=ORIENTED_EDGE('',*,*,#363,.F.);
#234=ORIENTED_EDGE('',*,*,#362,.F.);
#235=ORIENTED_EDGE('',*,*,#364,.F.);
#236=ORIENTED_EDGE('',*,*,#363,.T.);
#237=ORIENTED_EDGE('',*,*,#365,.T.);
#238=ORIENTED_EDGE('',*,*,#364,.T.);
#239=ORIENTED_EDGE('',*,*,#366,.T.);
#240=ORIENTED_EDGE('',*,*,#367,.F.);
#241=ORIENTED_EDGE('',*,*,#366,.F.);
#242=ORIENTED_EDGE('',*,*,#368,.F.);
#243=ORIENTED_EDGE('',*,*,#367,.T.);
#244=ORIENTED_EDGE('',*,*,#369,.T.);
#245=ORIENTED_EDGE('',*,*,#368,.T.);
#246=ORIENTED_EDGE('',*,*,#370,.T.);
#247=ORIENTED_EDGE('',*,*,#305,.T.);
#248=ORIENTED_EDGE('',*,*,#371,.T.);
#249=ORIENTED_EDGE('',*,*,#372,.F.);
#250=ORIENTED_EDGE('',*,*,#371,.F.);
#251=ORIENTED_EDGE('',*,*,#373,.F.);
#252=ORIENTED_EDGE('',*,*,#372,.T.);
#253=ORIENTED_EDGE('',*,*,#374,.F.);
#254=ORIENTED_EDGE('',*,*,#373,.T.);
#255=ORIENTED_EDGE('',*,*,#308,.F.);
#256=ORIENTED_EDGE('',*,*,#320,.F.);
#257=ORIENTED_EDGE('',*,*,#323,.F.);
#258=ORIENTED_EDGE('',*,*,#349,.F.);
#259=ORIENTED_EDGE('',*,*,#365,.F.);
#260=ORIENTED_EDGE('',*,*,#369,.F.);
#261=ORIENTED_EDGE('',*,*,#370,.F.);
#262=ORIENTED_EDGE('',*,*,#374,.T.);
#263=ORIENTED_EDGE('',*,*,#326,.T.);
#264=ORIENTED_EDGE('',*,*,#375,.T.);
#265=ORIENTED_EDGE('',*,*,#328,.T.);
#266=ORIENTED_EDGE('',*,*,#376,.T.);
#267=ORIENTED_EDGE('',*,*,#332,.T.);
#268=ORIENTED_EDGE('',*,*,#377,.T.);
#269=ORIENTED_EDGE('',*,*,#344,.F.);
#270=ORIENTED_EDGE('',*,*,#378,.T.);
#271=ORIENTED_EDGE('',*,*,#375,.F.);
#272=ORIENTED_EDGE('',*,*,#325,.F.);
#273=ORIENTED_EDGE('',*,*,#350,.F.);
#274=ORIENTED_EDGE('',*,*,#329,.F.);
#275=ORIENTED_EDGE('',*,*,#376,.F.);
#276=ORIENTED_EDGE('',*,*,#331,.F.);
#277=ORIENTED_EDGE('',*,*,#353,.F.);
#278=ORIENTED_EDGE('',*,*,#333,.F.);
#279=ORIENTED_EDGE('',*,*,#377,.F.);
#280=ORIENTED_EDGE('',*,*,#335,.F.);
#281=ORIENTED_EDGE('',*,*,#352,.F.);
#282=ORIENTED_EDGE('',*,*,#345,.F.);
#283=ORIENTED_EDGE('',*,*,#378,.F.);
#284=ORIENTED_EDGE('',*,*,#347,.F.);
#285=ORIENTED_EDGE('',*,*,#351,.F.);
#286=ORIENTED_EDGE('',*,*,#327,.F.);
#287=ORIENTED_EDGE('',*,*,#379,.T.);
#288=ORIENTED_EDGE('',*,*,#380,.F.);
#289=ORIENTED_EDGE('',*,*,#380,.T.);
#290=ORIENTED_EDGE('',*,*,#379,.F.);
#291=ORIENTED_EDGE('',*,*,#381,.F.);
#292=ORIENTED_EDGE('',*,*,#381,.T.);
#293=ORIENTED_EDGE('',*,*,#382,.F.);
#294=ORIENTED_EDGE('',*,*,#382,.T.);
#295=ORIENTED_EDGE('',*,*,#383,.F.);
#296=ORIENTED_EDGE('',*,*,#383,.T.);
#297=ORIENTED_EDGE('',*,*,#384,.F.);
#298=ORIENTED_EDGE('',*,*,#384,.T.);
#299=ORIENTED_EDGE('',*,*,#385,.T.);
#300=ORIENTED_EDGE('',*,*,#386,.F.);
#301=ORIENTED_EDGE('',*,*,#386,.T.);
#302=ORIENTED_EDGE('',*,*,#385,.F.);
#303=EDGE_CURVE('',#387,#387,#451,.T.);
#304=EDGE_CURVE('',#388,#388,#452,.T.);
#305=EDGE_CURVE('',#389,#389,#453,.T.);
#306=EDGE_CURVE('',#390,#391,#16,.T.);
#307=EDGE_CURVE('',#392,#390,#17,.T.);
#308=EDGE_CURVE('',#392,#393,#18,.T.);
#309=EDGE_CURVE('',#393,#391,#19,.T.);
#310=EDGE_CURVE('',#394,#395,#454,.T.);
#311=EDGE_CURVE('',#396,#394,#20,.F.);
#312=EDGE_CURVE('',#397,#396,#455,.T.);
#313=EDGE_CURVE('',#398,#397,#21,.T.);
#314=EDGE_CURVE('',#399,#398,#456,.T.);
#315=EDGE_CURVE('',#400,#399,#22,.T.);
#316=EDGE_CURVE('',#401,#400,#457,.T.);
#317=EDGE_CURVE('',#395,#401,#23,.T.);
#318=EDGE_CURVE('',#402,#390,#24,.T.);
#319=EDGE_CURVE('',#403,#402,#25,.T.);
#320=EDGE_CURVE('',#403,#392,#26,.T.);
#321=EDGE_CURVE('',#404,#402,#27,.T.);
#322=EDGE_CURVE('',#405,#404,#28,.T.);
#323=EDGE_CURVE('',#405,#403,#29,.T.);
#324=EDGE_CURVE('',#406,#407,#30,.T.);
#325=EDGE_CURVE('',#407,#408,#31,.F.);
#326=EDGE_CURVE('',#409,#408,#32,.F.);
#327=EDGE_CURVE('',#409,#406,#33,.T.);
#328=EDGE_CURVE('',#410,#411,#34,.F.);
#329=EDGE_CURVE('',#410,#412,#35,.T.);
#330=EDGE_CURVE('',#412,#413,#36,.T.);
#331=EDGE_CURVE('',#413,#411,#37,.F.);
#332=EDGE_CURVE('',#414,#415,#38,.T.);
#333=EDGE_CURVE('',#414,#416,#39,.T.);
#334=EDGE_CURVE('',#416,#417,#40,.T.);
#335=EDGE_CURVE('',#417,#415,#41,.F.);
#336=EDGE_CURVE('',#418,#419,#42,.F.);
#337=EDGE_CURVE('',#419,#420,#458,.T.);
#338=EDGE_CURVE('',#420,#421,#43,.T.);
#339=EDGE_CURVE('',#421,#422,#459,.T.);
#340=EDGE_CURVE('',#422,#423,#44,.T.);
#341=EDGE_CURVE('',#423,#424,#460,.T.);
#342=EDGE_CURVE('',#424,#425,#45,.T.);
#343=EDGE_CURVE('',#425,#418,#461,.T.);
#344=EDGE_CURVE('',#426,#427,#46,.T.);
#345=EDGE_CURVE('',#427,#428,#47,.T.);
#346=EDGE_CURVE('',#428,#429,#48,.T.);
#347=EDGE_CURVE('',#429,#426,#49,.F.);
#348=EDGE_CURVE('',#391,#404,#50,.T.);
#349=EDGE_CURVE('',#393,#405,#51,.T.);
#350=EDGE_CURVE('',#412,#407,#462,.F.);
#351=EDGE_CURVE('',#406,#429,#463,.F.);
#352=EDGE_CURVE('',#428,#417,#464,.F.);
#353=EDGE_CURVE('',#416,#413,#465,.F.);
#354=EDGE_CURVE('',#420,#395,#52,.T.);
#355=EDGE_CURVE('',#419,#394,#53,.T.);
#356=EDGE_CURVE('',#421,#401,#54,.T.);
#357=EDGE_CURVE('',#422,#400,#55,.T.);
#358=EDGE_CURVE('',#423,#399,#56,.T.);
#359=EDGE_CURVE('',#424,#398,#57,.T.);
#360=EDGE_CURVE('',#425,#397,#58,.T.);
#361=EDGE_CURVE('',#418,#396,#59,.T.);
#362=EDGE_CURVE('',#430,#430,#466,.T.);
#363=EDGE_CURVE('',#431,#431,#467,.T.);
#364=EDGE_CURVE('',#432,#432,#468,.T.);
#365=EDGE_CURVE('',#433,#433,#469,.F.);
#366=EDGE_CURVE('',#434,#434,#470,.T.);
#367=EDGE_CURVE('',#435,#435,#471,.T.);
#368=EDGE_CURVE('',#436,#436,#472,.T.);
#369=EDGE_CURVE('',#437,#437,#473,.F.);
#370=EDGE_CURVE('',#438,#438,#474,.F.);
#371=EDGE_CURVE('',#439,#439,#475,.T.);
#372=EDGE_CURVE('',#440,#440,#476,.T.);
#373=EDGE_CURVE('',#441,#441,#477,.T.);
#374=EDGE_CURVE('',#442,#442,#478,.T.);
#375=EDGE_CURVE('',#408,#410,#479,.T.);
#376=EDGE_CURVE('',#411,#414,#480,.T.);
#377=EDGE_CURVE('',#415,#427,#481,.T.);
#378=EDGE_CURVE('',#426,#409,#482,.T.);
#379=EDGE_CURVE('',#443,#443,#483,.T.);
#380=EDGE_CURVE('',#444,#444,#484,.T.);
#381=EDGE_CURVE('',#445,#445,#485,.T.);
#382=EDGE_CURVE('',#446,#446,#486,.T.);
#383=EDGE_CURVE('',#447,#447,#487,.T.);
#384=EDGE_CURVE('',#448,#448,#488,.T.);
#385=EDGE_CURVE('',#449,#449,#489,.T.);
#386=EDGE_CURVE('',#450,#450,#490,.T.);
#387=VERTEX_POINT('',#1049);
#388=VERTEX_POINT('',#1051);
#389=VERTEX_POINT('',#1055);
#390=VERTEX_POINT('',#1058);
#391=VERTEX_POINT('',#1059);
#392=VERTEX_POINT('',#1061);
#393=VERTEX_POINT('',#1063);
#394=VERTEX_POINT('',#1067);
#395=VERTEX_POINT('',#1068);
#396=VERTEX_POINT('',#1070);
#397=VERTEX_POINT('',#1072);
#398=VERTEX_POINT('',#1074);
#399=VERTEX_POINT('',#1076);
#400=VERTEX_POINT('',#1078);
#401=VERTEX_POINT('',#1080);
#402=VERTEX_POINT('',#1083);
#403=VERTEX_POINT('',#1085);
#404=VERTEX_POINT('',#1089);
#405=VERTEX_POINT('',#1091);
#406=VERTEX_POINT('',#1095);
#407=VERTEX_POINT('',#1096);
#408=VERTEX_POINT('',#1098);
#409=VERTEX_POINT('',#1100);
#410=VERTEX_POINT('',#1104);
#411=VERTEX_POINT('',#1105);
#412=VERTEX_POINT('',#1107);
#413=VERTEX_POINT('',#1109);
#414=VERTEX_POINT('',#1113);
#415=VERTEX_POINT('',#1114);
#416=VERTEX_POINT('',#1116);
#417=VERTEX_POINT('',#1118);
#418=VERTEX_POINT('',#1122);
#419=VERTEX_POINT('',#1123);
#420=VERTEX_POINT('',#1125);
#421=VERTEX_POINT('',#1127);
#422=VERTEX_POINT('',#1129);
#423=VERTEX_POINT('',#1131);
#424=VERTEX_POINT('',#1133);
#425=VERTEX_POINT('',#1135);
#426=VERTEX_POINT('',#1138);
#427=VERTEX_POINT('',#1139);
#428=VERTEX_POINT('',#1141);
#429=VERTEX_POINT('',#1143);
#430=VERTEX_POINT('',#1171);
#431=VERTEX_POINT('',#1173);
#432=VERTEX_POINT('',#1177);
#433=VERTEX_POINT('',#1180);
#434=VERTEX_POINT('',#1183);
#435=VERTEX_POINT('',#1185);
#436=VERTEX_POINT('',#1189);
#437=VERTEX_POINT('',#1192);
#438=VERTEX_POINT('',#1195);
#439=VERTEX_POINT('',#1198);
#440=VERTEX_POINT('',#1200);
#441=VERTEX_POINT('',#1204);
#442=VERTEX_POINT('',#1207);
#443=VERTEX_POINT('',#1220);
#444=VERTEX_POINT('',#1223);
#445=VERTEX_POINT('',#1227);
#446=VERTEX_POINT('',#1230);
#447=VERTEX_POINT('',#1234);
#448=VERTEX_POINT('',#1237);
#449=VERTEX_POINT('',#1241);
#450=VERTEX_POINT('',#1243);
#451=CIRCLE('',#728,0.0014);
#452=CIRCLE('',#729,0.0014);
#453=CIRCLE('',#732,0.0023);
#454=CIRCLE('',#735,0.00209261922966105);
#455=CIRCLE('',#736,0.00206689023212545);
#456=CIRCLE('',#737,0.0020755011010327);
#457=CIRCLE('',#738,0.00207795027719788);
#458=CIRCLE('',#744,0.00209261922966105);
#459=CIRCLE('',#745,0.00207795027719788);
#460=CIRCLE('',#746,0.0020755011010327);
#461=CIRCLE('',#747,0.00206689023212545);
#462=CIRCLE('',#750,0.003);
#463=CIRCLE('',#751,0.003);
#464=CIRCLE('',#752,0.003);
#465=CIRCLE('',#753,0.003);
#466=CIRCLE('',#763,0.0014);
#467=CIRCLE('',#764,0.0014);
#468=CIRCLE('',#767,0.0023);
#469=CIRCLE('',#769,0.0023);
#470=CIRCLE('',#771,0.0014);
#471=CIRCLE('',#772,0.0014);
#472=CIRCLE('',#775,0.0023);
#473=CIRCLE('',#777,0.0023);
#474=CIRCLE('',#779,0.0023);
#475=CIRCLE('',#781,0.0014);
#476=CIRCLE('',#782,0.0014);
#477=CIRCLE('',#785,0.0023);
#478=CIRCLE('',#787,0.0023);
#479=CIRCLE('',#790,0.003);
#480=CIRCLE('',#791,0.003);
#481=CIRCLE('',#792,0.003);
#482=CIRCLE('',#793,0.003);
#483=CIRCLE('',#799,1.000000000001E-6);
#484=CIRCLE('',#801,1.000000000001E-6);
#485=CIRCLE('',#804,1.000000000001E-6);
#486=CIRCLE('',#806,1.000000000001E-6);
#487=CIRCLE('',#809,9.9999999999406E-7);
#488=CIRCLE('',#811,9.9999999999406E-7);
#489=CIRCLE('',#814,9.9999999999406E-7);
#490=CIRCLE('',#815,9.9999999999406E-7);
#491=EDGE_LOOP('',(#135));
#492=EDGE_LOOP('',(#136));
#493=EDGE_LOOP('',(#137));
#494=EDGE_LOOP('',(#138));
#495=EDGE_LOOP('',(#139));
#496=EDGE_LOOP('',(#140,#141,#142,#143));
#497=EDGE_LOOP('',(#144,#145,#146,#147,#148,#149,#150,#151));
#498=EDGE_LOOP('',(#152,#153,#154,#155));
#499=EDGE_LOOP('',(#156,#157,#158,#159));
#500=EDGE_LOOP('',(#160,#161,#162,#163));
#501=EDGE_LOOP('',(#164,#165,#166,#167));
#502=EDGE_LOOP('',(#168,#169,#170,#171));
#503=EDGE_LOOP('',(#172,#173,#174,#175,#176,#177,#178,#179));
#504=EDGE_LOOP('',(#180,#181,#182,#183));
#505=EDGE_LOOP('',(#184,#185,#186,#187));
#506=EDGE_LOOP('',(#188,#189,#190,#191,#192,#193,#194,#195));
#507=EDGE_LOOP('',(#196,#197,#198,#199));
#508=EDGE_LOOP('',(#200,#201,#202,#203));
#509=EDGE_LOOP('',(#204,#205,#206,#207));
#510=EDGE_LOOP('',(#208,#209,#210,#211));
#511=EDGE_LOOP('',(#212,#213,#214,#215));
#512=EDGE_LOOP('',(#216,#217,#218,#219));
#513=EDGE_LOOP('',(#220,#221,#222,#223));
#514=EDGE_LOOP('',(#224,#225,#226,#227));
#515=EDGE_LOOP('',(#228,#229,#230,#231));
#516=EDGE_LOOP('',(#232));
#517=EDGE_LOOP('',(#233));
#518=EDGE_LOOP('',(#234));
#519=EDGE_LOOP('',(#235));
#520=EDGE_LOOP('',(#236));
#521=EDGE_LOOP('',(#237));
#522=EDGE_LOOP('',(#238));
#523=EDGE_LOOP('',(#239));
#524=EDGE_LOOP('',(#240));
#525=EDGE_LOOP('',(#241));
#526=EDGE_LOOP('',(#242));
#527=EDGE_LOOP('',(#243));
#528=EDGE_LOOP('',(#244));
#529=EDGE_LOOP('',(#245));
#530=EDGE_LOOP('',(#246));
#531=EDGE_LOOP('',(#247));
#532=EDGE_LOOP('',(#248));
#533=EDGE_LOOP('',(#249));
#534=EDGE_LOOP('',(#250));
#535=EDGE_LOOP('',(#251));
#536=EDGE_LOOP('',(#252));
#537=EDGE_LOOP('',(#253));
#538=EDGE_LOOP('',(#254));
#539=EDGE_LOOP('',(#255,#256,#257,#258));
#540=EDGE_LOOP('',(#259));
#541=EDGE_LOOP('',(#260));
#542=EDGE_LOOP('',(#261));
#543=EDGE_LOOP('',(#262));
#544=EDGE_LOOP('',(#263,#264,#265,#266,#267,#268,#269,#270));
#545=EDGE_LOOP('',(#271,#272,#273,#274));
#546=EDGE_LOOP('',(#275,#276,#277,#278));
#547=EDGE_LOOP('',(#279,#280,#281,#282));
#548=EDGE_LOOP('',(#283,#284,#285,#286));
#549=EDGE_LOOP('',(#287));
#550=EDGE_LOOP('',(#288));
#551=EDGE_LOOP('',(#289));
#552=EDGE_LOOP('',(#290));
#553=EDGE_LOOP('',(#291));
#554=EDGE_LOOP('',(#292));
#555=EDGE_LOOP('',(#293));
#556=EDGE_LOOP('',(#294));
#557=EDGE_LOOP('',(#295));
#558=EDGE_LOOP('',(#296));
#559=EDGE_LOOP('',(#297));
#560=EDGE_LOOP('',(#298));
#561=EDGE_LOOP('',(#299));
#562=EDGE_LOOP('',(#300));
#563=EDGE_LOOP('',(#301));
#564=EDGE_LOOP('',(#302));
#565=FACE_BOUND('',#491,.T.);
#566=FACE_BOUND('',#492,.T.);
#567=FACE_BOUND('',#493,.T.);
#568=FACE_BOUND('',#494,.T.);
#569=FACE_BOUND('',#495,.T.);
#570=FACE_BOUND('',#496,.T.);
#571=FACE_BOUND('',#497,.T.);
#572=FACE_BOUND('',#498,.T.);
#573=FACE_BOUND('',#499,.T.);
#574=FACE_BOUND('',#500,.T.);
#575=FACE_BOUND('',#501,.T.);
#576=FACE_BOUND('',#502,.T.);
#577=FACE_BOUND('',#503,.T.);
#578=FACE_BOUND('',#504,.T.);
#579=FACE_BOUND('',#505,.T.);
#580=FACE_BOUND('',#506,.T.);
#581=FACE_BOUND('',#507,.T.);
#582=FACE_BOUND('',#508,.T.);
#583=FACE_BOUND('',#509,.T.);
#584=FACE_BOUND('',#510,.T.);
#585=FACE_BOUND('',#511,.T.);
#586=FACE_BOUND('',#512,.T.);
#587=FACE_BOUND('',#513,.T.);
#588=FACE_BOUND('',#514,.T.);
#589=FACE_BOUND('',#515,.T.);
#590=FACE_BOUND('',#516,.T.);
#591=FACE_BOUND('',#517,.T.);
#592=FACE_BOUND('',#518,.T.);
#593=FACE_BOUND('',#519,.T.);
#594=FACE_BOUND('',#520,.T.);
#595=FACE_BOUND('',#521,.T.);
#596=FACE_BOUND('',#522,.T.);
#597=FACE_BOUND('',#523,.T.);
#598=FACE_BOUND('',#524,.T.);
#599=FACE_BOUND('',#525,.T.);
#600=FACE_BOUND('',#526,.T.);
#601=FACE_BOUND('',#527,.T.);
#602=FACE_BOUND('',#528,.T.);
#603=FACE_BOUND('',#529,.T.);
#604=FACE_BOUND('',#530,.T.);
#605=FACE_BOUND('',#531,.T.);
#606=FACE_BOUND('',#532,.T.);
#607=FACE_BOUND('',#533,.T.);
#608=FACE_BOUND('',#534,.T.);
#609=FACE_BOUND('',#535,.T.);
#610=FACE_BOUND('',#536,.T.);
#611=FACE_BOUND('',#537,.T.);
#612=FACE_BOUND('',#538,.T.);
#613=FACE_BOUND('',#539,.T.);
#614=FACE_BOUND('',#540,.T.);
#615=FACE_BOUND('',#541,.T.);
#616=FACE_BOUND('',#542,.T.);
#617=FACE_BOUND('',#543,.T.);
#618=FACE_BOUND('',#544,.T.);
#619=FACE_BOUND('',#545,.T.);
#620=FACE_BOUND('',#546,.T.);
#621=FACE_BOUND('',#547,.T.);
#622=FACE_BOUND('',#548,.T.);
#623=FACE_BOUND('',#549,.T.);
#624=FACE_BOUND('',#550,.T.);
#625=FACE_BOUND('',#551,.T.);
#626=FACE_BOUND('',#552,.T.);
#627=FACE_BOUND('',#553,.T.);
#628=FACE_BOUND('',#554,.T.);
#629=FACE_BOUND('',#555,.T.);
#630=FACE_BOUND('',#556,.T.);
#631=FACE_BOUND('',#557,.T.);
#632=FACE_BOUND('',#558,.T.);
#633=FACE_BOUND('',#559,.T.);
#634=FACE_BOUND('',#560,.T.);
#635=FACE_BOUND('',#561,.T.);
#636=FACE_BOUND('',#562,.T.);
#637=FACE_BOUND('',#563,.T.);
#638=FACE_BOUND('',#564,.T.);
#639=CYLINDRICAL_SURFACE('',#727,0.0014);
#640=CYLINDRICAL_SURFACE('',#754,0.00209261922966105);
#641=CYLINDRICAL_SURFACE('',#756,0.00207795027719788);
#642=CYLINDRICAL_SURFACE('',#758,0.0020755011010327);
#643=CYLINDRICAL_SURFACE('',#760,0.00206689023212545);
#644=CYLINDRICAL_SURFACE('',#762,0.0014);
#645=CYLINDRICAL_SURFACE('',#768,0.0023);
#646=CYLINDRICAL_SURFACE('',#770,0.0014);
#647=CYLINDRICAL_SURFACE('',#776,0.0023);
#648=CYLINDRICAL_SURFACE('',#778,0.0023);
#649=CYLINDRICAL_SURFACE('',#780,0.0014);
#650=CYLINDRICAL_SURFACE('',#786,0.0023);
#651=CYLINDRICAL_SURFACE('',#794,0.003);
#652=CYLINDRICAL_SURFACE('',#795,0.003);
#653=CYLINDRICAL_SURFACE('',#796,0.003);
#654=CYLINDRICAL_SURFACE('',#797,0.003);
#655=CYLINDRICAL_SURFACE('',#802,1.000000000001E-6);
#656=CYLINDRICAL_SURFACE('',#805,1.000000000001E-6);
#657=CYLINDRICAL_SURFACE('',#810,9.9999999999406E-7);
#658=CYLINDRICAL_SURFACE('',#813,9.9999999999406E-7);
#659=ADVANCED_FACE('',(#565,#566),#639,.T.);
#660=ADVANCED_FACE('',(#567),#104,.F.);
#661=ADVANCED_FACE('',(#568,#569),#105,.F.);
#662=ADVANCED_FACE('',(#570),#106,.T.);
#663=ADVANCED_FACE('',(#571,#572),#107,.T.);
#664=ADVANCED_FACE('',(#573),#108,.T.);
#665=ADVANCED_FACE('',(#574),#109,.F.);
#666=ADVANCED_FACE('',(#575),#110,.F.);
#667=ADVANCED_FACE('',(#576),#111,.F.);
#668=ADVANCED_FACE('',(#577,#578),#112,.F.);
#669=ADVANCED_FACE('',(#579),#113,.T.);
#670=ADVANCED_FACE('',(#580,#581),#114,.F.);
#671=ADVANCED_FACE('',(#582),#640,.F.);
#672=ADVANCED_FACE('',(#583),#115,.F.);
#673=ADVANCED_FACE('',(#584),#641,.F.);
#674=ADVANCED_FACE('',(#585),#116,.F.);
#675=ADVANCED_FACE('',(#586),#642,.F.);
#676=ADVANCED_FACE('',(#587),#117,.F.);
#677=ADVANCED_FACE('',(#588),#643,.F.);
#678=ADVANCED_FACE('',(#589),#118,.F.);
#679=ADVANCED_FACE('',(#590,#591),#644,.T.);
#680=ADVANCED_FACE('',(#592),#119,.F.);
#681=ADVANCED_FACE('',(#593,#594),#120,.F.);
#682=ADVANCED_FACE('',(#595,#596),#645,.T.);
#683=ADVANCED_FACE('',(#597,#598),#646,.T.);
#684=ADVANCED_FACE('',(#599),#121,.F.);
#685=ADVANCED_FACE('',(#600,#601),#122,.F.);
#686=ADVANCED_FACE('',(#602,#603),#647,.T.);
#687=ADVANCED_FACE('',(#604,#605),#648,.T.);
#688=ADVANCED_FACE('',(#606,#607),#649,.T.);
#689=ADVANCED_FACE('',(#608),#123,.F.);
#690=ADVANCED_FACE('',(#609,#610),#124,.F.);
#691=ADVANCED_FACE('',(#611,#612),#650,.T.);
#692=ADVANCED_FACE('',(#613,#614,#615,#616,#617),#125,.F.);
#693=ADVANCED_FACE('',(#618),#126,.T.);
#694=ADVANCED_FACE('',(#619),#651,.T.);
#695=ADVANCED_FACE('',(#620),#652,.T.);
#696=ADVANCED_FACE('',(#621),#653,.T.);
#697=ADVANCED_FACE('',(#622),#654,.T.);
#698=ADVANCED_FACE('',(#623),#127,.T.);
#699=ADVANCED_FACE('',(#624),#128,.F.);
#700=ADVANCED_FACE('',(#625,#626),#655,.F.);
#701=ADVANCED_FACE('',(#627),#129,.F.);
#702=ADVANCED_FACE('',(#628,#629),#656,.F.);
#703=ADVANCED_FACE('',(#630),#130,.T.);
#704=ADVANCED_FACE('',(#631),#131,.F.);
#705=ADVANCED_FACE('',(#632,#633),#657,.F.);
#706=ADVANCED_FACE('',(#634),#132,.T.);
#707=ADVANCED_FACE('',(#635,#636),#658,.F.);
#708=ADVANCED_FACE('',(#637),#133,.T.);
#709=ADVANCED_FACE('',(#638),#134,.F.);
#710=CLOSED_SHELL('',(#659,#660,#661,#662,#663,#664,#665,#666,#667,#668,
#669,#670,#671,#672,#673,#674,#675,#676,#677,#678,#679,#680,#681,#682,#683,
#684,#685,#686,#687,#688,#689,#690,#691,#692,#693,#694,#695,#696,#697));
#711=CLOSED_SHELL('',(#698,#699,#700));
#712=CLOSED_SHELL('',(#701,#702,#703));
#713=CLOSED_SHELL('',(#704,#705,#706));
#714=CLOSED_SHELL('',(#707,#708,#709));
#715=STYLED_ITEM('',(#716),#723);
#716=PRESENTATION_STYLE_ASSIGNMENT((#717));
#717=SURFACE_STYLE_USAGE(.BOTH.,#718);
#718=SURFACE_SIDE_STYLE('',(#719));
#719=SURFACE_STYLE_FILL_AREA(#720);
#720=FILL_AREA_STYLE('',(#721));
#721=FILL_AREA_STYLE_COLOUR('',#722);
#722=COLOUR_RGB('',0.647058823529412,0.647058823529412,0.647058823529412);
#723=BREP_WITH_VOIDS('Part 1',#710,(#12,#13,#14,#15));
#724=SHAPE_DEFINITION_REPRESENTATION(#1252,#725);
#725=SHAPE_REPRESENTATION('Part 1',(#726),#1247);
#726=AXIS2_PLACEMENT_3D('',#1046,#818,#819);
#727=AXIS2_PLACEMENT_3D('',#1047,#820,#821);
#728=AXIS2_PLACEMENT_3D('',#1048,#822,#823);
#729=AXIS2_PLACEMENT_3D('',#1050,#824,#825);
#730=AXIS2_PLACEMENT_3D('',#1052,#826,#827);
#731=AXIS2_PLACEMENT_3D('',#1053,#828,#829);
#732=AXIS2_PLACEMENT_3D('',#1054,#830,#831);
#733=AXIS2_PLACEMENT_3D('',#1056,#832,#833);
#734=AXIS2_PLACEMENT_3D('',#1065,#838,#839);
#735=AXIS2_PLACEMENT_3D('',#1066,#840,#841);
#736=AXIS2_PLACEMENT_3D('',#1071,#843,#844);
#737=AXIS2_PLACEMENT_3D('',#1075,#846,#847);
#738=AXIS2_PLACEMENT_3D('',#1079,#849,#850);
#739=AXIS2_PLACEMENT_3D('',#1087,#855,#856);
#740=AXIS2_PLACEMENT_3D('',#1093,#860,#861);
#741=AXIS2_PLACEMENT_3D('',#1102,#866,#867);
#742=AXIS2_PLACEMENT_3D('',#1111,#872,#873);
#743=AXIS2_PLACEMENT_3D('',#1120,#878,#879);
#744=AXIS2_PLACEMENT_3D('',#1124,#881,#882);
#745=AXIS2_PLACEMENT_3D('',#1128,#884,#885);
#746=AXIS2_PLACEMENT_3D('',#1132,#887,#888);
#747=AXIS2_PLACEMENT_3D('',#1136,#890,#891);
#748=AXIS2_PLACEMENT_3D('',#1145,#896,#897);
#749=AXIS2_PLACEMENT_3D('',#1148,#900,#901);
#750=AXIS2_PLACEMENT_3D('',#1149,#902,#903);
#751=AXIS2_PLACEMENT_3D('',#1150,#904,#905);
#752=AXIS2_PLACEMENT_3D('',#1151,#906,#907);
#753=AXIS2_PLACEMENT_3D('',#1152,#908,#909);
#754=AXIS2_PLACEMENT_3D('',#1153,#910,#911);
#755=AXIS2_PLACEMENT_3D('',#1156,#914,#915);
#756=AXIS2_PLACEMENT_3D('',#1158,#917,#918);
#757=AXIS2_PLACEMENT_3D('',#1160,#920,#921);
#758=AXIS2_PLACEMENT_3D('',#1162,#923,#924);
#759=AXIS2_PLACEMENT_3D('',#1164,#926,#927);
#760=AXIS2_PLACEMENT_3D('',#1166,#929,#930);
#761=AXIS2_PLACEMENT_3D('',#1168,#932,#933);
#762=AXIS2_PLACEMENT_3D('',#1169,#934,#935);
#763=AXIS2_PLACEMENT_3D('',#1170,#936,#937);
#764=AXIS2_PLACEMENT_3D('',#1172,#938,#939);
#765=AXIS2_PLACEMENT_3D('',#1174,#940,#941);
#766=AXIS2_PLACEMENT_3D('',#1175,#942,#943);
#767=AXIS2_PLACEMENT_3D('',#1176,#944,#945);
#768=AXIS2_PLACEMENT_3D('',#1178,#946,#947);
#769=AXIS2_PLACEMENT_3D('',#1179,#948,#949);
#770=AXIS2_PLACEMENT_3D('',#1181,#950,#951);
#771=AXIS2_PLACEMENT_3D('',#1182,#952,#953);
#772=AXIS2_PLACEMENT_3D('',#1184,#954,#955);
#773=AXIS2_PLACEMENT_3D('',#1186,#956,#957);
#774=AXIS2_PLACEMENT_3D('',#1187,#958,#959);
#775=AXIS2_PLACEMENT_3D('',#1188,#960,#961);
#776=AXIS2_PLACEMENT_3D('',#1190,#962,#963);
#777=AXIS2_PLACEMENT_3D('',#1191,#964,#965);
#778=AXIS2_PLACEMENT_3D('',#1193,#966,#967);
#779=AXIS2_PLACEMENT_3D('',#1194,#968,#969);
#780=AXIS2_PLACEMENT_3D('',#1196,#970,#971);
#781=AXIS2_PLACEMENT_3D('',#1197,#972,#973);
#782=AXIS2_PLACEMENT_3D('',#1199,#974,#975);
#783=AXIS2_PLACEMENT_3D('',#1201,#976,#977);
#784=AXIS2_PLACEMENT_3D('',#1202,#978,#979);
#785=AXIS2_PLACEMENT_3D('',#1203,#980,#981);
#786=AXIS2_PLACEMENT_3D('',#1205,#982,#983);
#787=AXIS2_PLACEMENT_3D('',#1206,#984,#985);
#788=AXIS2_PLACEMENT_3D('',#1208,#986,#987);
#789=AXIS2_PLACEMENT_3D('',#1209,#988,#989);
#790=AXIS2_PLACEMENT_3D('',#1210,#990,#991);
#791=AXIS2_PLACEMENT_3D('',#1211,#992,#993);
#792=AXIS2_PLACEMENT_3D('',#1212,#994,#995);
#793=AXIS2_PLACEMENT_3D('',#1213,#996,#997);
#794=AXIS2_PLACEMENT_3D('',#1214,#998,#999);
#795=AXIS2_PLACEMENT_3D('',#1215,#1000,#1001);
#796=AXIS2_PLACEMENT_3D('',#1216,#1002,#1003);
#797=AXIS2_PLACEMENT_3D('',#1217,#1004,#1005);
#798=AXIS2_PLACEMENT_3D('',#1218,#1006,#1007);
#799=AXIS2_PLACEMENT_3D('',#1219,#1008,#1009);
#800=AXIS2_PLACEMENT_3D('',#1221,#1010,#1011);
#801=AXIS2_PLACEMENT_3D('',#1222,#1012,#1013);
#802=AXIS2_PLACEMENT_3D('',#1224,#1014,#1015);
#803=AXIS2_PLACEMENT_3D('',#1225,#1016,#1017);
#804=AXIS2_PLACEMENT_3D('',#1226,#1018,#1019);
#805=AXIS2_PLACEMENT_3D('',#1228,#1020,#1021);
#806=AXIS2_PLACEMENT_3D('',#1229,#1022,#1023);
#807=AXIS2_PLACEMENT_3D('',#1231,#1024,#1025);
#808=AXIS2_PLACEMENT_3D('',#1232,#1026,#1027);
#809=AXIS2_PLACEMENT_3D('',#1233,#1028,#1029);
#810=AXIS2_PLACEMENT_3D('',#1235,#1030,#1031);
#811=AXIS2_PLACEMENT_3D('',#1236,#1032,#1033);
#812=AXIS2_PLACEMENT_3D('',#1238,#1034,#1035);
#813=AXIS2_PLACEMENT_3D('',#1239,#1036,#1037);
#814=AXIS2_PLACEMENT_3D('',#1240,#1038,#1039);
#815=AXIS2_PLACEMENT_3D('',#1242,#1040,#1041);
#816=AXIS2_PLACEMENT_3D('',#1244,#1042,#1043);
#817=AXIS2_PLACEMENT_3D('',#1245,#1044,#1045);
#818=DIRECTION('',(0.,0.,1.));
#819=DIRECTION('',(1.,0.,0.));
#820=DIRECTION('',(0.,0.,-1.));
#821=DIRECTION('',(-1.,0.,0.));
#822=DIRECTION('',(0.,0.,-1.));
#823=DIRECTION('',(-1.,0.,0.));
#824=DIRECTION('',(0.,0.,-1.));
#825=DIRECTION('',(-1.,0.,0.));
#826=DIRECTION('',(0.,0.,-1.));
#827=DIRECTION('',(1.,0.,0.));
#828=DIRECTION('',(0.,0.,-1.));
#829=DIRECTION('',(-1.,0.,0.));
#830=DIRECTION('',(0.,0.,-1.));
#831=DIRECTION('',(-1.,0.,0.));
#832=DIRECTION('',(0.,1.,0.));
#833=DIRECTION('',(0.,0.,1.));
#834=DIRECTION('',(-1.,0.,0.));
#835=DIRECTION('',(0.,0.,1.));
#836=DIRECTION('',(-1.,0.,0.));
#837=DIRECTION('',(0.,0.,1.));
#838=DIRECTION('',(-1.,0.,0.));
#839=DIRECTION('',(0.,0.,1.));
#840=DIRECTION('',(-1.,0.,0.));
#841=DIRECTION('',(0.,-1.,0.));
#842=DIRECTION('',(0.,0.,-1.));
#843=DIRECTION('',(-1.,0.,0.));
#844=DIRECTION('',(0.,0.,-1.));
#845=DIRECTION('',(0.,-1.,0.));
#846=DIRECTION('',(-1.,0.,0.));
#847=DIRECTION('',(0.,0.999863897937836,0.016498048386301));
#848=DIRECTION('',(0.,0.,-1.));
#849=DIRECTION('',(-1.,0.,0.));
#850=DIRECTION('',(0.,1.3574264249001E-15,1.));
#851=DIRECTION('',(0.,1.,0.));
#852=DIRECTION('',(0.,-1.,0.));
#853=DIRECTION('',(0.,0.,1.));
#854=DIRECTION('',(0.,-1.,0.));
#855=DIRECTION('',(0.,-1.,0.));
#856=DIRECTION('',(0.,0.,-1.));
#857=DIRECTION('',(1.,0.,0.));
#858=DIRECTION('',(0.,0.,1.));
#859=DIRECTION('',(1.,0.,0.));
#860=DIRECTION('',(0.,1.,0.));
#861=DIRECTION('',(0.,0.,1.));
#862=DIRECTION('',(-1.,0.,0.));
#863=DIRECTION('',(0.,0.,1.));
#864=DIRECTION('',(1.,0.,0.));
#865=DIRECTION('',(0.,0.,1.));
#866=DIRECTION('',(1.,0.,0.));
#867=DIRECTION('',(0.,0.,-1.));
#868=DIRECTION('',(0.,-1.,0.));
#869=DIRECTION('',(0.,0.,1.));
#870=DIRECTION('',(0.,1.,0.));
#871=DIRECTION('',(0.,0.,1.));
#872=DIRECTION('',(0.,-1.,0.));
#873=DIRECTION('',(0.,0.,-1.));
#874=DIRECTION('',(1.,0.,0.));
#875=DIRECTION('',(0.,0.,1.));
#876=DIRECTION('',(1.,0.,0.));
#877=DIRECTION('',(0.,0.,1.));
#878=DIRECTION('',(-1.,0.,0.));
#879=DIRECTION('',(0.,0.,1.));
#880=DIRECTION('',(0.,0.,-1.));
#881=DIRECTION('',(-1.,0.,0.));
#882=DIRECTION('',(0.,-1.,0.));
#883=DIRECTION('',(0.,1.,0.));
#884=DIRECTION('',(-1.,0.,0.));
#885=DIRECTION('',(0.,1.3574264249001E-15,1.));
#886=DIRECTION('',(0.,0.,-1.));
#887=DIRECTION('',(-1.,0.,0.));
#888=DIRECTION('',(0.,0.999863897937836,0.016498048386301));
#889=DIRECTION('',(0.,-1.,0.));
#890=DIRECTION('',(-1.,0.,0.));
#891=DIRECTION('',(0.,0.,-1.));
#892=DIRECTION('',(0.,1.,0.));
#893=DIRECTION('',(0.,0.,1.));
#894=DIRECTION('',(0.,-1.,0.));
#895=DIRECTION('',(0.,0.,1.));
#896=DIRECTION('',(1.,0.,0.));
#897=DIRECTION('',(0.,0.,-1.));
#898=DIRECTION('',(0.,1.,0.));
#899=DIRECTION('',(0.,1.,0.));
#900=DIRECTION('',(0.,0.,-1.));
#901=DIRECTION('',(-1.,0.,0.));
#902=DIRECTION('',(0.,0.,-1.));
#903=DIRECTION('',(-1.,0.,0.));
#904=DIRECTION('',(0.,0.,-1.));
#905=DIRECTION('',(-1.,0.,0.));
#906=DIRECTION('',(0.,0.,-1.));
#907=DIRECTION('',(-1.,0.,0.));
#908=DIRECTION('',(0.,0.,-1.));
#909=DIRECTION('',(-1.,0.,0.));
#910=DIRECTION('',(-1.,0.,0.));
#911=DIRECTION('',(0.,0.,1.));
#912=DIRECTION('',(-1.,0.,0.));
#913=DIRECTION('',(-1.,0.,0.));
#914=DIRECTION('',(0.,0.,1.));
#915=DIRECTION('',(1.,0.,0.));
#916=DIRECTION('',(-1.,0.,0.));
#917=DIRECTION('',(-1.,0.,0.));
#918=DIRECTION('',(0.,0.,1.));
#919=DIRECTION('',(-1.,0.,0.));
#920=DIRECTION('',(0.,1.,0.));
#921=DIRECTION('',(0.,0.,1.));
#922=DIRECTION('',(-1.,0.,0.));
#923=DIRECTION('',(-1.,0.,0.));
#924=DIRECTION('',(0.,0.,1.));
#925=DIRECTION('',(-1.,0.,0.));
#926=DIRECTION('',(0.,0.,-1.));
#927=DIRECTION('',(-1.,0.,0.));
#928=DIRECTION('',(-1.,0.,0.));
#929=DIRECTION('',(-1.,0.,0.));
#930=DIRECTION('',(0.,0.,1.));
#931=DIRECTION('',(-1.,0.,0.));
#932=DIRECTION('',(0.,-1.,0.));
#933=DIRECTION('',(0.,0.,-1.));
#934=DIRECTION('',(0.,0.,-1.));
#935=DIRECTION('',(-1.,0.,0.));
#936=DIRECTION('',(0.,0.,-1.));
#937=DIRECTION('',(-1.,0.,0.));
#938=DIRECTION('',(0.,0.,-1.));
#939=DIRECTION('',(-1.,0.,0.));
#940=DIRECTION('',(0.,0.,-1.));
#941=DIRECTION('',(1.,0.,0.));
#942=DIRECTION('',(0.,0.,-1.));
#943=DIRECTION('',(-1.,0.,0.));
#944=DIRECTION('',(0.,0.,-1.));
#945=DIRECTION('',(-1.,0.,0.));
#946=DIRECTION('',(0.,0.,1.));
#947=DIRECTION('',(1.,0.,0.));
#948=DIRECTION('',(0.,0.,-1.));
#949=DIRECTION('',(-1.,0.,0.));
#950=DIRECTION('',(0.,0.,-1.));
#951=DIRECTION('',(-1.,0.,0.));
#952=DIRECTION('',(0.,0.,-1.));
#953=DIRECTION('',(-1.,0.,0.));
#954=DIRECTION('',(0.,0.,-1.));
#955=DIRECTION('',(-1.,0.,0.));
#956=DIRECTION('',(0.,0.,-1.));
#957=DIRECTION('',(1.,0.,0.));
#958=DIRECTION('',(0.,0.,-1.));
#959=DIRECTION('',(-1.,0.,0.));
#960=DIRECTION('',(0.,0.,-1.));
#961=DIRECTION('',(-1.,0.,0.));
#962=DIRECTION('',(0.,0.,1.));
#963=DIRECTION('',(1.,0.,0.));
#964=DIRECTION('',(0.,0.,-1.));
#965=DIRECTION('',(-1.,0.,0.));
#966=DIRECTION('',(0.,0.,1.));
#967=DIRECTION('',(1.,0.,0.));
#968=DIRECTION('',(0.,0.,-1.));
#969=DIRECTION('',(-1.,0.,0.));
#970=DIRECTION('',(0.,0.,-1.));
#971=DIRECTION('',(-1.,0.,0.));
#972=DIRECTION('',(0.,0.,-1.));
#973=DIRECTION('',(-1.,0.,0.));
#974=DIRECTION('',(0.,0.,-1.));
#975=DIRECTION('',(-1.,0.,0.));
#976=DIRECTION('',(0.,0.,-1.));
#977=DIRECTION('',(1.,0.,0.));
#978=DIRECTION('',(0.,0.,-1.));
#979=DIRECTION('',(-1.,0.,0.));
#980=DIRECTION('',(0.,0.,-1.));
#981=DIRECTION('',(-1.,0.,0.));
#982=DIRECTION('',(0.,0.,1.));
#983=DIRECTION('',(1.,0.,0.));
#984=DIRECTION('',(0.,0.,-1.));
#985=DIRECTION('',(-1.,0.,0.));
#986=DIRECTION('',(0.,0.,-1.));
#987=DIRECTION('',(1.,0.,0.));
#988=DIRECTION('',(0.,0.,-1.));
#989=DIRECTION('',(1.,0.,0.));
#990=DIRECTION('',(0.,0.,-1.));
#991=DIRECTION('',(-1.,0.,0.));
#992=DIRECTION('',(0.,0.,-1.));
#993=DIRECTION('',(-1.,0.,0.));
#994=DIRECTION('',(0.,0.,-1.));
#995=DIRECTION('',(-1.,0.,0.));
#996=DIRECTION('',(0.,0.,-1.));
#997=DIRECTION('',(-1.,0.,0.));
#998=DIRECTION('',(0.,0.,1.));
#999=DIRECTION('',(1.,0.,0.));
#1000=DIRECTION('',(0.,0.,1.));
#1001=DIRECTION('',(1.,0.,0.));
#1002=DIRECTION('',(0.,0.,1.));
#1003=DIRECTION('',(1.,0.,0.));
#1004=DIRECTION('',(0.,0.,1.));
#1005=DIRECTION('',(1.,0.,0.));
#1006=DIRECTION('',(0.,0.,-1.));
#1007=DIRECTION('',(1.,0.,0.));
#1008=DIRECTION('',(0.,0.,-1.));
#1009=DIRECTION('',(-1.,0.,0.));
#1010=DIRECTION('',(0.,0.,-1.));
#1011=DIRECTION('',(1.,0.,0.));
#1012=DIRECTION('',(0.,0.,-1.));
#1013=DIRECTION('',(-1.,0.,0.));
#1014=DIRECTION('',(0.,0.,1.));
#1015=DIRECTION('',(1.,0.,0.));
#1016=DIRECTION('',(0.,0.,-1.));
#1017=DIRECTION('',(1.,0.,0.));
#1018=DIRECTION('',(0.,0.,-1.));
#1019=DIRECTION('',(-1.,0.,0.));
#1020=DIRECTION('',(0.,0.,1.));
#1021=DIRECTION('',(1.,0.,0.));
#1022=DIRECTION('',(0.,0.,-1.));
#1023=DIRECTION('',(-1.,0.,0.));
#1024=DIRECTION('',(0.,0.,-1.));
#1025=DIRECTION('',(1.,0.,0.));
#1026=DIRECTION('',(0.,0.,-1.));
#1027=DIRECTION('',(1.,0.,0.));
#1028=DIRECTION('',(0.,0.,-1.));
#1029=DIRECTION('',(-1.,0.,0.));
#1030=DIRECTION('',(0.,0.,1.));
#1031=DIRECTION('',(1.,0.,0.));
#1032=DIRECTION('',(0.,0.,-1.));
#1033=DIRECTION('',(-1.,0.,0.));
#1034=DIRECTION('',(0.,0.,-1.));
#1035=DIRECTION('',(1.,0.,0.));
#1036=DIRECTION('',(0.,0.,1.));
#1037=DIRECTION('',(1.,0.,0.));
#1038=DIRECTION('',(0.,0.,-1.));
#1039=DIRECTION('',(-1.,0.,0.));
#1040=DIRECTION('',(0.,0.,-1.));
#1041=DIRECTION('',(-1.,0.,0.));
#1042=DIRECTION('',(0.,0.,-1.));
#1043=DIRECTION('',(1.,0.,0.));
#1044=DIRECTION('',(0.,0.,-1.));
#1045=DIRECTION('',(1.,0.,0.));
#1046=CARTESIAN_POINT('',(0.,0.,0.));
#1047=CARTESIAN_POINT('',(0.0283994577303529,-0.0227074424437014,0.00856097200036049));
#1048=CARTESIAN_POINT('',(0.0283994577303529,-0.0227074424437014,0.00906097200036049));
#1049=CARTESIAN_POINT('',(0.0269994577303529,-0.0227074424437014,0.00906097200036049));
#1050=CARTESIAN_POINT('',(0.0283994577303529,-0.0227074424437014,0.00156097200036049));
#1051=CARTESIAN_POINT('',(0.0269994577303529,-0.0227074424437014,0.00156097200036049));
#1052=CARTESIAN_POINT('',(-0.00272554226964711,0.000192545056298559,0.00906097200036049));
#1053=CARTESIAN_POINT('',(0.0283994577303529,-0.0227074424437014,0.00156097200036049));
#1054=CARTESIAN_POINT('',(0.0283994577303529,-0.0227074424437014,0.00156097200036049));
#1055=CARTESIAN_POINT('',(0.0260994577303529,-0.0227074424437014,0.00156097200036049));
#1056=CARTESIAN_POINT('',(-0.140100542269647,-0.0279074424437014,-0.00593902799963951));
#1057=CARTESIAN_POINT('',(-0.140100542269647,-0.0279074424437014,0.00906097200036049));
#1058=CARTESIAN_POINT('',(0.0330994577303529,-0.0279074424437014,0.00906097200036049));
#1059=CARTESIAN_POINT('',(-0.0383005422696471,-0.0279074424437014,0.00906097200036049));
#1060=CARTESIAN_POINT('',(0.0330994577303529,-0.0279074424437014,-0.00593902799963951));
#1061=CARTESIAN_POINT('',(0.0330994577303529,-0.0279074424437014,-0.00593902799963951));
#1062=CARTESIAN_POINT('',(-0.140100542269647,-0.0279074424437014,-0.00593902799963951));
#1063=CARTESIAN_POINT('',(-0.0383005422696471,-0.0279074424437014,-0.00593902799963951));
#1064=CARTESIAN_POINT('',(-0.0383005422696471,-0.0279074424437014,-0.00593902799963951));
#1065=CARTESIAN_POINT('',(0.0330994577303529,0.0887925575562986,-0.00593902799963951));
#1066=CARTESIAN_POINT('',(0.0330994577303529,0.00264500759878283,0.00621242991382889));
#1067=CARTESIAN_POINT('',(0.0330994577303529,0.000552388369121788,0.00621242991382889));
#1068=CARTESIAN_POINT('',(0.0330994577303529,0.00260365970818285,0.00830464060883313));
#1069=CARTESIAN_POINT('',(0.0330994577303529,0.000552388369121788,0.00585644339597458));
#1070=CARTESIAN_POINT('',(0.0330994577303529,0.00055238836912179,0.00550940447736819));
#1071=CARTESIAN_POINT('',(0.0330994577303529,0.00261886771342731,0.00546819342042672));
#1072=CARTESIAN_POINT('',(0.0330994577303529,0.00261886771342731,0.00340130318830127));
#1073=CARTESIAN_POINT('',(0.0330994577303529,0.00583781844265848,0.00340130318830127));
#1074=CARTESIAN_POINT('',(0.0330994577303529,0.00905676917188965,0.00340130318830127));
#1075=CARTESIAN_POINT('',(0.0330994577303529,0.00905676917188965,0.00547680428933396));
#1076=CARTESIAN_POINT('',(0.0330994577303529,0.0111320966745922,0.005503647853075));
#1077=CARTESIAN_POINT('',(0.0330994577303529,0.0111320966745922,0.00585312210768235));
#1078=CARTESIAN_POINT('',(0.0330994577303529,0.0111320966745922,0.00620336294621274));
#1079=CARTESIAN_POINT('',(0.0330994577303529,0.00905427733990594,0.00622669033163526));
#1080=CARTESIAN_POINT('',(0.0330994577303529,0.00905427733990594,0.00830464060883313));
#1081=CARTESIAN_POINT('',(0.0330994577303529,0.0058333944494175,0.00830464060883313));
#1082=CARTESIAN_POINT('',(0.0330994577303529,0.0887925575562986,0.00906097200036049));
#1083=CARTESIAN_POINT('',(0.0330994577303529,0.0279925575562986,0.00906097200036049));
#1084=CARTESIAN_POINT('',(0.0330994577303529,0.0279925575562986,-0.00593902799963951));
#1085=CARTESIAN_POINT('',(0.0330994577303529,0.0279925575562986,-0.00593902799963951));
#1086=CARTESIAN_POINT('',(0.0330994577303529,0.0887925575562986,-0.00593902799963951));
#1087=CARTESIAN_POINT('',(-0.140100542269647,0.0279925575562986,-0.00593902799963951));
#1088=CARTESIAN_POINT('',(-0.140100542269647,0.0279925575562986,0.00906097200036049));
#1089=CARTESIAN_POINT('',(-0.0383005422696471,0.0279925575562986,0.00906097200036049));
#1090=CARTESIAN_POINT('',(-0.0383005422696471,0.0279925575562986,-0.00593902799963951));
#1091=CARTESIAN_POINT('',(-0.0383005422696471,0.0279925575562986,-0.00593902799963951));
#1092=CARTESIAN_POINT('',(-0.140100542269647,0.0279925575562986,-0.00593902799963951));
#1093=CARTESIAN_POINT('',(-0.140100542269647,-0.0299074424437014,-0.00593902799963951));
#1094=CARTESIAN_POINT('',(-0.140100542269647,-0.0299074424437014,0.00906097200036049));
#1095=CARTESIAN_POINT('',(0.0320994577303529,-0.0299074424437014,0.00906097200036049));
#1096=CARTESIAN_POINT('',(-0.0373005422696471,-0.0299074424437014,0.00906097200036049));
#1097=CARTESIAN_POINT('',(-0.0373005422696471,-0.0299074424437014,-0.00593902799963951));
#1098=CARTESIAN_POINT('',(-0.0373005422696471,-0.0299074424437014,-0.00793902799963951));
#1099=CARTESIAN_POINT('',(-0.00260054226964712,-0.0299074424437014,-0.00793902799963951));
#1100=CARTESIAN_POINT('',(0.0320994577303529,-0.0299074424437014,-0.00793902799963951));
#1101=CARTESIAN_POINT('',(0.0320994577303529,-0.0299074424437014,-0.00593902799963951));
#1102=CARTESIAN_POINT('',(-0.0403005422696471,0.0887925575562986,-0.00593902799963951));
#1103=CARTESIAN_POINT('',(-0.0403005422696471,4.25575562985614E-5,-0.00793902799963951));
#1104=CARTESIAN_POINT('',(-0.0403005422696471,-0.0269074424437014,-0.00793902799963951));
#1105=CARTESIAN_POINT('',(-0.0403005422696471,0.0269925575562985,-0.00793902799963951));
#1106=CARTESIAN_POINT('',(-0.0403005422696471,-0.0269074424437014,-0.00593902799963951));
#1107=CARTESIAN_POINT('',(-0.0403005422696471,-0.0269074424437014,0.00906097200036049));
#1108=CARTESIAN_POINT('',(-0.0403005422696471,0.0887925575562986,0.00906097200036049));
#1109=CARTESIAN_POINT('',(-0.0403005422696471,0.0269925575562985,0.00906097200036049));
#1110=CARTESIAN_POINT('',(-0.0403005422696471,0.0269925575562985,-0.00593902799963951));
#1111=CARTESIAN_POINT('',(-0.140100542269647,0.0299925575562985,-0.00593902799963951));
#1112=CARTESIAN_POINT('',(-0.00260054226964712,0.0299925575562985,-0.00793902799963951));
#1113=CARTESIAN_POINT('',(-0.0373005422696471,0.0299925575562985,-0.00793902799963951));
#1114=CARTESIAN_POINT('',(0.0320994577303529,0.0299925575562985,-0.00793902799963951));
#1115=CARTESIAN_POINT('',(-0.0373005422696471,0.0299925575562985,-0.00593902799963951));
#1116=CARTESIAN_POINT('',(-0.0373005422696471,0.0299925575562985,0.00906097200036049));
#1117=CARTESIAN_POINT('',(-0.140100542269647,0.0299925575562985,0.00906097200036049));
#1118=CARTESIAN_POINT('',(0.0320994577303529,0.0299925575562985,0.00906097200036049));
#1119=CARTESIAN_POINT('',(0.0320994577303529,0.0299925575562985,-0.00593902799963951));
#1120=CARTESIAN_POINT('',(0.0350994577303529,0.0887925575562986,-0.00593902799963951));
#1121=CARTESIAN_POINT('',(0.0350994577303529,0.000552388369121788,0.00585644339597458));
#1122=CARTESIAN_POINT('',(0.0350994577303529,0.000552388369121788,0.00550940447736819));
#1123=CARTESIAN_POINT('',(0.0350994577303529,0.00055238836912179,0.00621242991382889));
#1124=CARTESIAN_POINT('',(0.0350994577303529,0.00264500759878283,0.00621242991382889));
#1125=CARTESIAN_POINT('',(0.0350994577303529,0.00260365970818285,0.00830464060883313));
#1126=CARTESIAN_POINT('',(0.0350994577303529,0.0058333944494175,0.00830464060883313));
#1127=CARTESIAN_POINT('',(0.0350994577303529,0.00905427733990594,0.00830464060883313));
#1128=CARTESIAN_POINT('',(0.0350994577303529,0.00905427733990594,0.00622669033163526));
#1129=CARTESIAN_POINT('',(0.0350994577303529,0.0111320966745922,0.00620336294621274));
#1130=CARTESIAN_POINT('',(0.0350994577303529,0.0111320966745922,0.00585312210768235));
#1131=CARTESIAN_POINT('',(0.0350994577303529,0.0111320966745922,0.005503647853075));
#1132=CARTESIAN_POINT('',(0.0350994577303529,0.00905676917188965,0.00547680428933396));
#1133=CARTESIAN_POINT('',(0.0350994577303529,0.00905676917188965,0.00340130318830127));
#1134=CARTESIAN_POINT('',(0.0350994577303529,0.00583781844265848,0.00340130318830127));
#1135=CARTESIAN_POINT('',(0.0350994577303529,0.00261886771342731,0.00340130318830127));
#1136=CARTESIAN_POINT('',(0.0350994577303529,0.00261886771342731,0.00546819342042672));
#1137=CARTESIAN_POINT('',(0.0350994577303529,0.0887925575562986,-0.00793902799963951));
#1138=CARTESIAN_POINT('',(0.0350994577303529,-0.0269074424437014,-0.00793902799963951));
#1139=CARTESIAN_POINT('',(0.0350994577303529,0.0269925575562985,-0.00793902799963951));
#1140=CARTESIAN_POINT('',(0.0350994577303529,0.0269925575562985,-0.00593902799963951));
#1141=CARTESIAN_POINT('',(0.0350994577303529,0.0269925575562985,0.00906097200036049));
#1142=CARTESIAN_POINT('',(0.0350994577303529,0.0887925575562986,0.00906097200036049));
#1143=CARTESIAN_POINT('',(0.0350994577303529,-0.0269074424437014,0.00906097200036049));
#1144=CARTESIAN_POINT('',(0.0350994577303529,-0.0269074424437014,-0.00593902799963951));
#1145=CARTESIAN_POINT('',(-0.0383005422696471,0.0887925575562986,-0.00593902799963951));
#1146=CARTESIAN_POINT('',(-0.0383005422696471,0.0887925575562986,0.00906097200036049));
#1147=CARTESIAN_POINT('',(-0.0383005422696471,0.0887925575562986,-0.00593902799963951));
#1148=CARTESIAN_POINT('',(0.,0.,0.00906097200036049));
#1149=CARTESIAN_POINT('',(-0.0373005422696471,-0.0269074424437014,0.00906097200036049));
#1150=CARTESIAN_POINT('',(0.0320994577303529,-0.0269074424437014,0.00906097200036049));
#1151=CARTESIAN_POINT('',(0.0320994577303529,0.0269925575562985,0.00906097200036049));
#1152=CARTESIAN_POINT('',(-0.0373005422696471,0.0269925575562985,0.00906097200036049));
#1153=CARTESIAN_POINT('',(0.0350994577303529,0.00264500759878283,0.00621242991382889));
#1154=CARTESIAN_POINT('',(0.0350994577303529,0.00260365970818285,0.00830464060883313));
#1155=CARTESIAN_POINT('',(0.0350994577303529,0.000552388369121788,0.00621242991382889));
#1156=CARTESIAN_POINT('',(0.0350994577303529,0.0058333944494175,0.00830464060883313));
#1157=CARTESIAN_POINT('',(0.0350994577303529,0.00905427733990594,0.00830464060883313));
#1158=CARTESIAN_POINT('',(0.0350994577303529,0.00905427733990594,0.00622669033163526));
#1159=CARTESIAN_POINT('',(0.0350994577303529,0.0111320966745922,0.00620336294621274));
#1160=CARTESIAN_POINT('',(0.0350994577303529,0.0111320966745922,0.00585312210768235));
#1161=CARTESIAN_POINT('',(0.0350994577303529,0.0111320966745922,0.005503647853075));
#1162=CARTESIAN_POINT('',(0.0350994577303529,0.00905676917188965,0.00547680428933396));
#1163=CARTESIAN_POINT('',(0.0350994577303529,0.00905676917188965,0.00340130318830127));
#1164=CARTESIAN_POINT('',(0.0350994577303529,0.00583781844265848,0.00340130318830127));
#1165=CARTESIAN_POINT('',(0.0350994577303529,0.00261886771342731,0.00340130318830127));
#1166=CARTESIAN_POINT('',(0.0350994577303529,0.00261886771342731,0.00546819342042672));
#1167=CARTESIAN_POINT('',(0.0350994577303529,0.000552388369121788,0.00550940447736819));
#1168=CARTESIAN_POINT('',(0.0350994577303529,0.000552388369121788,0.00585644339597458));
#1169=CARTESIAN_POINT('',(0.0283994577303529,0.0227925575562986,0.00856097200036049));
#1170=CARTESIAN_POINT('',(0.0283994577303529,0.0227925575562986,0.00906097200036049));
#1171=CARTESIAN_POINT('',(0.0269994577303529,0.0227925575562986,0.00906097200036049));
#1172=CARTESIAN_POINT('',(0.0283994577303529,0.0227925575562986,0.00156097200036049));
#1173=CARTESIAN_POINT('',(0.0269994577303529,0.0227925575562986,0.00156097200036049));
#1174=CARTESIAN_POINT('',(-0.00272554226964711,0.000192545056298559,0.00906097200036049));
#1175=CARTESIAN_POINT('',(0.0283994577303529,0.0227925575562986,0.00156097200036049));
#1176=CARTESIAN_POINT('',(0.0283994577303529,0.0227925575562986,0.00156097200036049));
#1177=CARTESIAN_POINT('',(0.0260994577303529,0.0227925575562986,0.00156097200036049));
#1178=CARTESIAN_POINT('',(0.0283994577303529,0.0227925575562986,-0.00593902799963951));
#1179=CARTESIAN_POINT('',(0.0283994577303529,0.0227925575562986,-0.00593902799963951));
#1180=CARTESIAN_POINT('',(0.0260994577303529,0.0227925575562986,-0.00593902799963951));
#1181=CARTESIAN_POINT('',(-0.0336005422696471,0.0232925575562986,0.00856097200036049));
#1182=CARTESIAN_POINT('',(-0.0336005422696471,0.0232925575562986,0.00906097200036049));
#1183=CARTESIAN_POINT('',(-0.0350005422696471,0.0232925575562986,0.00906097200036049));
#1184=CARTESIAN_POINT('',(-0.0336005422696471,0.0232925575562986,0.00156097200036049));
#1185=CARTESIAN_POINT('',(-0.0350005422696471,0.0232925575562986,0.00156097200036049));
#1186=CARTESIAN_POINT('',(-0.00272554226964711,0.000192545056298559,0.00906097200036049));
#1187=CARTESIAN_POINT('',(-0.0336005422696471,0.0232925575562986,0.00156097200036049));
#1188=CARTESIAN_POINT('',(-0.0336005422696471,0.0232925575562986,0.00156097200036049));
#1189=CARTESIAN_POINT('',(-0.0359005422696471,0.0232925575562986,0.00156097200036049));
#1190=CARTESIAN_POINT('',(-0.0336005422696471,0.0232925575562986,-0.00593902799963951));
#1191=CARTESIAN_POINT('',(-0.0336005422696471,0.0232925575562986,-0.00593902799963951));
#1192=CARTESIAN_POINT('',(-0.0359005422696471,0.0232925575562986,-0.00593902799963951));
#1193=CARTESIAN_POINT('',(0.0283994577303529,-0.0227074424437014,-0.00593902799963951));
#1194=CARTESIAN_POINT('',(0.0283994577303529,-0.0227074424437014,-0.00593902799963951));
#1195=CARTESIAN_POINT('',(0.0260994577303529,-0.0227074424437014,-0.00593902799963951));
#1196=CARTESIAN_POINT('',(-0.0336005422696471,-0.0227074424437014,0.00856097200036049));
#1197=CARTESIAN_POINT('',(-0.0336005422696471,-0.0227074424437014,0.00906097200036049));
#1198=CARTESIAN_POINT('',(-0.0350005422696471,-0.0227074424437014,0.00906097200036049));
#1199=CARTESIAN_POINT('',(-0.0336005422696471,-0.0227074424437014,0.00156097200036049));
#1200=CARTESIAN_POINT('',(-0.0350005422696471,-0.0227074424437014,0.00156097200036049));
#1201=CARTESIAN_POINT('',(-0.00272554226964711,0.000192545056298559,0.00906097200036049));
#1202=CARTESIAN_POINT('',(-0.0336005422696471,-0.0227074424437014,0.00156097200036049));
#1203=CARTESIAN_POINT('',(-0.0336005422696471,-0.0227074424437014,0.00156097200036049));
#1204=CARTESIAN_POINT('',(-0.0359005422696471,-0.0227074424437014,0.00156097200036049));
#1205=CARTESIAN_POINT('',(-0.0336005422696471,-0.0227074424437014,-0.00593902799963951));
#1206=CARTESIAN_POINT('',(-0.0336005422696471,-0.0227074424437014,-0.00593902799963951));
#1207=CARTESIAN_POINT('',(-0.0359005422696471,-0.0227074424437014,-0.00593902799963951));
#1208=CARTESIAN_POINT('',(-0.00260054226964712,4.25575562985614E-5,-0.00593902799963951));
#1209=CARTESIAN_POINT('',(-0.00260054226964712,4.25575562985614E-5,-0.00793902799963951));
#1210=CARTESIAN_POINT('',(-0.0373005422696471,-0.0269074424437014,-0.00793902799963951));
#1211=CARTESIAN_POINT('',(-0.0373005422696471,0.0269925575562985,-0.00793902799963951));
#1212=CARTESIAN_POINT('',(0.0320994577303529,0.0269925575562985,-0.00793902799963951));
#1213=CARTESIAN_POINT('',(0.0320994577303529,-0.0269074424437014,-0.00793902799963951));
#1214=CARTESIAN_POINT('',(-0.0373005422696471,-0.0269074424437014,-0.00593902799963951));
#1215=CARTESIAN_POINT('',(-0.0373005422696471,0.0269925575562985,-0.00593902799963951));
#1216=CARTESIAN_POINT('',(0.0320994577303529,0.0269925575562985,-0.00593902799963951));
#1217=CARTESIAN_POINT('',(0.0320994577303529,-0.0269074424437014,-0.00593902799963951));
#1218=CARTESIAN_POINT('',(-0.00272554226964711,0.000192545056298559,0.00156097200036049));
#1219=CARTESIAN_POINT('',(0.0283994577303529,-0.0227074424437014,0.00156097200036049));
#1220=CARTESIAN_POINT('',(0.0283984577303529,-0.0227074424437014,0.00156097200036049));
#1221=CARTESIAN_POINT('',(-0.00260054226964712,4.25575562985614E-5,-0.00593902799963951));
#1222=CARTESIAN_POINT('',(0.0283994577303529,-0.0227074424437014,-0.00593902799963951));
#1223=CARTESIAN_POINT('',(0.0283984577303529,-0.0227074424437014,-0.00593902799963951));
#1224=CARTESIAN_POINT('',(0.0283994577303529,-0.0227074424437014,-0.00593902799963951));
#1225=CARTESIAN_POINT('',(-0.00260054226964712,4.25575562985614E-5,-0.00593902799963951));
#1226=CARTESIAN_POINT('',(0.0283994577303529,0.0227925575562986,-0.00593902799963951));
#1227=CARTESIAN_POINT('',(0.0283984577303529,0.0227925575562986,-0.00593902799963951));
#1228=CARTESIAN_POINT('',(0.0283994577303529,0.0227925575562986,-0.00593902799963951));
#1229=CARTESIAN_POINT('',(0.0283994577303529,0.0227925575562986,0.00156097200036049));
#1230=CARTESIAN_POINT('',(0.0283984577303529,0.0227925575562986,0.00156097200036049));
#1231=CARTESIAN_POINT('',(-0.00272554226964711,0.000192545056298559,0.00156097200036049));
#1232=CARTESIAN_POINT('',(-0.00260054226964712,4.25575562985614E-5,-0.00593902799963951));
#1233=CARTESIAN_POINT('',(-0.0336005422696471,0.0232925575562986,-0.00593902799963951));
#1234=CARTESIAN_POINT('',(-0.0336015422696471,0.0232925575562986,-0.00593902799963951));
#1235=CARTESIAN_POINT('',(-0.0336005422696471,0.0232925575562986,-0.00593902799963951));
#1236=CARTESIAN_POINT('',(-0.0336005422696471,0.0232925575562986,0.00156097200036049));
#1237=CARTESIAN_POINT('',(-0.0336015422696471,0.0232925575562986,0.00156097200036049));
#1238=CARTESIAN_POINT('',(-0.00272554226964711,0.000192545056298559,0.00156097200036049));
#1239=CARTESIAN_POINT('',(-0.0336005422696471,-0.0227074424437014,-0.00593902799963951));
#1240=CARTESIAN_POINT('',(-0.0336005422696471,-0.0227074424437014,-0.00593902799963951));
#1241=CARTESIAN_POINT('',(-0.0336015422696471,-0.0227074424437014,-0.00593902799963951));
#1242=CARTESIAN_POINT('',(-0.0336005422696471,-0.0227074424437014,0.00156097200036049));
#1243=CARTESIAN_POINT('',(-0.0336015422696471,-0.0227074424437014,0.00156097200036049));
#1244=CARTESIAN_POINT('',(-0.00272554226964711,0.000192545056298559,0.00156097200036049));
#1245=CARTESIAN_POINT('',(-0.00260054226964712,4.25575562985614E-5,-0.00593902799963951));
#1246=MECHANICAL_DESIGN_GEOMETRIC_PRESENTATION_REPRESENTATION('',(#715),
#1247);
#1247=(
GEOMETRIC_REPRESENTATION_CONTEXT(3)
GLOBAL_UNCERTAINTY_ASSIGNED_CONTEXT((#1248))
GLOBAL_UNIT_ASSIGNED_CONTEXT((#1251,#1250,#1249))
REPRESENTATION_CONTEXT('Part 1','TOP_LEVEL_ASSEMBLY_PART')
);
#1248=UNCERTAINTY_MEASURE_WITH_UNIT(LENGTH_MEASURE(1.E-8),#1251,
'DISTANCE_ACCURACY_VALUE','Maximum Tolerance applied to model');
#1249=(
NAMED_UNIT(*)
SI_UNIT($,.STERADIAN.)
SOLID_ANGLE_UNIT()
);
#1250=(
NAMED_UNIT(*)
PLANE_ANGLE_UNIT()
SI_UNIT($,.RADIAN.)
);
#1251=(
LENGTH_UNIT()
NAMED_UNIT(*)
SI_UNIT($,.METRE.)
);
#1252=PRODUCT_DEFINITION_SHAPE('','',#1253);
#1253=PRODUCT_DEFINITION('','',#1255,#1254);
#1254=PRODUCT_DEFINITION_CONTEXT('',#1261,'design');
#1255=PRODUCT_DEFINITION_FORMATION_WITH_SPECIFIED_SOURCE('','',#1257,
 .NOT_KNOWN.);
#1256=PRODUCT_RELATED_PRODUCT_CATEGORY('','',(#1257));
#1257=PRODUCT('Part 1','Part 1','Part 1',(#1259));
#1258=PRODUCT_CATEGORY('','');
#1259=PRODUCT_CONTEXT('',#1261,'mechanical');
#1260=APPLICATION_PROTOCOL_DEFINITION('international standard',
'ap242_managed_model_based_3d_engineering',2020,#1261);
#1261=APPLICATION_CONTEXT('managed model based 3d engineering');
ENDSEC;
END-ISO-10303-21;
