ISO-10303-21;
HEADER;
/* Generated by software containing ST-Developer
 * from STEP Tools, Inc. (www.steptools.com) 
 */
/* OPTION: using custom renumber hook */

FILE_DESCRIPTION(
/* description */ ('STEP AP242 Edition 2',
'CAx-IF Rec.Pracs.---Representation and Presentation of Product Manufa
cturing Information (PMI)---4.0---2014-10-13',
'CAx-IF Rec.Pracs.---3D Tessellated Geometry---0.4---2014-09-14','2;1',
'CAx-IF Rec.Pracs.---User Defined Attributes---1.5---2016-08-15'),
/* implementation_level */ '2;1');

FILE_NAME(
/* name */ 'Part Studio 1 - Part 2',
/* time_stamp */ '2026-10-09T00:00:30Z',
/* author */ (''),
/* organization */ (''),
/* preprocessor_version */ 'ST-DEVELOPER v20',
/* originating_system */ 'ONSHAPE BY PTC INC, 1.221',
/* authorisation */ '  ');

FILE_SCHEMA (('AP242_MANAGED_MODEL_BASED_3D_ENGINEERING_MIM_LF { 1 0 10303 442 3 1 4 }'));
ENDSEC;

DATA;
#10=SHAPE_REPRESENTATION_RELATIONSHIP('','',#719,#11);
#11=ADVANCED_BREP_SHAPE_REPRESENTATION('',(#717),#1181);
#12=CYLINDRICAL_SURFACE('',#739,0.00155);
#13=CYLINDRICAL_SURFACE('',#742,0.0039);
#14=CYLINDRICAL_SURFACE('',#746,0.00155);
#15=CYLINDRICAL_SURFACE('',#749,0.0039);
#16=CYLINDRICAL_SURFACE('',#753,0.00155);
#17=CYLINDRICAL_SURFACE('',#756,0.0039);
#18=CYLINDRICAL_SURFACE('',#760,0.00155);
#19=CYLINDRICAL_SURFACE('',#763,0.0039);
#20=CYLINDRICAL_SURFACE('',#783,0.003);
#21=CYLINDRICAL_SURFACE('',#784,0.003);
#22=CYLINDRICAL_SURFACE('',#785,0.003);
#23=CYLINDRICAL_SURFACE('',#786,0.003);
#24=CIRCLE('',#725,0.003);
#25=CIRCLE('',#726,0.003);
#26=CIRCLE('',#727,0.003);
#27=CIRCLE('',#728,0.003);
#28=CIRCLE('',#730,0.0039);
#29=CIRCLE('',#731,0.0039);
#30=CIRCLE('',#732,0.0039);
#31=CIRCLE('',#733,0.0039);
#32=CIRCLE('',#734,0.003);
#33=CIRCLE('',#735,0.003);
#34=CIRCLE('',#736,0.003);
#35=CIRCLE('',#737,0.003);
#36=CIRCLE('',#740,0.00155);
#37=CIRCLE('',#741,0.00155);
#38=CIRCLE('',#743,0.0039);
#39=CIRCLE('',#747,0.00155);
#40=CIRCLE('',#748,0.00155);
#41=CIRCLE('',#750,0.0039);
#42=CIRCLE('',#754,0.00155);
#43=CIRCLE('',#755,0.00155);
#44=CIRCLE('',#757,0.0039);
#45=CIRCLE('',#761,0.00155);
#46=CIRCLE('',#762,0.00155);
#47=CIRCLE('',#764,0.0039);
#48=ORIENTED_EDGE('',*,*,#224,.F.);
#49=ORIENTED_EDGE('',*,*,#225,.T.);
#50=ORIENTED_EDGE('',*,*,#226,.T.);
#51=ORIENTED_EDGE('',*,*,#227,.T.);
#52=ORIENTED_EDGE('',*,*,#228,.T.);
#53=ORIENTED_EDGE('',*,*,#229,.T.);
#54=ORIENTED_EDGE('',*,*,#230,.F.);
#55=ORIENTED_EDGE('',*,*,#231,.T.);
#56=ORIENTED_EDGE('',*,*,#232,.F.);
#57=ORIENTED_EDGE('',*,*,#233,.T.);
#58=ORIENTED_EDGE('',*,*,#234,.T.);
#59=ORIENTED_EDGE('',*,*,#235,.T.);
#60=ORIENTED_EDGE('',*,*,#236,.F.);
#61=ORIENTED_EDGE('',*,*,#237,.F.);
#62=ORIENTED_EDGE('',*,*,#238,.F.);
#63=ORIENTED_EDGE('',*,*,#239,.F.);
#64=ORIENTED_EDGE('',*,*,#240,.F.);
#65=ORIENTED_EDGE('',*,*,#241,.F.);
#66=ORIENTED_EDGE('',*,*,#242,.F.);
#67=ORIENTED_EDGE('',*,*,#243,.F.);
#68=ORIENTED_EDGE('',*,*,#244,.F.);
#69=ORIENTED_EDGE('',*,*,#245,.F.);
#70=ORIENTED_EDGE('',*,*,#246,.F.);
#71=ORIENTED_EDGE('',*,*,#247,.F.);
#72=ORIENTED_EDGE('',*,*,#248,.F.);
#73=ORIENTED_EDGE('',*,*,#249,.F.);
#74=ORIENTED_EDGE('',*,*,#250,.F.);
#75=ORIENTED_EDGE('',*,*,#251,.F.);
#76=ORIENTED_EDGE('',*,*,#226,.F.);
#77=ORIENTED_EDGE('',*,*,#252,.T.);
#78=ORIENTED_EDGE('',*,*,#228,.F.);
#79=ORIENTED_EDGE('',*,*,#253,.T.);
#80=ORIENTED_EDGE('',*,*,#234,.F.);
#81=ORIENTED_EDGE('',*,*,#254,.T.);
#82=ORIENTED_EDGE('',*,*,#255,.F.);
#83=ORIENTED_EDGE('',*,*,#256,.T.);
#84=ORIENTED_EDGE('',*,*,#257,.T.);
#85=ORIENTED_EDGE('',*,*,#258,.T.);
#86=ORIENTED_EDGE('',*,*,#259,.T.);
#87=ORIENTED_EDGE('',*,*,#260,.T.);
#88=ORIENTED_EDGE('',*,*,#261,.T.);
#89=ORIENTED_EDGE('',*,*,#262,.T.);
#90=ORIENTED_EDGE('',*,*,#263,.T.);
#91=ORIENTED_EDGE('',*,*,#264,.T.);
#92=ORIENTED_EDGE('',*,*,#265,.T.);
#93=ORIENTED_EDGE('',*,*,#266,.T.);
#94=ORIENTED_EDGE('',*,*,#267,.T.);
#95=ORIENTED_EDGE('',*,*,#268,.T.);
#96=ORIENTED_EDGE('',*,*,#269,.T.);
#97=ORIENTED_EDGE('',*,*,#270,.T.);
#98=ORIENTED_EDGE('',*,*,#271,.T.);
#99=ORIENTED_EDGE('',*,*,#272,.T.);
#100=ORIENTED_EDGE('',*,*,#273,.F.);
#101=ORIENTED_EDGE('',*,*,#274,.F.);
#102=ORIENTED_EDGE('',*,*,#275,.F.);
#103=ORIENTED_EDGE('',*,*,#276,.F.);
#104=ORIENTED_EDGE('',*,*,#230,.T.);
#105=ORIENTED_EDGE('',*,*,#277,.T.);
#106=ORIENTED_EDGE('',*,*,#224,.T.);
#107=ORIENTED_EDGE('',*,*,#278,.T.);
#108=ORIENTED_EDGE('',*,*,#279,.F.);
#109=ORIENTED_EDGE('',*,*,#280,.T.);
#110=ORIENTED_EDGE('',*,*,#232,.T.);
#111=ORIENTED_EDGE('',*,*,#281,.T.);
#112=ORIENTED_EDGE('',*,*,#279,.T.);
#113=ORIENTED_EDGE('',*,*,#282,.T.);
#114=ORIENTED_EDGE('',*,*,#255,.T.);
#115=ORIENTED_EDGE('',*,*,#283,.T.);
#116=ORIENTED_EDGE('',*,*,#284,.T.);
#117=ORIENTED_EDGE('',*,*,#285,.F.);
#118=ORIENTED_EDGE('',*,*,#286,.F.);
#119=ORIENTED_EDGE('',*,*,#276,.T.);
#120=ORIENTED_EDGE('',*,*,#284,.F.);
#121=ORIENTED_EDGE('',*,*,#286,.T.);
#122=ORIENTED_EDGE('',*,*,#285,.T.);
#123=ORIENTED_EDGE('',*,*,#287,.T.);
#124=ORIENTED_EDGE('',*,*,#288,.F.);
#125=ORIENTED_EDGE('',*,*,#289,.F.);
#126=ORIENTED_EDGE('',*,*,#275,.T.);
#127=ORIENTED_EDGE('',*,*,#287,.F.);
#128=ORIENTED_EDGE('',*,*,#289,.T.);
#129=ORIENTED_EDGE('',*,*,#288,.T.);
#130=ORIENTED_EDGE('',*,*,#290,.T.);
#131=ORIENTED_EDGE('',*,*,#291,.F.);
#132=ORIENTED_EDGE('',*,*,#292,.F.);
#133=ORIENTED_EDGE('',*,*,#274,.T.);
#134=ORIENTED_EDGE('',*,*,#290,.F.);
#135=ORIENTED_EDGE('',*,*,#292,.T.);
#136=ORIENTED_EDGE('',*,*,#291,.T.);
#137=ORIENTED_EDGE('',*,*,#293,.T.);
#138=ORIENTED_EDGE('',*,*,#294,.F.);
#139=ORIENTED_EDGE('',*,*,#295,.F.);
#140=ORIENTED_EDGE('',*,*,#273,.T.);
#141=ORIENTED_EDGE('',*,*,#293,.F.);
#142=ORIENTED_EDGE('',*,*,#295,.T.);
#143=ORIENTED_EDGE('',*,*,#294,.T.);
#144=ORIENTED_EDGE('',*,*,#296,.T.);
#145=ORIENTED_EDGE('',*,*,#251,.T.);
#146=ORIENTED_EDGE('',*,*,#297,.F.);
#147=ORIENTED_EDGE('',*,*,#271,.F.);
#148=ORIENTED_EDGE('',*,*,#297,.T.);
#149=ORIENTED_EDGE('',*,*,#250,.T.);
#150=ORIENTED_EDGE('',*,*,#298,.F.);
#151=ORIENTED_EDGE('',*,*,#272,.F.);
#152=ORIENTED_EDGE('',*,*,#298,.T.);
#153=ORIENTED_EDGE('',*,*,#249,.T.);
#154=ORIENTED_EDGE('',*,*,#299,.F.);
#155=ORIENTED_EDGE('',*,*,#269,.F.);
#156=ORIENTED_EDGE('',*,*,#299,.T.);
#157=ORIENTED_EDGE('',*,*,#248,.T.);
#158=ORIENTED_EDGE('',*,*,#296,.F.);
#159=ORIENTED_EDGE('',*,*,#270,.F.);
#160=ORIENTED_EDGE('',*,*,#300,.T.);
#161=ORIENTED_EDGE('',*,*,#247,.T.);
#162=ORIENTED_EDGE('',*,*,#301,.F.);
#163=ORIENTED_EDGE('',*,*,#267,.F.);
#164=ORIENTED_EDGE('',*,*,#301,.T.);
#165=ORIENTED_EDGE('',*,*,#246,.T.);
#166=ORIENTED_EDGE('',*,*,#302,.F.);
#167=ORIENTED_EDGE('',*,*,#268,.F.);
#168=ORIENTED_EDGE('',*,*,#302,.T.);
#169=ORIENTED_EDGE('',*,*,#245,.T.);
#170=ORIENTED_EDGE('',*,*,#303,.F.);
#171=ORIENTED_EDGE('',*,*,#265,.F.);
#172=ORIENTED_EDGE('',*,*,#303,.T.);
#173=ORIENTED_EDGE('',*,*,#244,.T.);
#174=ORIENTED_EDGE('',*,*,#300,.F.);
#175=ORIENTED_EDGE('',*,*,#266,.F.);
#176=ORIENTED_EDGE('',*,*,#304,.T.);
#177=ORIENTED_EDGE('',*,*,#243,.T.);
#178=ORIENTED_EDGE('',*,*,#305,.F.);
#179=ORIENTED_EDGE('',*,*,#263,.F.);
#180=ORIENTED_EDGE('',*,*,#305,.T.);
#181=ORIENTED_EDGE('',*,*,#242,.T.);
#182=ORIENTED_EDGE('',*,*,#306,.F.);
#183=ORIENTED_EDGE('',*,*,#264,.F.);
#184=ORIENTED_EDGE('',*,*,#306,.T.);
#185=ORIENTED_EDGE('',*,*,#241,.T.);
#186=ORIENTED_EDGE('',*,*,#307,.F.);
#187=ORIENTED_EDGE('',*,*,#261,.F.);
#188=ORIENTED_EDGE('',*,*,#307,.T.);
#189=ORIENTED_EDGE('',*,*,#240,.T.);
#190=ORIENTED_EDGE('',*,*,#304,.F.);
#191=ORIENTED_EDGE('',*,*,#262,.F.);
#192=ORIENTED_EDGE('',*,*,#308,.T.);
#193=ORIENTED_EDGE('',*,*,#237,.T.);
#194=ORIENTED_EDGE('',*,*,#309,.F.);
#195=ORIENTED_EDGE('',*,*,#257,.F.);
#196=ORIENTED_EDGE('',*,*,#310,.T.);
#197=ORIENTED_EDGE('',*,*,#238,.T.);
#198=ORIENTED_EDGE('',*,*,#308,.F.);
#199=ORIENTED_EDGE('',*,*,#260,.F.);
#200=ORIENTED_EDGE('',*,*,#311,.T.);
#201=ORIENTED_EDGE('',*,*,#239,.T.);
#202=ORIENTED_EDGE('',*,*,#310,.F.);
#203=ORIENTED_EDGE('',*,*,#259,.F.);
#204=ORIENTED_EDGE('',*,*,#309,.T.);
#205=ORIENTED_EDGE('',*,*,#236,.T.);
#206=ORIENTED_EDGE('',*,*,#311,.F.);
#207=ORIENTED_EDGE('',*,*,#258,.F.);
#208=ORIENTED_EDGE('',*,*,#277,.F.);
#209=ORIENTED_EDGE('',*,*,#229,.F.);
#210=ORIENTED_EDGE('',*,*,#252,.F.);
#211=ORIENTED_EDGE('',*,*,#225,.F.);
#212=ORIENTED_EDGE('',*,*,#278,.F.);
#213=ORIENTED_EDGE('',*,*,#227,.F.);
#214=ORIENTED_EDGE('',*,*,#256,.F.);
#215=ORIENTED_EDGE('',*,*,#282,.F.);
#216=ORIENTED_EDGE('',*,*,#280,.F.);
#217=ORIENTED_EDGE('',*,*,#283,.F.);
#218=ORIENTED_EDGE('',*,*,#254,.F.);
#219=ORIENTED_EDGE('',*,*,#233,.F.);
#220=ORIENTED_EDGE('',*,*,#281,.F.);
#221=ORIENTED_EDGE('',*,*,#235,.F.);
#222=ORIENTED_EDGE('',*,*,#253,.F.);
#223=ORIENTED_EDGE('',*,*,#231,.F.);
#224=EDGE_CURVE('',#312,#313,#376,.T.);
#225=EDGE_CURVE('',#312,#314,#377,.F.);
#226=EDGE_CURVE('',#314,#315,#378,.F.);
#227=EDGE_CURVE('',#315,#313,#379,.F.);
#228=EDGE_CURVE('',#316,#317,#380,.F.);
#229=EDGE_CURVE('',#317,#318,#381,.T.);
#230=EDGE_CURVE('',#319,#318,#382,.T.);
#231=EDGE_CURVE('',#319,#316,#383,.F.);
#232=EDGE_CURVE('',#320,#321,#384,.T.);
#233=EDGE_CURVE('',#320,#322,#385,.T.);
#234=EDGE_CURVE('',#322,#323,#386,.T.);
#235=EDGE_CURVE('',#323,#321,#387,.T.);
#236=EDGE_CURVE('',#324,#325,#388,.F.);
#237=EDGE_CURVE('',#326,#324,#389,.T.);
#238=EDGE_CURVE('',#327,#326,#390,.T.);
#239=EDGE_CURVE('',#325,#327,#391,.T.);
#240=EDGE_CURVE('',#328,#329,#392,.T.);
#241=EDGE_CURVE('',#330,#328,#393,.T.);
#242=EDGE_CURVE('',#331,#330,#394,.T.);
#243=EDGE_CURVE('',#329,#331,#395,.T.);
#244=EDGE_CURVE('',#332,#333,#396,.T.);
#245=EDGE_CURVE('',#334,#332,#397,.T.);
#246=EDGE_CURVE('',#335,#334,#398,.T.);
#247=EDGE_CURVE('',#333,#335,#399,.T.);
#248=EDGE_CURVE('',#336,#337,#400,.T.);
#249=EDGE_CURVE('',#338,#336,#401,.T.);
#250=EDGE_CURVE('',#339,#338,#402,.T.);
#251=EDGE_CURVE('',#337,#339,#403,.T.);
#252=EDGE_CURVE('',#314,#317,#24,.T.);
#253=EDGE_CURVE('',#316,#323,#25,.T.);
#254=EDGE_CURVE('',#322,#340,#26,.T.);
#255=EDGE_CURVE('',#341,#340,#404,.F.);
#256=EDGE_CURVE('',#341,#315,#27,.T.);
#257=EDGE_CURVE('',#342,#343,#405,.T.);
#258=EDGE_CURVE('',#343,#344,#406,.T.);
#259=EDGE_CURVE('',#344,#345,#407,.T.);
#260=EDGE_CURVE('',#345,#342,#408,.T.);
#261=EDGE_CURVE('',#346,#347,#409,.T.);
#262=EDGE_CURVE('',#347,#348,#410,.T.);
#263=EDGE_CURVE('',#348,#349,#411,.T.);
#264=EDGE_CURVE('',#349,#346,#412,.T.);
#265=EDGE_CURVE('',#350,#351,#413,.T.);
#266=EDGE_CURVE('',#351,#352,#414,.T.);
#267=EDGE_CURVE('',#352,#353,#415,.T.);
#268=EDGE_CURVE('',#353,#350,#416,.T.);
#269=EDGE_CURVE('',#354,#355,#417,.T.);
#270=EDGE_CURVE('',#355,#356,#418,.T.);
#271=EDGE_CURVE('',#356,#357,#419,.T.);
#272=EDGE_CURVE('',#357,#354,#420,.T.);
#273=EDGE_CURVE('',#358,#358,#28,.T.);
#274=EDGE_CURVE('',#359,#359,#29,.T.);
#275=EDGE_CURVE('',#360,#360,#30,.T.);
#276=EDGE_CURVE('',#361,#361,#31,.T.);
#277=EDGE_CURVE('',#318,#312,#32,.F.);
#278=EDGE_CURVE('',#313,#362,#33,.F.);
#279=EDGE_CURVE('',#363,#362,#421,.T.);
#280=EDGE_CURVE('',#363,#320,#34,.F.);
#281=EDGE_CURVE('',#321,#319,#35,.F.);
#282=EDGE_CURVE('',#362,#341,#422,.F.);
#283=EDGE_CURVE('',#340,#363,#423,.T.);
#284=EDGE_CURVE('',#364,#364,#36,.T.);
#285=EDGE_CURVE('',#365,#365,#37,.T.);
#286=EDGE_CURVE('',#366,#366,#38,.T.);
#287=EDGE_CURVE('',#367,#367,#39,.T.);
#288=EDGE_CURVE('',#368,#368,#40,.T.);
#289=EDGE_CURVE('',#369,#369,#41,.T.);
#290=EDGE_CURVE('',#370,#370,#42,.T.);
#291=EDGE_CURVE('',#371,#371,#43,.T.);
#292=EDGE_CURVE('',#372,#372,#44,.T.);
#293=EDGE_CURVE('',#373,#373,#45,.T.);
#294=EDGE_CURVE('',#374,#374,#46,.T.);
#295=EDGE_CURVE('',#375,#375,#47,.T.);
#296=EDGE_CURVE('',#356,#337,#424,.T.);
#297=EDGE_CURVE('',#357,#339,#425,.T.);
#298=EDGE_CURVE('',#354,#338,#426,.T.);
#299=EDGE_CURVE('',#355,#336,#427,.T.);
#300=EDGE_CURVE('',#352,#333,#428,.T.);
#301=EDGE_CURVE('',#353,#335,#429,.T.);
#302=EDGE_CURVE('',#350,#334,#430,.T.);
#303=EDGE_CURVE('',#351,#332,#431,.T.);
#304=EDGE_CURVE('',#348,#329,#432,.T.);
#305=EDGE_CURVE('',#349,#331,#433,.T.);
#306=EDGE_CURVE('',#346,#330,#434,.T.);
#307=EDGE_CURVE('',#347,#328,#435,.T.);
#308=EDGE_CURVE('',#342,#326,#436,.T.);
#309=EDGE_CURVE('',#343,#324,#437,.T.);
#310=EDGE_CURVE('',#345,#327,#438,.T.);
#311=EDGE_CURVE('',#344,#325,#439,.T.);
#312=VERTEX_POINT('',#988);
#313=VERTEX_POINT('',#989);
#314=VERTEX_POINT('',#991);
#315=VERTEX_POINT('',#993);
#316=VERTEX_POINT('',#997);
#317=VERTEX_POINT('',#998);
#318=VERTEX_POINT('',#1000);
#319=VERTEX_POINT('',#1002);
#320=VERTEX_POINT('',#1006);
#321=VERTEX_POINT('',#1007);
#322=VERTEX_POINT('',#1009);
#323=VERTEX_POINT('',#1011);
#324=VERTEX_POINT('',#1015);
#325=VERTEX_POINT('',#1016);
#326=VERTEX_POINT('',#1018);
#327=VERTEX_POINT('',#1020);
#328=VERTEX_POINT('',#1023);
#329=VERTEX_POINT('',#1024);
#330=VERTEX_POINT('',#1026);
#331=VERTEX_POINT('',#1028);
#332=VERTEX_POINT('',#1031);
#333=VERTEX_POINT('',#1032);
#334=VERTEX_POINT('',#1034);
#335=VERTEX_POINT('',#1036);
#336=VERTEX_POINT('',#1039);
#337=VERTEX_POINT('',#1040);
#338=VERTEX_POINT('',#1042);
#339=VERTEX_POINT('',#1044);
#340=VERTEX_POINT('',#1049);
#341=VERTEX_POINT('',#1051);
#342=VERTEX_POINT('',#1055);
#343=VERTEX_POINT('',#1056);
#344=VERTEX_POINT('',#1058);
#345=VERTEX_POINT('',#1060);
#346=VERTEX_POINT('',#1063);
#347=VERTEX_POINT('',#1064);
#348=VERTEX_POINT('',#1066);
#349=VERTEX_POINT('',#1068);
#350=VERTEX_POINT('',#1071);
#351=VERTEX_POINT('',#1072);
#352=VERTEX_POINT('',#1074);
#353=VERTEX_POINT('',#1076);
#354=VERTEX_POINT('',#1079);
#355=VERTEX_POINT('',#1080);
#356=VERTEX_POINT('',#1082);
#357=VERTEX_POINT('',#1084);
#358=VERTEX_POINT('',#1087);
#359=VERTEX_POINT('',#1089);
#360=VERTEX_POINT('',#1091);
#361=VERTEX_POINT('',#1093);
#362=VERTEX_POINT('',#1096);
#363=VERTEX_POINT('',#1098);
#364=VERTEX_POINT('',#1106);
#365=VERTEX_POINT('',#1108);
#366=VERTEX_POINT('',#1111);
#367=VERTEX_POINT('',#1116);
#368=VERTEX_POINT('',#1118);
#369=VERTEX_POINT('',#1121);
#370=VERTEX_POINT('',#1126);
#371=VERTEX_POINT('',#1128);
#372=VERTEX_POINT('',#1131);
#373=VERTEX_POINT('',#1136);
#374=VERTEX_POINT('',#1138);
#375=VERTEX_POINT('',#1141);
#376=LINE('',#987,#440);
#377=LINE('',#990,#441);
#378=LINE('',#992,#442);
#379=LINE('',#994,#443);
#380=LINE('',#996,#444);
#381=LINE('',#999,#445);
#382=LINE('',#1001,#446);
#383=LINE('',#1003,#447);
#384=LINE('',#1005,#448);
#385=LINE('',#1008,#449);
#386=LINE('',#1010,#450);
#387=LINE('',#1012,#451);
#388=LINE('',#1014,#452);
#389=LINE('',#1017,#453);
#390=LINE('',#1019,#454);
#391=LINE('',#1021,#455);
#392=LINE('',#1022,#456);
#393=LINE('',#1025,#457);
#394=LINE('',#1027,#458);
#395=LINE('',#1029,#459);
#396=LINE('',#1030,#460);
#397=LINE('',#1033,#461);
#398=LINE('',#1035,#462);
#399=LINE('',#1037,#463);
#400=LINE('',#1038,#464);
#401=LINE('',#1041,#465);
#402=LINE('',#1043,#466);
#403=LINE('',#1045,#467);
#404=LINE('',#1050,#468);
#405=LINE('',#1054,#469);
#406=LINE('',#1057,#470);
#407=LINE('',#1059,#471);
#408=LINE('',#1061,#472);
#409=LINE('',#1062,#473);
#410=LINE('',#1065,#474);
#411=LINE('',#1067,#475);
#412=LINE('',#1069,#476);
#413=LINE('',#1070,#477);
#414=LINE('',#1073,#478);
#415=LINE('',#1075,#479);
#416=LINE('',#1077,#480);
#417=LINE('',#1078,#481);
#418=LINE('',#1081,#482);
#419=LINE('',#1083,#483);
#420=LINE('',#1085,#484);
#421=LINE('',#1097,#485);
#422=LINE('',#1102,#486);
#423=LINE('',#1103,#487);
#424=LINE('',#1145,#488);
#425=LINE('',#1146,#489);
#426=LINE('',#1148,#490);
#427=LINE('',#1150,#491);
#428=LINE('',#1153,#492);
#429=LINE('',#1154,#493);
#430=LINE('',#1156,#494);
#431=LINE('',#1158,#495);
#432=LINE('',#1161,#496);
#433=LINE('',#1162,#497);
#434=LINE('',#1164,#498);
#435=LINE('',#1166,#499);
#436=LINE('',#1169,#500);
#437=LINE('',#1170,#501);
#438=LINE('',#1172,#502);
#439=LINE('',#1174,#503);
#440=VECTOR('',#791,1.);
#441=VECTOR('',#792,1.);
#442=VECTOR('',#793,1.);
#443=VECTOR('',#794,1.);
#444=VECTOR('',#797,1.);
#445=VECTOR('',#798,1.);
#446=VECTOR('',#799,1.);
#447=VECTOR('',#800,1.);
#448=VECTOR('',#803,1.);
#449=VECTOR('',#804,1.);
#450=VECTOR('',#805,1.);
#451=VECTOR('',#806,1.);
#452=VECTOR('',#809,1.);
#453=VECTOR('',#810,1.);
#454=VECTOR('',#811,1.);
#455=VECTOR('',#812,1.);
#456=VECTOR('',#813,1.);
#457=VECTOR('',#814,1.);
#458=VECTOR('',#815,1.);
#459=VECTOR('',#816,1.);
#460=VECTOR('',#817,1.);
#461=VECTOR('',#818,1.);
#462=VECTOR('',#819,1.);
#463=VECTOR('',#820,1.);
#464=VECTOR('',#821,1.);
#465=VECTOR('',#822,1.);
#466=VECTOR('',#823,1.);
#467=VECTOR('',#824,1.);
#468=VECTOR('',#831,1.);
#469=VECTOR('',#836,1.);
#470=VECTOR('',#837,1.);
#471=VECTOR('',#838,1.);
#472=VECTOR('',#839,1.);
#473=VECTOR('',#840,1.);
#474=VECTOR('',#841,1.);
#475=VECTOR('',#842,1.);
#476=VECTOR('',#843,1.);
#477=VECTOR('',#844,1.);
#478=VECTOR('',#845,1.);
#479=VECTOR('',#846,1.);
#480=VECTOR('',#847,1.);
#481=VECTOR('',#848,1.);
#482=VECTOR('',#849,1.);
#483=VECTOR('',#850,1.);
#484=VECTOR('',#851,1.);
#485=VECTOR('',#864,1.);
#486=VECTOR('',#871,1.);
#487=VECTOR('',#872,1.);
#488=VECTOR('',#931,1.);
#489=VECTOR('',#932,1.);
#490=VECTOR('',#935,1.);
#491=VECTOR('',#938,1.);
#492=VECTOR('',#943,1.);
#493=VECTOR('',#944,1.);
#494=VECTOR('',#947,1.);
#495=VECTOR('',#950,1.);
#496=VECTOR('',#955,1.);
#497=VECTOR('',#956,1.);
#498=VECTOR('',#959,1.);
#499=VECTOR('',#962,1.);
#500=VECTOR('',#967,1.);
#501=VECTOR('',#968,1.);
#502=VECTOR('',#971,1.);
#503=VECTOR('',#974,1.);
#504=EDGE_LOOP('',(#48,#49,#50,#51));
#505=EDGE_LOOP('',(#52,#53,#54,#55));
#506=EDGE_LOOP('',(#56,#57,#58,#59));
#507=EDGE_LOOP('',(#60,#61,#62,#63));
#508=EDGE_LOOP('',(#64,#65,#66,#67));
#509=EDGE_LOOP('',(#68,#69,#70,#71));
#510=EDGE_LOOP('',(#72,#73,#74,#75));
#511=EDGE_LOOP('',(#76,#77,#78,#79,#80,#81,#82,#83));
#512=EDGE_LOOP('',(#84,#85,#86,#87));
#513=EDGE_LOOP('',(#88,#89,#90,#91));
#514=EDGE_LOOP('',(#92,#93,#94,#95));
#515=EDGE_LOOP('',(#96,#97,#98,#99));
#516=EDGE_LOOP('',(#100));
#517=EDGE_LOOP('',(#101));
#518=EDGE_LOOP('',(#102));
#519=EDGE_LOOP('',(#103));
#520=EDGE_LOOP('',(#104,#105,#106,#107,#108,#109,#110,#111));
#521=EDGE_LOOP('',(#112,#113,#114,#115));
#522=EDGE_LOOP('',(#116));
#523=EDGE_LOOP('',(#117));
#524=EDGE_LOOP('',(#118));
#525=EDGE_LOOP('',(#119));
#526=EDGE_LOOP('',(#120));
#527=EDGE_LOOP('',(#121));
#528=EDGE_LOOP('',(#122));
#529=EDGE_LOOP('',(#123));
#530=EDGE_LOOP('',(#124));
#531=EDGE_LOOP('',(#125));
#532=EDGE_LOOP('',(#126));
#533=EDGE_LOOP('',(#127));
#534=EDGE_LOOP('',(#128));
#535=EDGE_LOOP('',(#129));
#536=EDGE_LOOP('',(#130));
#537=EDGE_LOOP('',(#131));
#538=EDGE_LOOP('',(#132));
#539=EDGE_LOOP('',(#133));
#540=EDGE_LOOP('',(#134));
#541=EDGE_LOOP('',(#135));
#542=EDGE_LOOP('',(#136));
#543=EDGE_LOOP('',(#137));
#544=EDGE_LOOP('',(#138));
#545=EDGE_LOOP('',(#139));
#546=EDGE_LOOP('',(#140));
#547=EDGE_LOOP('',(#141));
#548=EDGE_LOOP('',(#142));
#549=EDGE_LOOP('',(#143));
#550=EDGE_LOOP('',(#144,#145,#146,#147));
#551=EDGE_LOOP('',(#148,#149,#150,#151));
#552=EDGE_LOOP('',(#152,#153,#154,#155));
#553=EDGE_LOOP('',(#156,#157,#158,#159));
#554=EDGE_LOOP('',(#160,#161,#162,#163));
#555=EDGE_LOOP('',(#164,#165,#166,#167));
#556=EDGE_LOOP('',(#168,#169,#170,#171));
#557=EDGE_LOOP('',(#172,#173,#174,#175));
#558=EDGE_LOOP('',(#176,#177,#178,#179));
#559=EDGE_LOOP('',(#180,#181,#182,#183));
#560=EDGE_LOOP('',(#184,#185,#186,#187));
#561=EDGE_LOOP('',(#188,#189,#190,#191));
#562=EDGE_LOOP('',(#192,#193,#194,#195));
#563=EDGE_LOOP('',(#196,#197,#198,#199));
#564=EDGE_LOOP('',(#200,#201,#202,#203));
#565=EDGE_LOOP('',(#204,#205,#206,#207));
#566=EDGE_LOOP('',(#208,#209,#210,#211));
#567=EDGE_LOOP('',(#212,#213,#214,#215));
#568=EDGE_LOOP('',(#216,#217,#218,#219));
#569=EDGE_LOOP('',(#220,#221,#222,#223));
#570=FACE_BOUND('',#504,.T.);
#571=FACE_BOUND('',#505,.T.);
#572=FACE_BOUND('',#506,.T.);
#573=FACE_BOUND('',#507,.T.);
#574=FACE_BOUND('',#508,.T.);
#575=FACE_BOUND('',#509,.T.);
#576=FACE_BOUND('',#510,.T.);
#577=FACE_BOUND('',#511,.T.);
#578=FACE_BOUND('',#512,.T.);
#579=FACE_BOUND('',#513,.T.);
#580=FACE_BOUND('',#514,.T.);
#581=FACE_BOUND('',#515,.T.);
#582=FACE_BOUND('',#516,.T.);
#583=FACE_BOUND('',#517,.T.);
#584=FACE_BOUND('',#518,.T.);
#585=FACE_BOUND('',#519,.T.);
#586=FACE_BOUND('',#520,.T.);
#587=FACE_BOUND('',#521,.T.);
#588=FACE_BOUND('',#522,.T.);
#589=FACE_BOUND('',#523,.T.);
#590=FACE_BOUND('',#524,.T.);
#591=FACE_BOUND('',#525,.T.);
#592=FACE_BOUND('',#526,.T.);
#593=FACE_BOUND('',#527,.T.);
#594=FACE_BOUND('',#528,.T.);
#595=FACE_BOUND('',#529,.T.);
#596=FACE_BOUND('',#530,.T.);
#597=FACE_BOUND('',#531,.T.);
#598=FACE_BOUND('',#532,.T.);
#599=FACE_BOUND('',#533,.T.);
#600=FACE_BOUND('',#534,.T.);
#601=FACE_BOUND('',#535,.T.);
#602=FACE_BOUND('',#536,.T.);
#603=FACE_BOUND('',#537,.T.);
#604=FACE_BOUND('',#538,.T.);
#605=FACE_BOUND('',#539,.T.);
#606=FACE_BOUND('',#540,.T.);
#607=FACE_BOUND('',#541,.T.);
#608=FACE_BOUND('',#542,.T.);
#609=FACE_BOUND('',#543,.T.);
#610=FACE_BOUND('',#544,.T.);
#611=FACE_BOUND('',#545,.T.);
#612=FACE_BOUND('',#546,.T.);
#613=FACE_BOUND('',#547,.T.);
#614=FACE_BOUND('',#548,.T.);
#615=FACE_BOUND('',#549,.T.);
#616=FACE_BOUND('',#550,.T.);
#617=FACE_BOUND('',#551,.T.);
#618=FACE_BOUND('',#552,.T.);
#619=FACE_BOUND('',#553,.T.);
#620=FACE_BOUND('',#554,.T.);
#621=FACE_BOUND('',#555,.T.);
#622=FACE_BOUND('',#556,.T.);
#623=FACE_BOUND('',#557,.T.);
#624=FACE_BOUND('',#558,.T.);
#625=FACE_BOUND('',#559,.T.);
#626=FACE_BOUND('',#560,.T.);
#627=FACE_BOUND('',#561,.T.);
#628=FACE_BOUND('',#562,.T.);
#629=FACE_BOUND('',#563,.T.);
#630=FACE_BOUND('',#564,.T.);
#631=FACE_BOUND('',#565,.T.);
#632=FACE_BOUND('',#566,.T.);
#633=FACE_BOUND('',#567,.T.);
#634=FACE_BOUND('',#568,.T.);
#635=FACE_BOUND('',#569,.T.);
#636=PLANE('',#721);
#637=PLANE('',#722);
#638=PLANE('',#723);
#639=PLANE('',#724);
#640=PLANE('',#729);
#641=PLANE('',#738);
#642=PLANE('',#744);
#643=PLANE('',#745);
#644=PLANE('',#751);
#645=PLANE('',#752);
#646=PLANE('',#758);
#647=PLANE('',#759);
#648=PLANE('',#765);
#649=PLANE('',#766);
#650=PLANE('',#767);
#651=PLANE('',#768);
#652=PLANE('',#769);
#653=PLANE('',#770);
#654=PLANE('',#771);
#655=PLANE('',#772);
#656=PLANE('',#773);
#657=PLANE('',#774);
#658=PLANE('',#775);
#659=PLANE('',#776);
#660=PLANE('',#777);
#661=PLANE('',#778);
#662=PLANE('',#779);
#663=PLANE('',#780);
#664=PLANE('',#781);
#665=PLANE('',#782);
#666=ADVANCED_FACE('',(#570),#636,.F.);
#667=ADVANCED_FACE('',(#571),#637,.F.);
#668=ADVANCED_FACE('',(#572),#638,.F.);
#669=ADVANCED_FACE('',(#573,#574,#575,#576,#577),#639,.T.);
#670=ADVANCED_FACE('',(#578,#579,#580,#581,#582,#583,#584,#585,#586),#640,
 .F.);
#671=ADVANCED_FACE('',(#587),#641,.T.);
#672=ADVANCED_FACE('',(#588,#589),#12,.F.);
#673=ADVANCED_FACE('',(#590,#591),#13,.T.);
#674=ADVANCED_FACE('',(#592,#593),#642,.T.);
#675=ADVANCED_FACE('',(#594),#643,.F.);
#676=ADVANCED_FACE('',(#595,#596),#14,.F.);
#677=ADVANCED_FACE('',(#597,#598),#15,.T.);
#678=ADVANCED_FACE('',(#599,#600),#644,.T.);
#679=ADVANCED_FACE('',(#601),#645,.F.);
#680=ADVANCED_FACE('',(#602,#603),#16,.F.);
#681=ADVANCED_FACE('',(#604,#605),#17,.T.);
#682=ADVANCED_FACE('',(#606,#607),#646,.T.);
#683=ADVANCED_FACE('',(#608),#647,.F.);
#684=ADVANCED_FACE('',(#609,#610),#18,.F.);
#685=ADVANCED_FACE('',(#611,#612),#19,.T.);
#686=ADVANCED_FACE('',(#613,#614),#648,.T.);
#687=ADVANCED_FACE('',(#615),#649,.F.);
#688=ADVANCED_FACE('',(#616),#650,.F.);
#689=ADVANCED_FACE('',(#617),#651,.F.);
#690=ADVANCED_FACE('',(#618),#652,.F.);
#691=ADVANCED_FACE('',(#619),#653,.F.);
#692=ADVANCED_FACE('',(#620),#654,.F.);
#693=ADVANCED_FACE('',(#621),#655,.F.);
#694=ADVANCED_FACE('',(#622),#656,.F.);
#695=ADVANCED_FACE('',(#623),#657,.F.);
#696=ADVANCED_FACE('',(#624),#658,.F.);
#697=ADVANCED_FACE('',(#625),#659,.F.);
#698=ADVANCED_FACE('',(#626),#660,.F.);
#699=ADVANCED_FACE('',(#627),#661,.F.);
#700=ADVANCED_FACE('',(#628),#662,.F.);
#701=ADVANCED_FACE('',(#629),#663,.F.);
#702=ADVANCED_FACE('',(#630),#664,.F.);
#703=ADVANCED_FACE('',(#631),#665,.F.);
#704=ADVANCED_FACE('',(#632),#20,.T.);
#705=ADVANCED_FACE('',(#633),#21,.T.);
#706=ADVANCED_FACE('',(#634),#22,.T.);
#707=ADVANCED_FACE('',(#635),#23,.T.);
#708=CLOSED_SHELL('',(#666,#667,#668,#669,#670,#671,#672,#673,#674,#675,
#676,#677,#678,#679,#680,#681,#682,#683,#684,#685,#686,#687,#688,#689,#690,
#691,#692,#693,#694,#695,#696,#697,#698,#699,#700,#701,#702,#703,#704,#705,
#706,#707));
#709=STYLED_ITEM('',(#710),#717);
#710=PRESENTATION_STYLE_ASSIGNMENT((#711));
#711=SURFACE_STYLE_USAGE(.BOTH.,#712);
#712=SURFACE_SIDE_STYLE('',(#713));
#713=SURFACE_STYLE_FILL_AREA(#714);
#714=FILL_AREA_STYLE('',(#715));
#715=FILL_AREA_STYLE_COLOUR('',#716);
#716=COLOUR_RGB('',0.231372549019608,0.380392156862745,0.705882352941177);
#717=MANIFOLD_SOLID_BREP('Part 2',#708);
#718=SHAPE_DEFINITION_REPRESENTATION(#1186,#719);
#719=SHAPE_REPRESENTATION('Part 2',(#720),#1181);
#720=AXIS2_PLACEMENT_3D('',#985,#787,#788);
#721=AXIS2_PLACEMENT_3D('',#986,#789,#790);
#722=AXIS2_PLACEMENT_3D('',#995,#795,#796);
#723=AXIS2_PLACEMENT_3D('',#1004,#801,#802);
#724=AXIS2_PLACEMENT_3D('',#1013,#807,#808);
#725=AXIS2_PLACEMENT_3D('',#1046,#825,#826);
#726=AXIS2_PLACEMENT_3D('',#1047,#827,#828);
#727=AXIS2_PLACEMENT_3D('',#1048,#829,#830);
#728=AXIS2_PLACEMENT_3D('',#1052,#832,#833);
#729=AXIS2_PLACEMENT_3D('',#1053,#834,#835);
#730=AXIS2_PLACEMENT_3D('',#1086,#852,#853);
#731=AXIS2_PLACEMENT_3D('',#1088,#854,#855);
#732=AXIS2_PLACEMENT_3D('',#1090,#856,#857);
#733=AXIS2_PLACEMENT_3D('',#1092,#858,#859);
#734=AXIS2_PLACEMENT_3D('',#1094,#860,#861);
#735=AXIS2_PLACEMENT_3D('',#1095,#862,#863);
#736=AXIS2_PLACEMENT_3D('',#1099,#865,#866);
#737=AXIS2_PLACEMENT_3D('',#1100,#867,#868);
#738=AXIS2_PLACEMENT_3D('',#1101,#869,#870);
#739=AXIS2_PLACEMENT_3D('',#1104,#873,#874);
#740=AXIS2_PLACEMENT_3D('',#1105,#875,#876);
#741=AXIS2_PLACEMENT_3D('',#1107,#877,#878);
#742=AXIS2_PLACEMENT_3D('',#1109,#879,#880);
#743=AXIS2_PLACEMENT_3D('',#1110,#881,#882);
#744=AXIS2_PLACEMENT_3D('',#1112,#883,#884);
#745=AXIS2_PLACEMENT_3D('',#1113,#885,#886);
#746=AXIS2_PLACEMENT_3D('',#1114,#887,#888);
#747=AXIS2_PLACEMENT_3D('',#1115,#889,#890);
#748=AXIS2_PLACEMENT_3D('',#1117,#891,#892);
#749=AXIS2_PLACEMENT_3D('',#1119,#893,#894);
#750=AXIS2_PLACEMENT_3D('',#1120,#895,#896);
#751=AXIS2_PLACEMENT_3D('',#1122,#897,#898);
#752=AXIS2_PLACEMENT_3D('',#1123,#899,#900);
#753=AXIS2_PLACEMENT_3D('',#1124,#901,#902);
#754=AXIS2_PLACEMENT_3D('',#1125,#903,#904);
#755=AXIS2_PLACEMENT_3D('',#1127,#905,#906);
#756=AXIS2_PLACEMENT_3D('',#1129,#907,#908);
#757=AXIS2_PLACEMENT_3D('',#1130,#909,#910);
#758=AXIS2_PLACEMENT_3D('',#1132,#911,#912);
#759=AXIS2_PLACEMENT_3D('',#1133,#913,#914);
#760=AXIS2_PLACEMENT_3D('',#1134,#915,#916);
#761=AXIS2_PLACEMENT_3D('',#1135,#917,#918);
#762=AXIS2_PLACEMENT_3D('',#1137,#919,#920);
#763=AXIS2_PLACEMENT_3D('',#1139,#921,#922);
#764=AXIS2_PLACEMENT_3D('',#1140,#923,#924);
#765=AXIS2_PLACEMENT_3D('',#1142,#925,#926);
#766=AXIS2_PLACEMENT_3D('',#1143,#927,#928);
#767=AXIS2_PLACEMENT_3D('',#1144,#929,#930);
#768=AXIS2_PLACEMENT_3D('',#1147,#933,#934);
#769=AXIS2_PLACEMENT_3D('',#1149,#936,#937);
#770=AXIS2_PLACEMENT_3D('',#1151,#939,#940);
#771=AXIS2_PLACEMENT_3D('',#1152,#941,#942);
#772=AXIS2_PLACEMENT_3D('',#1155,#945,#946);
#773=AXIS2_PLACEMENT_3D('',#1157,#948,#949);
#774=AXIS2_PLACEMENT_3D('',#1159,#951,#952);
#775=AXIS2_PLACEMENT_3D('',#1160,#953,#954);
#776=AXIS2_PLACEMENT_3D('',#1163,#957,#958);
#777=AXIS2_PLACEMENT_3D('',#1165,#960,#961);
#778=AXIS2_PLACEMENT_3D('',#1167,#963,#964);
#779=AXIS2_PLACEMENT_3D('',#1168,#965,#966);
#780=AXIS2_PLACEMENT_3D('',#1171,#969,#970);
#781=AXIS2_PLACEMENT_3D('',#1173,#972,#973);
#782=AXIS2_PLACEMENT_3D('',#1175,#975,#976);
#783=AXIS2_PLACEMENT_3D('',#1176,#977,#978);
#784=AXIS2_PLACEMENT_3D('',#1177,#979,#980);
#785=AXIS2_PLACEMENT_3D('',#1178,#981,#982);
#786=AXIS2_PLACEMENT_3D('',#1179,#983,#984);
#787=DIRECTION('',(0.,0.,1.));
#788=DIRECTION('',(1.,0.,0.));
#789=DIRECTION('',(0.,-1.,1.22464679914735E-16));
#790=DIRECTION('',(-1.,0.,0.));
#791=DIRECTION('',(-1.,0.,0.));
#792=DIRECTION('',(0.,1.22464679914735E-16,1.));
#793=DIRECTION('',(1.,0.,0.));
#794=DIRECTION('',(0.,-1.22464679914735E-16,-1.));
#795=DIRECTION('',(-1.,0.,0.));
#796=DIRECTION('',(0.,1.,-1.22464679914735E-16));
#797=DIRECTION('',(0.,-1.,1.22464679914735E-16));
#798=DIRECTION('',(0.,1.22464679914735E-16,1.));
#799=DIRECTION('',(0.,1.,-1.22464679914735E-16));
#800=DIRECTION('',(0.,1.22464679914735E-16,1.));
#801=DIRECTION('',(0.,1.,-1.22464679914735E-16));
#802=DIRECTION('',(1.,0.,0.));
#803=DIRECTION('',(1.,0.,0.));
#804=DIRECTION('',(0.,-1.22464679914735E-16,-1.));
#805=DIRECTION('',(1.,0.,0.));
#806=DIRECTION('',(0.,1.22464679914735E-16,1.));
#807=DIRECTION('',(0.,-1.22464679914735E-16,-1.));
#808=DIRECTION('',(1.,0.,0.));
#809=DIRECTION('',(-1.,0.,0.));
#810=DIRECTION('',(0.,1.,-1.22464679914735E-16));
#811=DIRECTION('',(-1.,0.,0.));
#812=DIRECTION('',(0.,-1.,1.22464679914735E-16));
#813=DIRECTION('',(0.,-1.,1.22464679914735E-16));
#814=DIRECTION('',(1.,0.,0.));
#815=DIRECTION('',(0.,1.,-1.22464679914735E-16));
#816=DIRECTION('',(-1.,0.,0.));
#817=DIRECTION('',(0.,-1.,1.22464679914735E-16));
#818=DIRECTION('',(1.,0.,0.));
#819=DIRECTION('',(0.,1.,-1.22464679914735E-16));
#820=DIRECTION('',(-1.,0.,0.));
#821=DIRECTION('',(0.,-1.,1.22464679914735E-16));
#822=DIRECTION('',(1.,0.,0.));
#823=DIRECTION('',(0.,1.,-1.22464679914735E-16));
#824=DIRECTION('',(-1.,0.,0.));
#825=DIRECTION('',(0.,-1.22464679914735E-16,-1.));
#826=DIRECTION('',(0.,1.,-1.22464679914735E-16));
#827=DIRECTION('',(0.,-1.22464679914735E-16,-1.));
#828=DIRECTION('',(0.,1.,-1.22464679914735E-16));
#829=DIRECTION('',(0.,-1.22464679914735E-16,-1.));
#830=DIRECTION('',(0.,1.,-1.22464679914735E-16));
#831=DIRECTION('',(0.,1.,-1.22464679914735E-16));
#832=DIRECTION('',(0.,-1.22464679914735E-16,-1.));
#833=DIRECTION('',(0.,1.,-1.22464679914735E-16));
#834=DIRECTION('',(0.,-1.22464679914735E-16,-1.));
#835=DIRECTION('',(1.,0.,0.));
#836=DIRECTION('',(0.,1.,-1.22464679914735E-16));
#837=DIRECTION('',(1.,0.,0.));
#838=DIRECTION('',(0.,-1.,1.22464679914735E-16));
#839=DIRECTION('',(-1.,0.,0.));
#840=DIRECTION('',(1.,0.,0.));
#841=DIRECTION('',(0.,-1.,1.22464679914735E-16));
#842=DIRECTION('',(-1.,0.,0.));
#843=DIRECTION('',(0.,1.,-1.22464679914735E-16));
#844=DIRECTION('',(1.,0.,0.));
#845=DIRECTION('',(0.,-1.,1.22464679914735E-16));
#846=DIRECTION('',(-1.,0.,0.));
#847=DIRECTION('',(0.,1.,-1.22464679914735E-16));
#848=DIRECTION('',(1.,0.,0.));
#849=DIRECTION('',(0.,-1.,1.22464679914735E-16));
#850=DIRECTION('',(-1.,0.,0.));
#851=DIRECTION('',(0.,1.,-1.22464679914735E-16));
#852=DIRECTION('',(0.,1.22464679914735E-16,1.));
#853=DIRECTION('',(1.,0.,0.));
#854=DIRECTION('',(0.,1.22464679914735E-16,1.));
#855=DIRECTION('',(1.,0.,0.));
#856=DIRECTION('',(0.,1.22464679914735E-16,1.));
#857=DIRECTION('',(1.,0.,0.));
#858=DIRECTION('',(0.,1.22464679914735E-16,1.));
#859=DIRECTION('',(1.,0.,0.));
#860=DIRECTION('',(0.,-1.22464679914735E-16,-1.));
#861=DIRECTION('',(0.,1.,-1.22464679914735E-16));
#862=DIRECTION('',(0.,-1.22464679914735E-16,-1.));
#863=DIRECTION('',(0.,1.,-1.22464679914735E-16));
#864=DIRECTION('',(0.,1.,-1.22464679914735E-16));
#865=DIRECTION('',(0.,-1.22464679914735E-16,-1.));
#866=DIRECTION('',(0.,1.,-1.22464679914735E-16));
#867=DIRECTION('',(0.,-1.22464679914735E-16,-1.));
#868=DIRECTION('',(0.,1.,-1.22464679914735E-16));
#869=DIRECTION('',(-1.,0.,0.));
#870=DIRECTION('',(0.,1.,-1.22464679914735E-16));
#871=DIRECTION('',(0.,1.22464679914735E-16,1.));
#872=DIRECTION('',(0.,1.22464679914735E-16,1.));
#873=DIRECTION('',(0.,-1.22464679914735E-16,-1.));
#874=DIRECTION('',(1.,0.,0.));
#875=DIRECTION('',(0.,1.22464679914735E-16,1.));
#876=DIRECTION('',(1.,0.,0.));
#877=DIRECTION('',(0.,1.22464679914735E-16,1.));
#878=DIRECTION('',(1.,0.,0.));
#879=DIRECTION('',(0.,-1.22464679914735E-16,-1.));
#880=DIRECTION('',(1.,0.,0.));
#881=DIRECTION('',(0.,1.22464679914735E-16,1.));
#882=DIRECTION('',(1.,0.,0.));
#883=DIRECTION('',(0.,1.22464679914735E-16,1.));
#884=DIRECTION('',(-1.,0.,0.));
#885=DIRECTION('',(0.,-1.22464679914735E-16,-1.));
#886=DIRECTION('',(1.,0.,0.));
#887=DIRECTION('',(0.,-1.22464679914735E-16,-1.));
#888=DIRECTION('',(1.,0.,0.));
#889=DIRECTION('',(0.,1.22464679914735E-16,1.));
#890=DIRECTION('',(1.,0.,0.));
#891=DIRECTION('',(0.,1.22464679914735E-16,1.));
#892=DIRECTION('',(1.,0.,0.));
#893=DIRECTION('',(0.,-1.22464679914735E-16,-1.));
#894=DIRECTION('',(1.,0.,0.));
#895=DIRECTION('',(0.,1.22464679914735E-16,1.));
#896=DIRECTION('',(1.,0.,0.));
#897=DIRECTION('',(0.,1.22464679914735E-16,1.));
#898=DIRECTION('',(-1.,0.,0.));
#899=DIRECTION('',(0.,-1.22464679914735E-16,-1.));
#900=DIRECTION('',(1.,0.,0.));
#901=DIRECTION('',(0.,-1.22464679914735E-16,-1.));
#902=DIRECTION('',(1.,0.,0.));
#903=DIRECTION('',(0.,1.22464679914735E-16,1.));
#904=DIRECTION('',(1.,0.,0.));
#905=DIRECTION('',(0.,1.22464679914735E-16,1.));
#906=DIRECTION('',(1.,0.,0.));
#907=DIRECTION('',(0.,-1.22464679914735E-16,-1.));
#908=DIRECTION('',(1.,0.,0.));
#909=DIRECTION('',(0.,1.22464679914735E-16,1.));
#910=DIRECTION('',(1.,0.,0.));
#911=DIRECTION('',(0.,1.22464679914735E-16,1.));
#912=DIRECTION('',(-1.,0.,0.));
#913=DIRECTION('',(0.,-1.22464679914735E-16,-1.));
#914=DIRECTION('',(1.,0.,0.));
#915=DIRECTION('',(0.,-1.22464679914735E-16,-1.));
#916=DIRECTION('',(1.,0.,0.));
#917=DIRECTION('',(0.,1.22464679914735E-16,1.));
#918=DIRECTION('',(1.,0.,0.));
#919=DIRECTION('',(0.,1.22464679914735E-16,1.));
#920=DIRECTION('',(1.,0.,0.));
#921=DIRECTION('',(0.,-1.22464679914735E-16,-1.));
#922=DIRECTION('',(1.,0.,0.));
#923=DIRECTION('',(0.,1.22464679914735E-16,1.));
#924=DIRECTION('',(1.,0.,0.));
#925=DIRECTION('',(0.,1.22464679914735E-16,1.));
#926=DIRECTION('',(-1.,0.,0.));
#927=DIRECTION('',(0.,-1.22464679914735E-16,-1.));
#928=DIRECTION('',(1.,0.,0.));
#929=DIRECTION('',(0.,-1.,1.22464679914735E-16));
#930=DIRECTION('',(0.,-1.22464679914735E-16,-1.));
#931=DIRECTION('',(0.,-1.22464679914735E-16,-1.));
#932=DIRECTION('',(0.,-1.22464679914735E-16,-1.));
#933=DIRECTION('',(-1.,0.,0.));
#934=DIRECTION('',(0.,-1.22464679914735E-16,-1.));
#935=DIRECTION('',(0.,-1.22464679914735E-16,-1.));
#936=DIRECTION('',(0.,1.,-1.22464679914735E-16));
#937=DIRECTION('',(0.,1.22464679914735E-16,1.));
#938=DIRECTION('',(0.,-1.22464679914735E-16,-1.));
#939=DIRECTION('',(1.,0.,0.));
#940=DIRECTION('',(0.,1.22464679914735E-16,1.));
#941=DIRECTION('',(0.,-1.,1.22464679914735E-16));
#942=DIRECTION('',(0.,-1.22464679914735E-16,-1.));
#943=DIRECTION('',(0.,-1.22464679914735E-16,-1.));
#944=DIRECTION('',(0.,-1.22464679914735E-16,-1.));
#945=DIRECTION('',(-1.,0.,0.));
#946=DIRECTION('',(0.,-1.22464679914735E-16,-1.));
#947=DIRECTION('',(0.,-1.22464679914735E-16,-1.));
#948=DIRECTION('',(0.,1.,-1.22464679914735E-16));
#949=DIRECTION('',(0.,1.22464679914735E-16,1.));
#950=DIRECTION('',(0.,-1.22464679914735E-16,-1.));
#951=DIRECTION('',(1.,0.,0.));
#952=DIRECTION('',(0.,1.22464679914735E-16,1.));
#953=DIRECTION('',(0.,-1.,1.22464679914735E-16));
#954=DIRECTION('',(0.,-1.22464679914735E-16,-1.));
#955=DIRECTION('',(0.,-1.22464679914735E-16,-1.));
#956=DIRECTION('',(0.,-1.22464679914735E-16,-1.));
#957=DIRECTION('',(-1.,0.,0.));
#958=DIRECTION('',(0.,-1.22464679914735E-16,-1.));
#959=DIRECTION('',(0.,-1.22464679914735E-16,-1.));
#960=DIRECTION('',(0.,1.,-1.22464679914735E-16));
#961=DIRECTION('',(0.,1.22464679914735E-16,1.));
#962=DIRECTION('',(0.,-1.22464679914735E-16,-1.));
#963=DIRECTION('',(1.,0.,0.));
#964=DIRECTION('',(0.,1.22464679914735E-16,1.));
#965=DIRECTION('',(-1.,0.,0.));
#966=DIRECTION('',(0.,-1.22464679914735E-16,-1.));
#967=DIRECTION('',(0.,-1.22464679914735E-16,-1.));
#968=DIRECTION('',(0.,-1.22464679914735E-16,-1.));
#969=DIRECTION('',(0.,-1.,1.22464679914735E-16));
#970=DIRECTION('',(0.,-1.22464679914735E-16,-1.));
#971=DIRECTION('',(0.,-1.22464679914735E-16,-1.));
#972=DIRECTION('',(1.,0.,0.));
#973=DIRECTION('',(0.,1.22464679914735E-16,1.));
#974=DIRECTION('',(0.,-1.22464679914735E-16,-1.));
#975=DIRECTION('',(0.,1.,-1.22464679914735E-16));
#976=DIRECTION('',(0.,1.22464679914735E-16,1.));
#977=DIRECTION('',(0.,-1.22464679914735E-16,-1.));
#978=DIRECTION('',(0.,1.,-1.22464679914735E-16));
#979=DIRECTION('',(0.,1.22464679914735E-16,1.));
#980=DIRECTION('',(0.,-1.,1.22464679914735E-16));
#981=DIRECTION('',(0.,1.22464679914735E-16,1.));
#982=DIRECTION('',(0.,-1.,1.22464679914735E-16));
#983=DIRECTION('',(0.,-1.22464679914735E-16,-1.));
#984=DIRECTION('',(0.,1.,-1.22464679914735E-16));
#985=CARTESIAN_POINT('',(0.,0.,0.));
#986=CARTESIAN_POINT('',(-0.140100542269647,-0.0328074424437014,-0.00593902799963951));
#987=CARTESIAN_POINT('',(-0.140100542269647,-0.0328074424437014,-0.00593902799963951));
#988=CARTESIAN_POINT('',(0.0320994577303529,-0.0328074424437014,-0.00593902799963951));
#989=CARTESIAN_POINT('',(-0.0373005422696472,-0.0328074424437014,-0.00593902799963951));
#990=CARTESIAN_POINT('',(0.0320994577303529,-0.0328074424437014,-0.00593902799963951));
#991=CARTESIAN_POINT('',(0.0320994577303529,-0.0328074424437014,-0.00793902799963951));
#992=CARTESIAN_POINT('',(-0.00260054226964713,-0.0328074424437014,-0.00793902799963951));
#993=CARTESIAN_POINT('',(-0.0373005422696472,-0.0328074424437014,-0.00793902799963951));
#994=CARTESIAN_POINT('',(-0.0373005422696472,-0.0328074424437014,-0.00593902799963951));
#995=CARTESIAN_POINT('',(0.0350994577303529,-0.151507442443701,-0.0059390279996395));
#996=CARTESIAN_POINT('',(0.0350994577303529,-0.0627574424437015,-0.00793902799963951));
#997=CARTESIAN_POINT('',(0.0350994577303529,-0.0897074424437015,-0.0079390279996395));
#998=CARTESIAN_POINT('',(0.0350994577303529,-0.0358074424437015,-0.00793902799963951));
#999=CARTESIAN_POINT('',(0.0350994577303529,-0.0358074424437015,-0.00593902799963951));
#1000=CARTESIAN_POINT('',(0.0350994577303529,-0.0358074424437015,-0.00593902799963951));
#1001=CARTESIAN_POINT('',(0.0350994577303529,-0.151507442443701,-0.0059390279996395));
#1002=CARTESIAN_POINT('',(0.0350994577303529,-0.0897074424437015,-0.00593902799963951));
#1003=CARTESIAN_POINT('',(0.0350994577303529,-0.0897074424437015,-0.00593902799963951));
#1004=CARTESIAN_POINT('',(-0.140100542269647,-0.0927074424437015,-0.0059390279996395));
#1005=CARTESIAN_POINT('',(-0.140100542269647,-0.0927074424437015,-0.0059390279996395));
#1006=CARTESIAN_POINT('',(-0.0373005422696472,-0.0927074424437015,-0.0059390279996395));
#1007=CARTESIAN_POINT('',(0.0320994577303529,-0.0927074424437015,-0.0059390279996395));
#1008=CARTESIAN_POINT('',(-0.0373005422696472,-0.0927074424437015,-0.0059390279996395));
#1009=CARTESIAN_POINT('',(-0.0373005422696472,-0.0927074424437015,-0.0079390279996395));
#1010=CARTESIAN_POINT('',(-0.00260054226964713,-0.0927074424437015,-0.0079390279996395));
#1011=CARTESIAN_POINT('',(0.0320994577303529,-0.0927074424437015,-0.0079390279996395));
#1012=CARTESIAN_POINT('',(0.0320994577303529,-0.0927074424437015,-0.0059390279996395));
#1013=CARTESIAN_POINT('',(-0.00260054226964713,-0.0627574424437015,-0.00793902799963951));
#1014=CARTESIAN_POINT('',(-0.010595150945601,-0.0634427737182983,-0.00793902799963951));
#1015=CARTESIAN_POINT('',(-0.0229251509456011,-0.0634427737182983,-0.00793902799963951));
#1016=CARTESIAN_POINT('',(0.00173484905439896,-0.0634427737182983,-0.00793902799963951));
#1017=CARTESIAN_POINT('',(-0.0229251509456011,-0.0700827737182983,-0.00793902799963951));
#1018=CARTESIAN_POINT('',(-0.0229251509456011,-0.0767227737182983,-0.00793902799963951));
#1019=CARTESIAN_POINT('',(-0.010595150945601,-0.0767227737182983,-0.00793902799963951));
#1020=CARTESIAN_POINT('',(0.00173484905439896,-0.0767227737182983,-0.00793902799963951));
#1021=CARTESIAN_POINT('',(0.00173484905439896,-0.0700827737182983,-0.00793902799963951));
#1022=CARTESIAN_POINT('',(0.0198372494518757,-0.0460419631300029,-0.00793902799963951));
#1023=CARTESIAN_POINT('',(0.0198372494518757,-0.0396919631300028,-0.00793902799963951));
#1024=CARTESIAN_POINT('',(0.0198372494518757,-0.0523919631300029,-0.00793902799963951));
#1025=CARTESIAN_POINT('',(0.0134872494518757,-0.0396919631300028,-0.00793902799963951));
#1026=CARTESIAN_POINT('',(0.00713724945187569,-0.0396919631300028,-0.00793902799963951));
#1027=CARTESIAN_POINT('',(0.00713724945187569,-0.0460419631300029,-0.00793902799963951));
#1028=CARTESIAN_POINT('',(0.00713724945187569,-0.0523919631300029,-0.00793902799963951));
#1029=CARTESIAN_POINT('',(0.0134872494518757,-0.0523919631300029,-0.00793902799963951));
#1030=CARTESIAN_POINT('',(0.00380247116543027,-0.0460084803276413,-0.00793902799963951));
#1031=CARTESIAN_POINT('',(0.00380247116543027,-0.0396584803276413,-0.00793902799963951));
#1032=CARTESIAN_POINT('',(0.00380247116543027,-0.0523584803276413,-0.00793902799963951));
#1033=CARTESIAN_POINT('',(-0.00254752883456974,-0.0396584803276413,-0.00793902799963951));
#1034=CARTESIAN_POINT('',(-0.00889752883456974,-0.0396584803276413,-0.00793902799963951));
#1035=CARTESIAN_POINT('',(-0.00889752883456974,-0.0460084803276413,-0.00793902799963951));
#1036=CARTESIAN_POINT('',(-0.00889752883456974,-0.0523584803276413,-0.00793902799963951));
#1037=CARTESIAN_POINT('',(-0.00254752883456974,-0.0523584803276413,-0.00793902799963951));
#1038=CARTESIAN_POINT('',(-0.0122639081290668,-0.0460132108969681,-0.00793902799963951));
#1039=CARTESIAN_POINT('',(-0.0122639081290668,-0.0396632108969681,-0.00793902799963951));
#1040=CARTESIAN_POINT('',(-0.0122639081290668,-0.0523632108969681,-0.00793902799963951));
#1041=CARTESIAN_POINT('',(-0.0186139081290668,-0.0396632108969681,-0.00793902799963951));
#1042=CARTESIAN_POINT('',(-0.0249639081290668,-0.0396632108969681,-0.00793902799963951));
#1043=CARTESIAN_POINT('',(-0.0249639081290668,-0.0460132108969681,-0.00793902799963951));
#1044=CARTESIAN_POINT('',(-0.0249639081290668,-0.0523632108969681,-0.00793902799963951));
#1045=CARTESIAN_POINT('',(-0.0186139081290668,-0.0523632108969681,-0.00793902799963951));
#1046=CARTESIAN_POINT('',(0.0320994577303529,-0.0358074424437015,-0.00793902799963951));
#1047=CARTESIAN_POINT('',(0.0320994577303529,-0.0897074424437015,-0.0079390279996395));
#1048=CARTESIAN_POINT('',(-0.0373005422696472,-0.0897074424437015,-0.0079390279996395));
#1049=CARTESIAN_POINT('',(-0.0403005422696471,-0.0897074424437015,-0.0079390279996395));
#1050=CARTESIAN_POINT('',(-0.0403005422696471,-0.151507442443701,-0.0079390279996395));
#1051=CARTESIAN_POINT('',(-0.0403005422696471,-0.0358074424437015,-0.00793902799963951));
#1052=CARTESIAN_POINT('',(-0.0373005422696472,-0.0358074424437015,-0.00793902799963951));
#1053=CARTESIAN_POINT('',(-0.00260054226964713,-0.0627574424437015,-0.00593902799963951));
#1054=CARTESIAN_POINT('',(-0.0229251509456011,-0.0627574424437015,-0.00593902799963951));
#1055=CARTESIAN_POINT('',(-0.0229251509456011,-0.0767227737182983,-0.00593902799963951));
#1056=CARTESIAN_POINT('',(-0.0229251509456011,-0.0634427737182983,-0.00593902799963951));
#1057=CARTESIAN_POINT('',(-0.00260054226964713,-0.0634427737182983,-0.00593902799963951));
#1058=CARTESIAN_POINT('',(0.00173484905439896,-0.0634427737182983,-0.00593902799963951));
#1059=CARTESIAN_POINT('',(0.00173484905439896,-0.0627574424437015,-0.00593902799963951));
#1060=CARTESIAN_POINT('',(0.00173484905439896,-0.0767227737182983,-0.00593902799963951));
#1061=CARTESIAN_POINT('',(-0.00260054226964713,-0.0767227737182983,-0.00593902799963951));
#1062=CARTESIAN_POINT('',(-0.00260054226964713,-0.0396919631300028,-0.00593902799963951));
#1063=CARTESIAN_POINT('',(0.00713724945187569,-0.0396919631300028,-0.00593902799963951));
#1064=CARTESIAN_POINT('',(0.0198372494518757,-0.0396919631300028,-0.00593902799963951));
#1065=CARTESIAN_POINT('',(0.0198372494518757,-0.0627574424437015,-0.00593902799963951));
#1066=CARTESIAN_POINT('',(0.0198372494518757,-0.0523919631300029,-0.00593902799963951));
#1067=CARTESIAN_POINT('',(-0.00260054226964713,-0.0523919631300029,-0.00593902799963951));
#1068=CARTESIAN_POINT('',(0.00713724945187569,-0.0523919631300029,-0.00593902799963951));
#1069=CARTESIAN_POINT('',(0.00713724945187569,-0.0627574424437015,-0.00593902799963951));
#1070=CARTESIAN_POINT('',(-0.00260054226964713,-0.0396584803276413,-0.00593902799963951));
#1071=CARTESIAN_POINT('',(-0.00889752883456974,-0.0396584803276413,-0.00593902799963951));
#1072=CARTESIAN_POINT('',(0.00380247116543027,-0.0396584803276413,-0.00593902799963951));
#1073=CARTESIAN_POINT('',(0.00380247116543027,-0.0627574424437015,-0.00593902799963951));
#1074=CARTESIAN_POINT('',(0.00380247116543027,-0.0523584803276413,-0.00593902799963951));
#1075=CARTESIAN_POINT('',(-0.00260054226964713,-0.0523584803276413,-0.00593902799963951));
#1076=CARTESIAN_POINT('',(-0.00889752883456974,-0.0523584803276413,-0.00593902799963951));
#1077=CARTESIAN_POINT('',(-0.00889752883456974,-0.0627574424437015,-0.00593902799963951));
#1078=CARTESIAN_POINT('',(-0.00260054226964713,-0.0396632108969681,-0.00593902799963951));
#1079=CARTESIAN_POINT('',(-0.0249639081290668,-0.0396632108969681,-0.00593902799963951));
#1080=CARTESIAN_POINT('',(-0.0122639081290668,-0.0396632108969681,-0.00593902799963951));
#1081=CARTESIAN_POINT('',(-0.0122639081290668,-0.0627574424437015,-0.00593902799963951));
#1082=CARTESIAN_POINT('',(-0.0122639081290668,-0.0523632108969681,-0.00593902799963951));
#1083=CARTESIAN_POINT('',(-0.00260054226964713,-0.0523632108969681,-0.00593902799963951));
#1084=CARTESIAN_POINT('',(-0.0249639081290668,-0.0523632108969681,-0.00593902799963951));
#1085=CARTESIAN_POINT('',(-0.0249639081290668,-0.0627574424437015,-0.00593902799963951));
#1086=CARTESIAN_POINT('',(-0.0336005422696471,-0.0400074424437015,-0.00593902799963951));
#1087=CARTESIAN_POINT('',(-0.0297005422696471,-0.0400074424437015,-0.00593902799963951));
#1088=CARTESIAN_POINT('',(0.0283994577303529,-0.0855074424437014,-0.0059390279996395));
#1089=CARTESIAN_POINT('',(0.0322994577303529,-0.0855074424437014,-0.0059390279996395));
#1090=CARTESIAN_POINT('',(0.0283994577303529,-0.0400074424437015,-0.00593902799963951));
#1091=CARTESIAN_POINT('',(0.0322994577303529,-0.0400074424437015,-0.00593902799963951));
#1092=CARTESIAN_POINT('',(-0.0336005422696471,-0.0860074424437014,-0.0059390279996395));
#1093=CARTESIAN_POINT('',(-0.0297005422696471,-0.0860074424437014,-0.0059390279996395));
#1094=CARTESIAN_POINT('',(0.0320994577303529,-0.0358074424437015,-0.00593902799963951));
#1095=CARTESIAN_POINT('',(-0.0373005422696472,-0.0358074424437015,-0.00593902799963951));
#1096=CARTESIAN_POINT('',(-0.0403005422696471,-0.0358074424437015,-0.00593902799963951));
#1097=CARTESIAN_POINT('',(-0.0403005422696471,-0.151507442443701,-0.0059390279996395));
#1098=CARTESIAN_POINT('',(-0.0403005422696471,-0.0897074424437015,-0.00593902799963951));
#1099=CARTESIAN_POINT('',(-0.0373005422696472,-0.0897074424437015,-0.0059390279996395));
#1100=CARTESIAN_POINT('',(0.0320994577303529,-0.0897074424437015,-0.0059390279996395));
#1101=CARTESIAN_POINT('',(-0.0403005422696471,-0.151507442443701,-0.0059390279996395));
#1102=CARTESIAN_POINT('',(-0.0403005422696471,-0.0358074424437015,-0.00593902799963951));
#1103=CARTESIAN_POINT('',(-0.0403005422696471,-0.0897074424437015,-0.00593902799963951));
#1104=CARTESIAN_POINT('',(-0.0336005422696471,-0.0860074424437014,-0.000939027999639505));
#1105=CARTESIAN_POINT('',(-0.0336005422696471,-0.0860074424437014,-0.000939027999639505));
#1106=CARTESIAN_POINT('',(-0.0320505422696471,-0.0860074424437014,-0.000939027999639505));
#1107=CARTESIAN_POINT('',(-0.0336005422696471,-0.0860074424437014,-0.0059390279996395));
#1108=CARTESIAN_POINT('',(-0.0320505422696471,-0.0860074424437014,-0.0059390279996395));
#1109=CARTESIAN_POINT('',(-0.0336005422696471,-0.0860074424437014,-0.000939027999639505));
#1110=CARTESIAN_POINT('',(-0.0336005422696471,-0.0860074424437014,-0.000939027999639505));
#1111=CARTESIAN_POINT('',(-0.0297005422696471,-0.0860074424437014,-0.000939027999639505));
#1112=CARTESIAN_POINT('',(-0.0336005422696471,-0.0860074424437014,-0.000939027999639505));
#1113=CARTESIAN_POINT('',(-0.00260054226964713,-0.0627574424437015,-0.00593902799963951));
#1114=CARTESIAN_POINT('',(0.0283994577303529,-0.0400074424437015,-0.00093902799963951));
#1115=CARTESIAN_POINT('',(0.0283994577303529,-0.0400074424437015,-0.00093902799963951));
#1116=CARTESIAN_POINT('',(0.0299494577303529,-0.0400074424437015,-0.00093902799963951));
#1117=CARTESIAN_POINT('',(0.0283994577303529,-0.0400074424437015,-0.00593902799963951));
#1118=CARTESIAN_POINT('',(0.0299494577303529,-0.0400074424437015,-0.00593902799963951));
#1119=CARTESIAN_POINT('',(0.0283994577303529,-0.0400074424437015,-0.00093902799963951));
#1120=CARTESIAN_POINT('',(0.0283994577303529,-0.0400074424437015,-0.00093902799963951));
#1121=CARTESIAN_POINT('',(0.0322994577303529,-0.0400074424437015,-0.00093902799963951));
#1122=CARTESIAN_POINT('',(0.0283994577303529,-0.0400074424437015,-0.00093902799963951));
#1123=CARTESIAN_POINT('',(-0.00260054226964713,-0.0627574424437015,-0.00593902799963951));
#1124=CARTESIAN_POINT('',(0.0283994577303529,-0.0855074424437014,-0.000939027999639505));
#1125=CARTESIAN_POINT('',(0.0283994577303529,-0.0855074424437014,-0.000939027999639505));
#1126=CARTESIAN_POINT('',(0.0299494577303529,-0.0855074424437014,-0.000939027999639505));
#1127=CARTESIAN_POINT('',(0.0283994577303529,-0.0855074424437014,-0.0059390279996395));
#1128=CARTESIAN_POINT('',(0.0299494577303529,-0.0855074424437014,-0.0059390279996395));
#1129=CARTESIAN_POINT('',(0.0283994577303529,-0.0855074424437014,-0.000939027999639505));
#1130=CARTESIAN_POINT('',(0.0283994577303529,-0.0855074424437014,-0.000939027999639505));
#1131=CARTESIAN_POINT('',(0.0322994577303529,-0.0855074424437014,-0.000939027999639505));
#1132=CARTESIAN_POINT('',(0.0283994577303529,-0.0855074424437014,-0.000939027999639505));
#1133=CARTESIAN_POINT('',(-0.00260054226964713,-0.0627574424437015,-0.00593902799963951));
#1134=CARTESIAN_POINT('',(-0.0336005422696471,-0.0400074424437015,-0.00093902799963951));
#1135=CARTESIAN_POINT('',(-0.0336005422696471,-0.0400074424437015,-0.00093902799963951));
#1136=CARTESIAN_POINT('',(-0.0320505422696471,-0.0400074424437015,-0.00093902799963951));
#1137=CARTESIAN_POINT('',(-0.0336005422696471,-0.0400074424437015,-0.00593902799963951));
#1138=CARTESIAN_POINT('',(-0.0320505422696471,-0.0400074424437015,-0.00593902799963951));
#1139=CARTESIAN_POINT('',(-0.0336005422696471,-0.0400074424437015,-0.00093902799963951));
#1140=CARTESIAN_POINT('',(-0.0336005422696471,-0.0400074424437015,-0.00093902799963951));
#1141=CARTESIAN_POINT('',(-0.0297005422696471,-0.0400074424437015,-0.00093902799963951));
#1142=CARTESIAN_POINT('',(-0.0336005422696471,-0.0400074424437015,-0.00093902799963951));
#1143=CARTESIAN_POINT('',(-0.00260054226964713,-0.0627574424437015,-0.00593902799963951));
#1144=CARTESIAN_POINT('',(-0.0186139081290668,-0.0523632108969681,0.0520609720003605));
#1145=CARTESIAN_POINT('',(-0.0122639081290668,-0.0523632108969681,0.0520609720003605));
#1146=CARTESIAN_POINT('',(-0.0249639081290668,-0.0523632108969681,0.0520609720003605));
#1147=CARTESIAN_POINT('',(-0.0249639081290668,-0.0460132108969681,0.0520609720003605));
#1148=CARTESIAN_POINT('',(-0.0249639081290668,-0.0396632108969681,0.0520609720003605));
#1149=CARTESIAN_POINT('',(-0.0186139081290668,-0.0396632108969681,0.0520609720003605));
#1150=CARTESIAN_POINT('',(-0.0122639081290668,-0.0396632108969681,0.0520609720003605));
#1151=CARTESIAN_POINT('',(-0.0122639081290668,-0.0460132108969681,0.0520609720003605));
#1152=CARTESIAN_POINT('',(-0.00254752883456974,-0.0523584803276413,0.0520609720003605));
#1153=CARTESIAN_POINT('',(0.00380247116543027,-0.0523584803276413,0.0520609720003605));
#1154=CARTESIAN_POINT('',(-0.00889752883456974,-0.0523584803276413,0.0520609720003605));
#1155=CARTESIAN_POINT('',(-0.00889752883456974,-0.0460084803276413,0.0520609720003605));
#1156=CARTESIAN_POINT('',(-0.00889752883456974,-0.0396584803276413,0.0520609720003605));
#1157=CARTESIAN_POINT('',(-0.00254752883456974,-0.0396584803276413,0.0520609720003605));
#1158=CARTESIAN_POINT('',(0.00380247116543027,-0.0396584803276413,0.0520609720003605));
#1159=CARTESIAN_POINT('',(0.00380247116543027,-0.0460084803276413,0.0520609720003605));
#1160=CARTESIAN_POINT('',(0.0134872494518757,-0.0523919631300028,0.0520609720003605));
#1161=CARTESIAN_POINT('',(0.0198372494518757,-0.0523919631300028,0.0520609720003605));
#1162=CARTESIAN_POINT('',(0.00713724945187569,-0.0523919631300028,0.0520609720003605));
#1163=CARTESIAN_POINT('',(0.00713724945187569,-0.0460419631300029,0.0520609720003605));
#1164=CARTESIAN_POINT('',(0.00713724945187569,-0.0396919631300028,0.0520609720003605));
#1165=CARTESIAN_POINT('',(0.0134872494518757,-0.0396919631300028,0.0520609720003605));
#1166=CARTESIAN_POINT('',(0.0198372494518757,-0.0396919631300028,0.0520609720003605));
#1167=CARTESIAN_POINT('',(0.0198372494518757,-0.0460419631300029,0.0520609720003605));
#1168=CARTESIAN_POINT('',(-0.0229251509456011,-0.0700827737182983,0.0520609720003605));
#1169=CARTESIAN_POINT('',(-0.0229251509456011,-0.0767227737182983,0.0520609720003605));
#1170=CARTESIAN_POINT('',(-0.0229251509456011,-0.0634427737182983,0.0520609720003605));
#1171=CARTESIAN_POINT('',(-0.010595150945601,-0.0767227737182983,0.0520609720003605));
#1172=CARTESIAN_POINT('',(0.00173484905439896,-0.0767227737182983,0.0520609720003605));
#1173=CARTESIAN_POINT('',(0.00173484905439896,-0.0700827737182983,0.0520609720003605));
#1174=CARTESIAN_POINT('',(0.00173484905439896,-0.0634427737182983,0.0520609720003605));
#1175=CARTESIAN_POINT('',(-0.010595150945601,-0.0634427737182983,0.0520609720003605));
#1176=CARTESIAN_POINT('',(0.0320994577303529,-0.0358074424437015,-0.00593902799963951));
#1177=CARTESIAN_POINT('',(-0.0373005422696472,-0.0358074424437015,-0.00593902799963951));
#1178=CARTESIAN_POINT('',(-0.0373005422696472,-0.0897074424437015,-0.0059390279996395));
#1179=CARTESIAN_POINT('',(0.0320994577303529,-0.0897074424437015,-0.00593902799963951));
#1180=MECHANICAL_DESIGN_GEOMETRIC_PRESENTATION_REPRESENTATION('',(#709),
#1181);
#1181=(
GEOMETRIC_REPRESENTATION_CONTEXT(3)
GLOBAL_UNCERTAINTY_ASSIGNED_CONTEXT((#1182))
GLOBAL_UNIT_ASSIGNED_CONTEXT((#1185,#1184,#1183))
REPRESENTATION_CONTEXT('Part 2','TOP_LEVEL_ASSEMBLY_PART')
);
#1182=UNCERTAINTY_MEASURE_WITH_UNIT(LENGTH_MEASURE(1.E-8),#1185,
'DISTANCE_ACCURACY_VALUE','Maximum Tolerance applied to model');
#1183=(
NAMED_UNIT(*)
SI_UNIT($,.STERADIAN.)
SOLID_ANGLE_UNIT()
);
#1184=(
NAMED_UNIT(*)
PLANE_ANGLE_UNIT()
SI_UNIT($,.RADIAN.)
);
#1185=(
LENGTH_UNIT()
NAMED_UNIT(*)
SI_UNIT($,.METRE.)
);
#1186=PRODUCT_DEFINITION_SHAPE('','',#1187);
#1187=PRODUCT_DEFINITION('','',#1189,#1188);
#1188=PRODUCT_DEFINITION_CONTEXT('',#1195,'design');
#1189=PRODUCT_DEFINITION_FORMATION_WITH_SPECIFIED_SOURCE('','',#1191,
 .NOT_KNOWN.);
#1190=PRODUCT_RELATED_PRODUCT_CATEGORY('','',(#1191));
#1191=PRODUCT('Part 2','Part 2','Part 2',(#1193));
#1192=PRODUCT_CATEGORY('','');
#1193=PRODUCT_CONTEXT('',#1195,'mechanical');
#1194=APPLICATION_PROTOCOL_DEFINITION('international standard',
'ap242_managed_model_based_3d_engineering',2020,#1195);
#1195=APPLICATION_CONTEXT('managed model based 3d engineering');
ENDSEC;
END-ISO-10303-21;
