ISO-10303-21;
HEADER;
/* Generated by software containing ST-Developer
 * from STEP Tools, Inc. (www.steptools.com) 
 */
/* OPTION: using custom renumber hook */

FILE_DESCRIPTION(
/* description */ ('STEP AP242 Edition 2',
'CAx-IF Rec.Pracs.---Representation and Presentation of Product Manufa
cturing Information (PMI)---4.0---2014-10-13',
'CAx-IF Rec.Pracs.---3D Tessellated Geometry---0.4---2014-09-14','2;1',
'CAx-IF Rec.Pracs.---User Defined Attributes---1.5---2016-08-15'),
/* implementation_level */ '2;1');

FILE_NAME(
/* name */ 'Part Studio 1 - Part 11',
/* time_stamp */ '2026-10-07T22:34:09Z',
/* author */ (''),
/* organization */ (''),
/* preprocessor_version */ 'ST-DEVELOPER v20',
/* originating_system */ 'ONSHAPE BY PTC INC, 1.221',
/* authorisation */ '  ');

FILE_SCHEMA (('AP242_MANAGED_MODEL_BASED_3D_ENGINEERING_MIM_LF { 1 0 10303 442 3 1 4 }'));
ENDSEC;

DATA;
#10=SHAPE_REPRESENTATION_RELATIONSHIP('','',#643,#11);
#11=ADVANCED_BREP_SHAPE_REPRESENTATION('',(#641),#1041);
#12=CYLINDRICAL_SURFACE('',#655,0.00155);
#13=CYLINDRICAL_SURFACE('',#658,0.0039);
#14=CYLINDRICAL_SURFACE('',#662,0.00155);
#15=CYLINDRICAL_SURFACE('',#665,0.0039);
#16=CYLINDRICAL_SURFACE('',#669,0.00155);
#17=CYLINDRICAL_SURFACE('',#672,0.0039);
#18=CYLINDRICAL_SURFACE('',#676,0.00155);
#19=CYLINDRICAL_SURFACE('',#679,0.0039);
#20=CIRCLE('',#650,0.0039);
#21=CIRCLE('',#651,0.0039);
#22=CIRCLE('',#652,0.0039);
#23=CIRCLE('',#653,0.0039);
#24=CIRCLE('',#656,0.00155);
#25=CIRCLE('',#657,0.00155);
#26=CIRCLE('',#659,0.0039);
#27=CIRCLE('',#663,0.00155);
#28=CIRCLE('',#664,0.00155);
#29=CIRCLE('',#666,0.0039);
#30=CIRCLE('',#670,0.00155);
#31=CIRCLE('',#671,0.00155);
#32=CIRCLE('',#673,0.0039);
#33=CIRCLE('',#677,0.00155);
#34=CIRCLE('',#678,0.00155);
#35=CIRCLE('',#680,0.0039);
#36=ORIENTED_EDGE('',*,*,#188,.T.);
#37=ORIENTED_EDGE('',*,*,#189,.F.);
#38=ORIENTED_EDGE('',*,*,#190,.F.);
#39=ORIENTED_EDGE('',*,*,#191,.T.);
#40=ORIENTED_EDGE('',*,*,#191,.F.);
#41=ORIENTED_EDGE('',*,*,#192,.F.);
#42=ORIENTED_EDGE('',*,*,#193,.T.);
#43=ORIENTED_EDGE('',*,*,#194,.T.);
#44=ORIENTED_EDGE('',*,*,#193,.F.);
#45=ORIENTED_EDGE('',*,*,#195,.F.);
#46=ORIENTED_EDGE('',*,*,#196,.T.);
#47=ORIENTED_EDGE('',*,*,#197,.T.);
#48=ORIENTED_EDGE('',*,*,#198,.F.);
#49=ORIENTED_EDGE('',*,*,#199,.F.);
#50=ORIENTED_EDGE('',*,*,#200,.F.);
#51=ORIENTED_EDGE('',*,*,#201,.F.);
#52=ORIENTED_EDGE('',*,*,#202,.F.);
#53=ORIENTED_EDGE('',*,*,#203,.F.);
#54=ORIENTED_EDGE('',*,*,#204,.F.);
#55=ORIENTED_EDGE('',*,*,#205,.F.);
#56=ORIENTED_EDGE('',*,*,#206,.F.);
#57=ORIENTED_EDGE('',*,*,#207,.F.);
#58=ORIENTED_EDGE('',*,*,#208,.F.);
#59=ORIENTED_EDGE('',*,*,#209,.F.);
#60=ORIENTED_EDGE('',*,*,#210,.F.);
#61=ORIENTED_EDGE('',*,*,#211,.F.);
#62=ORIENTED_EDGE('',*,*,#212,.F.);
#63=ORIENTED_EDGE('',*,*,#213,.F.);
#64=ORIENTED_EDGE('',*,*,#197,.F.);
#65=ORIENTED_EDGE('',*,*,#214,.F.);
#66=ORIENTED_EDGE('',*,*,#188,.F.);
#67=ORIENTED_EDGE('',*,*,#194,.F.);
#68=ORIENTED_EDGE('',*,*,#215,.T.);
#69=ORIENTED_EDGE('',*,*,#216,.T.);
#70=ORIENTED_EDGE('',*,*,#217,.T.);
#71=ORIENTED_EDGE('',*,*,#218,.T.);
#72=ORIENTED_EDGE('',*,*,#219,.T.);
#73=ORIENTED_EDGE('',*,*,#220,.T.);
#74=ORIENTED_EDGE('',*,*,#221,.T.);
#75=ORIENTED_EDGE('',*,*,#222,.T.);
#76=ORIENTED_EDGE('',*,*,#223,.T.);
#77=ORIENTED_EDGE('',*,*,#224,.T.);
#78=ORIENTED_EDGE('',*,*,#225,.T.);
#79=ORIENTED_EDGE('',*,*,#226,.T.);
#80=ORIENTED_EDGE('',*,*,#227,.T.);
#81=ORIENTED_EDGE('',*,*,#228,.T.);
#82=ORIENTED_EDGE('',*,*,#229,.T.);
#83=ORIENTED_EDGE('',*,*,#230,.T.);
#84=ORIENTED_EDGE('',*,*,#231,.F.);
#85=ORIENTED_EDGE('',*,*,#232,.F.);
#86=ORIENTED_EDGE('',*,*,#233,.F.);
#87=ORIENTED_EDGE('',*,*,#234,.F.);
#88=ORIENTED_EDGE('',*,*,#190,.T.);
#89=ORIENTED_EDGE('',*,*,#235,.F.);
#90=ORIENTED_EDGE('',*,*,#195,.T.);
#91=ORIENTED_EDGE('',*,*,#192,.T.);
#92=ORIENTED_EDGE('',*,*,#196,.F.);
#93=ORIENTED_EDGE('',*,*,#235,.T.);
#94=ORIENTED_EDGE('',*,*,#189,.T.);
#95=ORIENTED_EDGE('',*,*,#214,.T.);
#96=ORIENTED_EDGE('',*,*,#236,.T.);
#97=ORIENTED_EDGE('',*,*,#237,.F.);
#98=ORIENTED_EDGE('',*,*,#238,.F.);
#99=ORIENTED_EDGE('',*,*,#234,.T.);
#100=ORIENTED_EDGE('',*,*,#236,.F.);
#101=ORIENTED_EDGE('',*,*,#238,.T.);
#102=ORIENTED_EDGE('',*,*,#237,.T.);
#103=ORIENTED_EDGE('',*,*,#239,.T.);
#104=ORIENTED_EDGE('',*,*,#240,.F.);
#105=ORIENTED_EDGE('',*,*,#241,.F.);
#106=ORIENTED_EDGE('',*,*,#233,.T.);
#107=ORIENTED_EDGE('',*,*,#239,.F.);
#108=ORIENTED_EDGE('',*,*,#241,.T.);
#109=ORIENTED_EDGE('',*,*,#240,.T.);
#110=ORIENTED_EDGE('',*,*,#242,.T.);
#111=ORIENTED_EDGE('',*,*,#243,.F.);
#112=ORIENTED_EDGE('',*,*,#244,.F.);
#113=ORIENTED_EDGE('',*,*,#232,.T.);
#114=ORIENTED_EDGE('',*,*,#242,.F.);
#115=ORIENTED_EDGE('',*,*,#244,.T.);
#116=ORIENTED_EDGE('',*,*,#243,.T.);
#117=ORIENTED_EDGE('',*,*,#245,.T.);
#118=ORIENTED_EDGE('',*,*,#246,.F.);
#119=ORIENTED_EDGE('',*,*,#247,.F.);
#120=ORIENTED_EDGE('',*,*,#231,.T.);
#121=ORIENTED_EDGE('',*,*,#245,.F.);
#122=ORIENTED_EDGE('',*,*,#247,.T.);
#123=ORIENTED_EDGE('',*,*,#246,.T.);
#124=ORIENTED_EDGE('',*,*,#248,.T.);
#125=ORIENTED_EDGE('',*,*,#213,.T.);
#126=ORIENTED_EDGE('',*,*,#249,.F.);
#127=ORIENTED_EDGE('',*,*,#229,.F.);
#128=ORIENTED_EDGE('',*,*,#249,.T.);
#129=ORIENTED_EDGE('',*,*,#212,.T.);
#130=ORIENTED_EDGE('',*,*,#250,.F.);
#131=ORIENTED_EDGE('',*,*,#230,.F.);
#132=ORIENTED_EDGE('',*,*,#250,.T.);
#133=ORIENTED_EDGE('',*,*,#211,.T.);
#134=ORIENTED_EDGE('',*,*,#251,.F.);
#135=ORIENTED_EDGE('',*,*,#227,.F.);
#136=ORIENTED_EDGE('',*,*,#251,.T.);
#137=ORIENTED_EDGE('',*,*,#210,.T.);
#138=ORIENTED_EDGE('',*,*,#248,.F.);
#139=ORIENTED_EDGE('',*,*,#228,.F.);
#140=ORIENTED_EDGE('',*,*,#252,.T.);
#141=ORIENTED_EDGE('',*,*,#209,.T.);
#142=ORIENTED_EDGE('',*,*,#253,.F.);
#143=ORIENTED_EDGE('',*,*,#225,.F.);
#144=ORIENTED_EDGE('',*,*,#253,.T.);
#145=ORIENTED_EDGE('',*,*,#208,.T.);
#146=ORIENTED_EDGE('',*,*,#254,.F.);
#147=ORIENTED_EDGE('',*,*,#226,.F.);
#148=ORIENTED_EDGE('',*,*,#254,.T.);
#149=ORIENTED_EDGE('',*,*,#207,.T.);
#150=ORIENTED_EDGE('',*,*,#255,.F.);
#151=ORIENTED_EDGE('',*,*,#223,.F.);
#152=ORIENTED_EDGE('',*,*,#255,.T.);
#153=ORIENTED_EDGE('',*,*,#206,.T.);
#154=ORIENTED_EDGE('',*,*,#252,.F.);
#155=ORIENTED_EDGE('',*,*,#224,.F.);
#156=ORIENTED_EDGE('',*,*,#256,.T.);
#157=ORIENTED_EDGE('',*,*,#205,.T.);
#158=ORIENTED_EDGE('',*,*,#257,.F.);
#159=ORIENTED_EDGE('',*,*,#221,.F.);
#160=ORIENTED_EDGE('',*,*,#257,.T.);
#161=ORIENTED_EDGE('',*,*,#204,.T.);
#162=ORIENTED_EDGE('',*,*,#258,.F.);
#163=ORIENTED_EDGE('',*,*,#222,.F.);
#164=ORIENTED_EDGE('',*,*,#258,.T.);
#165=ORIENTED_EDGE('',*,*,#203,.T.);
#166=ORIENTED_EDGE('',*,*,#259,.F.);
#167=ORIENTED_EDGE('',*,*,#219,.F.);
#168=ORIENTED_EDGE('',*,*,#259,.T.);
#169=ORIENTED_EDGE('',*,*,#202,.T.);
#170=ORIENTED_EDGE('',*,*,#256,.F.);
#171=ORIENTED_EDGE('',*,*,#220,.F.);
#172=ORIENTED_EDGE('',*,*,#260,.T.);
#173=ORIENTED_EDGE('',*,*,#199,.T.);
#174=ORIENTED_EDGE('',*,*,#261,.F.);
#175=ORIENTED_EDGE('',*,*,#215,.F.);
#176=ORIENTED_EDGE('',*,*,#262,.T.);
#177=ORIENTED_EDGE('',*,*,#200,.T.);
#178=ORIENTED_EDGE('',*,*,#260,.F.);
#179=ORIENTED_EDGE('',*,*,#218,.F.);
#180=ORIENTED_EDGE('',*,*,#263,.T.);
#181=ORIENTED_EDGE('',*,*,#201,.T.);
#182=ORIENTED_EDGE('',*,*,#262,.F.);
#183=ORIENTED_EDGE('',*,*,#217,.F.);
#184=ORIENTED_EDGE('',*,*,#261,.T.);
#185=ORIENTED_EDGE('',*,*,#198,.T.);
#186=ORIENTED_EDGE('',*,*,#263,.F.);
#187=ORIENTED_EDGE('',*,*,#216,.F.);
#188=EDGE_CURVE('',#264,#265,#320,.F.);
#189=EDGE_CURVE('',#266,#265,#321,.T.);
#190=EDGE_CURVE('',#267,#266,#322,.T.);
#191=EDGE_CURVE('',#267,#264,#323,.T.);
#192=EDGE_CURVE('',#268,#267,#324,.T.);
#193=EDGE_CURVE('',#268,#269,#325,.T.);
#194=EDGE_CURVE('',#269,#264,#326,.F.);
#195=EDGE_CURVE('',#270,#268,#327,.T.);
#196=EDGE_CURVE('',#270,#271,#328,.T.);
#197=EDGE_CURVE('',#271,#269,#329,.T.);
#198=EDGE_CURVE('',#272,#273,#330,.F.);
#199=EDGE_CURVE('',#274,#272,#331,.T.);
#200=EDGE_CURVE('',#275,#274,#332,.T.);
#201=EDGE_CURVE('',#273,#275,#333,.T.);
#202=EDGE_CURVE('',#276,#277,#334,.T.);
#203=EDGE_CURVE('',#278,#276,#335,.T.);
#204=EDGE_CURVE('',#279,#278,#336,.T.);
#205=EDGE_CURVE('',#277,#279,#337,.T.);
#206=EDGE_CURVE('',#280,#281,#338,.T.);
#207=EDGE_CURVE('',#282,#280,#339,.T.);
#208=EDGE_CURVE('',#283,#282,#340,.T.);
#209=EDGE_CURVE('',#281,#283,#341,.T.);
#210=EDGE_CURVE('',#284,#285,#342,.T.);
#211=EDGE_CURVE('',#286,#284,#343,.T.);
#212=EDGE_CURVE('',#287,#286,#344,.T.);
#213=EDGE_CURVE('',#285,#287,#345,.T.);
#214=EDGE_CURVE('',#265,#271,#346,.F.);
#215=EDGE_CURVE('',#288,#289,#347,.T.);
#216=EDGE_CURVE('',#289,#290,#348,.T.);
#217=EDGE_CURVE('',#290,#291,#349,.T.);
#218=EDGE_CURVE('',#291,#288,#350,.T.);
#219=EDGE_CURVE('',#292,#293,#351,.T.);
#220=EDGE_CURVE('',#293,#294,#352,.T.);
#221=EDGE_CURVE('',#294,#295,#353,.T.);
#222=EDGE_CURVE('',#295,#292,#354,.T.);
#223=EDGE_CURVE('',#296,#297,#355,.T.);
#224=EDGE_CURVE('',#297,#298,#356,.T.);
#225=EDGE_CURVE('',#298,#299,#357,.T.);
#226=EDGE_CURVE('',#299,#296,#358,.T.);
#227=EDGE_CURVE('',#300,#301,#359,.T.);
#228=EDGE_CURVE('',#301,#302,#360,.T.);
#229=EDGE_CURVE('',#302,#303,#361,.T.);
#230=EDGE_CURVE('',#303,#300,#362,.T.);
#231=EDGE_CURVE('',#304,#304,#20,.T.);
#232=EDGE_CURVE('',#305,#305,#21,.T.);
#233=EDGE_CURVE('',#306,#306,#22,.T.);
#234=EDGE_CURVE('',#307,#307,#23,.T.);
#235=EDGE_CURVE('',#270,#266,#363,.T.);
#236=EDGE_CURVE('',#308,#308,#24,.T.);
#237=EDGE_CURVE('',#309,#309,#25,.T.);
#238=EDGE_CURVE('',#310,#310,#26,.T.);
#239=EDGE_CURVE('',#311,#311,#27,.T.);
#240=EDGE_CURVE('',#312,#312,#28,.T.);
#241=EDGE_CURVE('',#313,#313,#29,.T.);
#242=EDGE_CURVE('',#314,#314,#30,.T.);
#243=EDGE_CURVE('',#315,#315,#31,.T.);
#244=EDGE_CURVE('',#316,#316,#32,.T.);
#245=EDGE_CURVE('',#317,#317,#33,.T.);
#246=EDGE_CURVE('',#318,#318,#34,.T.);
#247=EDGE_CURVE('',#319,#319,#35,.T.);
#248=EDGE_CURVE('',#302,#285,#364,.T.);
#249=EDGE_CURVE('',#303,#287,#365,.T.);
#250=EDGE_CURVE('',#300,#286,#366,.T.);
#251=EDGE_CURVE('',#301,#284,#367,.T.);
#252=EDGE_CURVE('',#298,#281,#368,.T.);
#253=EDGE_CURVE('',#299,#283,#369,.T.);
#254=EDGE_CURVE('',#296,#282,#370,.T.);
#255=EDGE_CURVE('',#297,#280,#371,.T.);
#256=EDGE_CURVE('',#294,#277,#372,.T.);
#257=EDGE_CURVE('',#295,#279,#373,.T.);
#258=EDGE_CURVE('',#292,#278,#374,.T.);
#259=EDGE_CURVE('',#293,#276,#375,.T.);
#260=EDGE_CURVE('',#288,#274,#376,.T.);
#261=EDGE_CURVE('',#289,#272,#377,.T.);
#262=EDGE_CURVE('',#291,#275,#378,.T.);
#263=EDGE_CURVE('',#290,#273,#379,.T.);
#264=VERTEX_POINT('',#872);
#265=VERTEX_POINT('',#873);
#266=VERTEX_POINT('',#875);
#267=VERTEX_POINT('',#877);
#268=VERTEX_POINT('',#881);
#269=VERTEX_POINT('',#883);
#270=VERTEX_POINT('',#887);
#271=VERTEX_POINT('',#889);
#272=VERTEX_POINT('',#893);
#273=VERTEX_POINT('',#894);
#274=VERTEX_POINT('',#896);
#275=VERTEX_POINT('',#898);
#276=VERTEX_POINT('',#901);
#277=VERTEX_POINT('',#902);
#278=VERTEX_POINT('',#904);
#279=VERTEX_POINT('',#906);
#280=VERTEX_POINT('',#909);
#281=VERTEX_POINT('',#910);
#282=VERTEX_POINT('',#912);
#283=VERTEX_POINT('',#914);
#284=VERTEX_POINT('',#917);
#285=VERTEX_POINT('',#918);
#286=VERTEX_POINT('',#920);
#287=VERTEX_POINT('',#922);
#288=VERTEX_POINT('',#927);
#289=VERTEX_POINT('',#928);
#290=VERTEX_POINT('',#930);
#291=VERTEX_POINT('',#932);
#292=VERTEX_POINT('',#935);
#293=VERTEX_POINT('',#936);
#294=VERTEX_POINT('',#938);
#295=VERTEX_POINT('',#940);
#296=VERTEX_POINT('',#943);
#297=VERTEX_POINT('',#944);
#298=VERTEX_POINT('',#946);
#299=VERTEX_POINT('',#948);
#300=VERTEX_POINT('',#951);
#301=VERTEX_POINT('',#952);
#302=VERTEX_POINT('',#954);
#303=VERTEX_POINT('',#956);
#304=VERTEX_POINT('',#959);
#305=VERTEX_POINT('',#961);
#306=VERTEX_POINT('',#963);
#307=VERTEX_POINT('',#965);
#308=VERTEX_POINT('',#970);
#309=VERTEX_POINT('',#972);
#310=VERTEX_POINT('',#975);
#311=VERTEX_POINT('',#980);
#312=VERTEX_POINT('',#982);
#313=VERTEX_POINT('',#985);
#314=VERTEX_POINT('',#990);
#315=VERTEX_POINT('',#992);
#316=VERTEX_POINT('',#995);
#317=VERTEX_POINT('',#1000);
#318=VERTEX_POINT('',#1002);
#319=VERTEX_POINT('',#1005);
#320=LINE('',#871,#380);
#321=LINE('',#874,#381);
#322=LINE('',#876,#382);
#323=LINE('',#878,#383);
#324=LINE('',#880,#384);
#325=LINE('',#882,#385);
#326=LINE('',#884,#386);
#327=LINE('',#886,#387);
#328=LINE('',#888,#388);
#329=LINE('',#890,#389);
#330=LINE('',#892,#390);
#331=LINE('',#895,#391);
#332=LINE('',#897,#392);
#333=LINE('',#899,#393);
#334=LINE('',#900,#394);
#335=LINE('',#903,#395);
#336=LINE('',#905,#396);
#337=LINE('',#907,#397);
#338=LINE('',#908,#398);
#339=LINE('',#911,#399);
#340=LINE('',#913,#400);
#341=LINE('',#915,#401);
#342=LINE('',#916,#402);
#343=LINE('',#919,#403);
#344=LINE('',#921,#404);
#345=LINE('',#923,#405);
#346=LINE('',#924,#406);
#347=LINE('',#926,#407);
#348=LINE('',#929,#408);
#349=LINE('',#931,#409);
#350=LINE('',#933,#410);
#351=LINE('',#934,#411);
#352=LINE('',#937,#412);
#353=LINE('',#939,#413);
#354=LINE('',#941,#414);
#355=LINE('',#942,#415);
#356=LINE('',#945,#416);
#357=LINE('',#947,#417);
#358=LINE('',#949,#418);
#359=LINE('',#950,#419);
#360=LINE('',#953,#420);
#361=LINE('',#955,#421);
#362=LINE('',#957,#422);
#363=LINE('',#966,#423);
#364=LINE('',#1009,#424);
#365=LINE('',#1010,#425);
#366=LINE('',#1012,#426);
#367=LINE('',#1014,#427);
#368=LINE('',#1017,#428);
#369=LINE('',#1018,#429);
#370=LINE('',#1020,#430);
#371=LINE('',#1022,#431);
#372=LINE('',#1025,#432);
#373=LINE('',#1026,#433);
#374=LINE('',#1028,#434);
#375=LINE('',#1030,#435);
#376=LINE('',#1033,#436);
#377=LINE('',#1034,#437);
#378=LINE('',#1036,#438);
#379=LINE('',#1038,#439);
#380=VECTOR('',#703,1.);
#381=VECTOR('',#704,1.);
#382=VECTOR('',#705,1.);
#383=VECTOR('',#706,1.);
#384=VECTOR('',#709,1.);
#385=VECTOR('',#710,1.);
#386=VECTOR('',#711,1.);
#387=VECTOR('',#714,1.);
#388=VECTOR('',#715,1.);
#389=VECTOR('',#716,1.);
#390=VECTOR('',#719,1.);
#391=VECTOR('',#720,1.);
#392=VECTOR('',#721,1.);
#393=VECTOR('',#722,1.);
#394=VECTOR('',#723,1.);
#395=VECTOR('',#724,1.);
#396=VECTOR('',#725,1.);
#397=VECTOR('',#726,1.);
#398=VECTOR('',#727,1.);
#399=VECTOR('',#728,1.);
#400=VECTOR('',#729,1.);
#401=VECTOR('',#730,1.);
#402=VECTOR('',#731,1.);
#403=VECTOR('',#732,1.);
#404=VECTOR('',#733,1.);
#405=VECTOR('',#734,1.);
#406=VECTOR('',#735,1.);
#407=VECTOR('',#738,1.);
#408=VECTOR('',#739,1.);
#409=VECTOR('',#740,1.);
#410=VECTOR('',#741,1.);
#411=VECTOR('',#742,1.);
#412=VECTOR('',#743,1.);
#413=VECTOR('',#744,1.);
#414=VECTOR('',#745,1.);
#415=VECTOR('',#746,1.);
#416=VECTOR('',#747,1.);
#417=VECTOR('',#748,1.);
#418=VECTOR('',#749,1.);
#419=VECTOR('',#750,1.);
#420=VECTOR('',#751,1.);
#421=VECTOR('',#752,1.);
#422=VECTOR('',#753,1.);
#423=VECTOR('',#762,1.);
#424=VECTOR('',#823,1.);
#425=VECTOR('',#824,1.);
#426=VECTOR('',#827,1.);
#427=VECTOR('',#830,1.);
#428=VECTOR('',#835,1.);
#429=VECTOR('',#836,1.);
#430=VECTOR('',#839,1.);
#431=VECTOR('',#842,1.);
#432=VECTOR('',#847,1.);
#433=VECTOR('',#848,1.);
#434=VECTOR('',#851,1.);
#435=VECTOR('',#854,1.);
#436=VECTOR('',#859,1.);
#437=VECTOR('',#860,1.);
#438=VECTOR('',#863,1.);
#439=VECTOR('',#866,1.);
#440=EDGE_LOOP('',(#36,#37,#38,#39));
#441=EDGE_LOOP('',(#40,#41,#42,#43));
#442=EDGE_LOOP('',(#44,#45,#46,#47));
#443=EDGE_LOOP('',(#48,#49,#50,#51));
#444=EDGE_LOOP('',(#52,#53,#54,#55));
#445=EDGE_LOOP('',(#56,#57,#58,#59));
#446=EDGE_LOOP('',(#60,#61,#62,#63));
#447=EDGE_LOOP('',(#64,#65,#66,#67));
#448=EDGE_LOOP('',(#68,#69,#70,#71));
#449=EDGE_LOOP('',(#72,#73,#74,#75));
#450=EDGE_LOOP('',(#76,#77,#78,#79));
#451=EDGE_LOOP('',(#80,#81,#82,#83));
#452=EDGE_LOOP('',(#84));
#453=EDGE_LOOP('',(#85));
#454=EDGE_LOOP('',(#86));
#455=EDGE_LOOP('',(#87));
#456=EDGE_LOOP('',(#88,#89,#90,#91));
#457=EDGE_LOOP('',(#92,#93,#94,#95));
#458=EDGE_LOOP('',(#96));
#459=EDGE_LOOP('',(#97));
#460=EDGE_LOOP('',(#98));
#461=EDGE_LOOP('',(#99));
#462=EDGE_LOOP('',(#100));
#463=EDGE_LOOP('',(#101));
#464=EDGE_LOOP('',(#102));
#465=EDGE_LOOP('',(#103));
#466=EDGE_LOOP('',(#104));
#467=EDGE_LOOP('',(#105));
#468=EDGE_LOOP('',(#106));
#469=EDGE_LOOP('',(#107));
#470=EDGE_LOOP('',(#108));
#471=EDGE_LOOP('',(#109));
#472=EDGE_LOOP('',(#110));
#473=EDGE_LOOP('',(#111));
#474=EDGE_LOOP('',(#112));
#475=EDGE_LOOP('',(#113));
#476=EDGE_LOOP('',(#114));
#477=EDGE_LOOP('',(#115));
#478=EDGE_LOOP('',(#116));
#479=EDGE_LOOP('',(#117));
#480=EDGE_LOOP('',(#118));
#481=EDGE_LOOP('',(#119));
#482=EDGE_LOOP('',(#120));
#483=EDGE_LOOP('',(#121));
#484=EDGE_LOOP('',(#122));
#485=EDGE_LOOP('',(#123));
#486=EDGE_LOOP('',(#124,#125,#126,#127));
#487=EDGE_LOOP('',(#128,#129,#130,#131));
#488=EDGE_LOOP('',(#132,#133,#134,#135));
#489=EDGE_LOOP('',(#136,#137,#138,#139));
#490=EDGE_LOOP('',(#140,#141,#142,#143));
#491=EDGE_LOOP('',(#144,#145,#146,#147));
#492=EDGE_LOOP('',(#148,#149,#150,#151));
#493=EDGE_LOOP('',(#152,#153,#154,#155));
#494=EDGE_LOOP('',(#156,#157,#158,#159));
#495=EDGE_LOOP('',(#160,#161,#162,#163));
#496=EDGE_LOOP('',(#164,#165,#166,#167));
#497=EDGE_LOOP('',(#168,#169,#170,#171));
#498=EDGE_LOOP('',(#172,#173,#174,#175));
#499=EDGE_LOOP('',(#176,#177,#178,#179));
#500=EDGE_LOOP('',(#180,#181,#182,#183));
#501=EDGE_LOOP('',(#184,#185,#186,#187));
#502=FACE_BOUND('',#440,.T.);
#503=FACE_BOUND('',#441,.T.);
#504=FACE_BOUND('',#442,.T.);
#505=FACE_BOUND('',#443,.T.);
#506=FACE_BOUND('',#444,.T.);
#507=FACE_BOUND('',#445,.T.);
#508=FACE_BOUND('',#446,.T.);
#509=FACE_BOUND('',#447,.T.);
#510=FACE_BOUND('',#448,.T.);
#511=FACE_BOUND('',#449,.T.);
#512=FACE_BOUND('',#450,.T.);
#513=FACE_BOUND('',#451,.T.);
#514=FACE_BOUND('',#452,.T.);
#515=FACE_BOUND('',#453,.T.);
#516=FACE_BOUND('',#454,.T.);
#517=FACE_BOUND('',#455,.T.);
#518=FACE_BOUND('',#456,.T.);
#519=FACE_BOUND('',#457,.T.);
#520=FACE_BOUND('',#458,.T.);
#521=FACE_BOUND('',#459,.T.);
#522=FACE_BOUND('',#460,.T.);
#523=FACE_BOUND('',#461,.T.);
#524=FACE_BOUND('',#462,.T.);
#525=FACE_BOUND('',#463,.T.);
#526=FACE_BOUND('',#464,.T.);
#527=FACE_BOUND('',#465,.T.);
#528=FACE_BOUND('',#466,.T.);
#529=FACE_BOUND('',#467,.T.);
#530=FACE_BOUND('',#468,.T.);
#531=FACE_BOUND('',#469,.T.);
#532=FACE_BOUND('',#470,.T.);
#533=FACE_BOUND('',#471,.T.);
#534=FACE_BOUND('',#472,.T.);
#535=FACE_BOUND('',#473,.T.);
#536=FACE_BOUND('',#474,.T.);
#537=FACE_BOUND('',#475,.T.);
#538=FACE_BOUND('',#476,.T.);
#539=FACE_BOUND('',#477,.T.);
#540=FACE_BOUND('',#478,.T.);
#541=FACE_BOUND('',#479,.T.);
#542=FACE_BOUND('',#480,.T.);
#543=FACE_BOUND('',#481,.T.);
#544=FACE_BOUND('',#482,.T.);
#545=FACE_BOUND('',#483,.T.);
#546=FACE_BOUND('',#484,.T.);
#547=FACE_BOUND('',#485,.T.);
#548=FACE_BOUND('',#486,.T.);
#549=FACE_BOUND('',#487,.T.);
#550=FACE_BOUND('',#488,.T.);
#551=FACE_BOUND('',#489,.T.);
#552=FACE_BOUND('',#490,.T.);
#553=FACE_BOUND('',#491,.T.);
#554=FACE_BOUND('',#492,.T.);
#555=FACE_BOUND('',#493,.T.);
#556=FACE_BOUND('',#494,.T.);
#557=FACE_BOUND('',#495,.T.);
#558=FACE_BOUND('',#496,.T.);
#559=FACE_BOUND('',#497,.T.);
#560=FACE_BOUND('',#498,.T.);
#561=FACE_BOUND('',#499,.T.);
#562=FACE_BOUND('',#500,.T.);
#563=FACE_BOUND('',#501,.T.);
#564=PLANE('',#645);
#565=PLANE('',#646);
#566=PLANE('',#647);
#567=PLANE('',#648);
#568=PLANE('',#649);
#569=PLANE('',#654);
#570=PLANE('',#660);
#571=PLANE('',#661);
#572=PLANE('',#667);
#573=PLANE('',#668);
#574=PLANE('',#674);
#575=PLANE('',#675);
#576=PLANE('',#681);
#577=PLANE('',#682);
#578=PLANE('',#683);
#579=PLANE('',#684);
#580=PLANE('',#685);
#581=PLANE('',#686);
#582=PLANE('',#687);
#583=PLANE('',#688);
#584=PLANE('',#689);
#585=PLANE('',#690);
#586=PLANE('',#691);
#587=PLANE('',#692);
#588=PLANE('',#693);
#589=PLANE('',#694);
#590=PLANE('',#695);
#591=PLANE('',#696);
#592=PLANE('',#697);
#593=PLANE('',#698);
#594=ADVANCED_FACE('',(#502),#564,.F.);
#595=ADVANCED_FACE('',(#503),#565,.F.);
#596=ADVANCED_FACE('',(#504),#566,.F.);
#597=ADVANCED_FACE('',(#505,#506,#507,#508,#509),#567,.T.);
#598=ADVANCED_FACE('',(#510,#511,#512,#513,#514,#515,#516,#517,#518),#568,
 .F.);
#599=ADVANCED_FACE('',(#519),#569,.T.);
#600=ADVANCED_FACE('',(#520,#521),#12,.F.);
#601=ADVANCED_FACE('',(#522,#523),#13,.T.);
#602=ADVANCED_FACE('',(#524,#525),#570,.T.);
#603=ADVANCED_FACE('',(#526),#571,.F.);
#604=ADVANCED_FACE('',(#527,#528),#14,.F.);
#605=ADVANCED_FACE('',(#529,#530),#15,.T.);
#606=ADVANCED_FACE('',(#531,#532),#572,.T.);
#607=ADVANCED_FACE('',(#533),#573,.F.);
#608=ADVANCED_FACE('',(#534,#535),#16,.F.);
#609=ADVANCED_FACE('',(#536,#537),#17,.T.);
#610=ADVANCED_FACE('',(#538,#539),#574,.T.);
#611=ADVANCED_FACE('',(#540),#575,.F.);
#612=ADVANCED_FACE('',(#541,#542),#18,.F.);
#613=ADVANCED_FACE('',(#543,#544),#19,.T.);
#614=ADVANCED_FACE('',(#545,#546),#576,.T.);
#615=ADVANCED_FACE('',(#547),#577,.F.);
#616=ADVANCED_FACE('',(#548),#578,.F.);
#617=ADVANCED_FACE('',(#549),#579,.F.);
#618=ADVANCED_FACE('',(#550),#580,.F.);
#619=ADVANCED_FACE('',(#551),#581,.F.);
#620=ADVANCED_FACE('',(#552),#582,.F.);
#621=ADVANCED_FACE('',(#553),#583,.F.);
#622=ADVANCED_FACE('',(#554),#584,.F.);
#623=ADVANCED_FACE('',(#555),#585,.F.);
#624=ADVANCED_FACE('',(#556),#586,.F.);
#625=ADVANCED_FACE('',(#557),#587,.F.);
#626=ADVANCED_FACE('',(#558),#588,.F.);
#627=ADVANCED_FACE('',(#559),#589,.F.);
#628=ADVANCED_FACE('',(#560),#590,.F.);
#629=ADVANCED_FACE('',(#561),#591,.F.);
#630=ADVANCED_FACE('',(#562),#592,.F.);
#631=ADVANCED_FACE('',(#563),#593,.F.);
#632=CLOSED_SHELL('',(#594,#595,#596,#597,#598,#599,#600,#601,#602,#603,
#604,#605,#606,#607,#608,#609,#610,#611,#612,#613,#614,#615,#616,#617,#618,
#619,#620,#621,#622,#623,#624,#625,#626,#627,#628,#629,#630,#631));
#633=STYLED_ITEM('',(#634),#641);
#634=PRESENTATION_STYLE_ASSIGNMENT((#635));
#635=SURFACE_STYLE_USAGE(.BOTH.,#636);
#636=SURFACE_SIDE_STYLE('',(#637));
#637=SURFACE_STYLE_FILL_AREA(#638);
#638=FILL_AREA_STYLE('',(#639));
#639=FILL_AREA_STYLE_COLOUR('',#640);
#640=COLOUR_RGB('',0.231372549019608,0.380392156862745,0.705882352941177);
#641=MANIFOLD_SOLID_BREP('Part 11',#632);
#642=SHAPE_DEFINITION_REPRESENTATION(#1046,#643);
#643=SHAPE_REPRESENTATION('Part 11',(#644),#1041);
#644=AXIS2_PLACEMENT_3D('',#869,#699,#700);
#645=AXIS2_PLACEMENT_3D('',#870,#701,#702);
#646=AXIS2_PLACEMENT_3D('',#879,#707,#708);
#647=AXIS2_PLACEMENT_3D('',#885,#712,#713);
#648=AXIS2_PLACEMENT_3D('',#891,#717,#718);
#649=AXIS2_PLACEMENT_3D('',#925,#736,#737);
#650=AXIS2_PLACEMENT_3D('',#958,#754,#755);
#651=AXIS2_PLACEMENT_3D('',#960,#756,#757);
#652=AXIS2_PLACEMENT_3D('',#962,#758,#759);
#653=AXIS2_PLACEMENT_3D('',#964,#760,#761);
#654=AXIS2_PLACEMENT_3D('',#967,#763,#764);
#655=AXIS2_PLACEMENT_3D('',#968,#765,#766);
#656=AXIS2_PLACEMENT_3D('',#969,#767,#768);
#657=AXIS2_PLACEMENT_3D('',#971,#769,#770);
#658=AXIS2_PLACEMENT_3D('',#973,#771,#772);
#659=AXIS2_PLACEMENT_3D('',#974,#773,#774);
#660=AXIS2_PLACEMENT_3D('',#976,#775,#776);
#661=AXIS2_PLACEMENT_3D('',#977,#777,#778);
#662=AXIS2_PLACEMENT_3D('',#978,#779,#780);
#663=AXIS2_PLACEMENT_3D('',#979,#781,#782);
#664=AXIS2_PLACEMENT_3D('',#981,#783,#784);
#665=AXIS2_PLACEMENT_3D('',#983,#785,#786);
#666=AXIS2_PLACEMENT_3D('',#984,#787,#788);
#667=AXIS2_PLACEMENT_3D('',#986,#789,#790);
#668=AXIS2_PLACEMENT_3D('',#987,#791,#792);
#669=AXIS2_PLACEMENT_3D('',#988,#793,#794);
#670=AXIS2_PLACEMENT_3D('',#989,#795,#796);
#671=AXIS2_PLACEMENT_3D('',#991,#797,#798);
#672=AXIS2_PLACEMENT_3D('',#993,#799,#800);
#673=AXIS2_PLACEMENT_3D('',#994,#801,#802);
#674=AXIS2_PLACEMENT_3D('',#996,#803,#804);
#675=AXIS2_PLACEMENT_3D('',#997,#805,#806);
#676=AXIS2_PLACEMENT_3D('',#998,#807,#808);
#677=AXIS2_PLACEMENT_3D('',#999,#809,#810);
#678=AXIS2_PLACEMENT_3D('',#1001,#811,#812);
#679=AXIS2_PLACEMENT_3D('',#1003,#813,#814);
#680=AXIS2_PLACEMENT_3D('',#1004,#815,#816);
#681=AXIS2_PLACEMENT_3D('',#1006,#817,#818);
#682=AXIS2_PLACEMENT_3D('',#1007,#819,#820);
#683=AXIS2_PLACEMENT_3D('',#1008,#821,#822);
#684=AXIS2_PLACEMENT_3D('',#1011,#825,#826);
#685=AXIS2_PLACEMENT_3D('',#1013,#828,#829);
#686=AXIS2_PLACEMENT_3D('',#1015,#831,#832);
#687=AXIS2_PLACEMENT_3D('',#1016,#833,#834);
#688=AXIS2_PLACEMENT_3D('',#1019,#837,#838);
#689=AXIS2_PLACEMENT_3D('',#1021,#840,#841);
#690=AXIS2_PLACEMENT_3D('',#1023,#843,#844);
#691=AXIS2_PLACEMENT_3D('',#1024,#845,#846);
#692=AXIS2_PLACEMENT_3D('',#1027,#849,#850);
#693=AXIS2_PLACEMENT_3D('',#1029,#852,#853);
#694=AXIS2_PLACEMENT_3D('',#1031,#855,#856);
#695=AXIS2_PLACEMENT_3D('',#1032,#857,#858);
#696=AXIS2_PLACEMENT_3D('',#1035,#861,#862);
#697=AXIS2_PLACEMENT_3D('',#1037,#864,#865);
#698=AXIS2_PLACEMENT_3D('',#1039,#867,#868);
#699=DIRECTION('',(0.,0.,1.));
#700=DIRECTION('',(1.,0.,0.));
#701=DIRECTION('',(0.,1.,0.));
#702=DIRECTION('',(1.,0.,1.22464679914735E-16));
#703=DIRECTION('',(-1.,0.,-1.22464679914735E-16));
#704=DIRECTION('',(1.22464679914735E-16,0.,-1.));
#705=DIRECTION('',(1.,0.,1.22464679914735E-16));
#706=DIRECTION('',(1.22464679914735E-16,0.,-1.));
#707=DIRECTION('',(1.,0.,1.22464679914735E-16));
#708=DIRECTION('',(0.,-1.,0.));
#709=DIRECTION('',(0.,-1.,0.));
#710=DIRECTION('',(1.22464679914735E-16,0.,-1.));
#711=DIRECTION('',(0.,1.,0.));
#712=DIRECTION('',(0.,-1.,0.));
#713=DIRECTION('',(-1.,0.,-1.22464679914735E-16));
#714=DIRECTION('',(-1.,0.,-1.22464679914735E-16));
#715=DIRECTION('',(1.22464679914735E-16,0.,-1.));
#716=DIRECTION('',(-1.,0.,-1.22464679914735E-16));
#717=DIRECTION('',(1.22464679914735E-16,0.,-1.));
#718=DIRECTION('',(-1.,0.,-1.22464679914735E-16));
#719=DIRECTION('',(1.,0.,1.22464679914735E-16));
#720=DIRECTION('',(0.,-1.,0.));
#721=DIRECTION('',(1.,0.,1.22464679914735E-16));
#722=DIRECTION('',(0.,1.,0.));
#723=DIRECTION('',(0.,1.,0.));
#724=DIRECTION('',(-1.,0.,-1.22464679914735E-16));
#725=DIRECTION('',(0.,-1.,0.));
#726=DIRECTION('',(1.,0.,1.22464679914735E-16));
#727=DIRECTION('',(0.,1.,0.));
#728=DIRECTION('',(-1.,0.,-1.22464679914735E-16));
#729=DIRECTION('',(0.,-1.,0.));
#730=DIRECTION('',(1.,0.,1.22464679914735E-16));
#731=DIRECTION('',(0.,1.,0.));
#732=DIRECTION('',(-1.,0.,-1.22464679914735E-16));
#733=DIRECTION('',(0.,-1.,0.));
#734=DIRECTION('',(1.,0.,1.22464679914735E-16));
#735=DIRECTION('',(0.,-1.,0.));
#736=DIRECTION('',(1.22464679914735E-16,0.,-1.));
#737=DIRECTION('',(-1.,0.,-1.22464679914735E-16));
#738=DIRECTION('',(0.,-1.,0.));
#739=DIRECTION('',(-1.,0.,-1.22464679914735E-16));
#740=DIRECTION('',(0.,1.,0.));
#741=DIRECTION('',(1.,0.,1.22464679914735E-16));
#742=DIRECTION('',(-1.,0.,-1.22464679914735E-16));
#743=DIRECTION('',(0.,1.,0.));
#744=DIRECTION('',(1.,0.,1.22464679914735E-16));
#745=DIRECTION('',(0.,-1.,0.));
#746=DIRECTION('',(-1.,0.,-1.22464679914735E-16));
#747=DIRECTION('',(0.,1.,0.));
#748=DIRECTION('',(1.,0.,1.22464679914735E-16));
#749=DIRECTION('',(0.,-1.,0.));
#750=DIRECTION('',(-1.,0.,-1.22464679914735E-16));
#751=DIRECTION('',(0.,1.,0.));
#752=DIRECTION('',(1.,0.,1.22464679914735E-16));
#753=DIRECTION('',(0.,-1.,0.));
#754=DIRECTION('',(-1.22464679914735E-16,0.,1.));
#755=DIRECTION('',(-1.,0.,-1.22464679914735E-16));
#756=DIRECTION('',(-1.22464679914735E-16,0.,1.));
#757=DIRECTION('',(-1.,0.,-1.22464679914735E-16));
#758=DIRECTION('',(-1.22464679914735E-16,0.,1.));
#759=DIRECTION('',(-1.,0.,-1.22464679914735E-16));
#760=DIRECTION('',(-1.22464679914735E-16,0.,1.));
#761=DIRECTION('',(-1.,0.,-1.22464679914735E-16));
#762=DIRECTION('',(0.,-1.,0.));
#763=DIRECTION('',(1.,0.,1.22464679914735E-16));
#764=DIRECTION('',(0.,-1.,0.));
#765=DIRECTION('',(1.22464679914735E-16,0.,-1.));
#766=DIRECTION('',(-1.,0.,-1.22464679914735E-16));
#767=DIRECTION('',(-1.22464679914735E-16,0.,1.));
#768=DIRECTION('',(-1.,0.,-1.22464679914735E-16));
#769=DIRECTION('',(-1.22464679914735E-16,0.,1.));
#770=DIRECTION('',(-1.,0.,-1.22464679914735E-16));
#771=DIRECTION('',(1.22464679914735E-16,0.,-1.));
#772=DIRECTION('',(-1.,0.,-1.22464679914735E-16));
#773=DIRECTION('',(-1.22464679914735E-16,0.,1.));
#774=DIRECTION('',(-1.,0.,-1.22464679914735E-16));
#775=DIRECTION('',(-1.22464679914735E-16,0.,1.));
#776=DIRECTION('',(1.,0.,1.22464679914735E-16));
#777=DIRECTION('',(1.22464679914735E-16,0.,-1.));
#778=DIRECTION('',(-1.,0.,-1.22464679914735E-16));
#779=DIRECTION('',(1.22464679914735E-16,0.,-1.));
#780=DIRECTION('',(-1.,0.,-1.22464679914735E-16));
#781=DIRECTION('',(-1.22464679914735E-16,0.,1.));
#782=DIRECTION('',(-1.,0.,-1.22464679914735E-16));
#783=DIRECTION('',(-1.22464679914735E-16,0.,1.));
#784=DIRECTION('',(-1.,0.,-1.22464679914735E-16));
#785=DIRECTION('',(1.22464679914735E-16,0.,-1.));
#786=DIRECTION('',(-1.,0.,-1.22464679914735E-16));
#787=DIRECTION('',(-1.22464679914735E-16,0.,1.));
#788=DIRECTION('',(-1.,0.,-1.22464679914735E-16));
#789=DIRECTION('',(-1.22464679914735E-16,0.,1.));
#790=DIRECTION('',(1.,0.,1.22464679914735E-16));
#791=DIRECTION('',(1.22464679914735E-16,0.,-1.));
#792=DIRECTION('',(-1.,0.,-1.22464679914735E-16));
#793=DIRECTION('',(1.22464679914735E-16,0.,-1.));
#794=DIRECTION('',(-1.,0.,-1.22464679914735E-16));
#795=DIRECTION('',(-1.22464679914735E-16,0.,1.));
#796=DIRECTION('',(-1.,0.,-1.22464679914735E-16));
#797=DIRECTION('',(-1.22464679914735E-16,0.,1.));
#798=DIRECTION('',(-1.,0.,-1.22464679914735E-16));
#799=DIRECTION('',(1.22464679914735E-16,0.,-1.));
#800=DIRECTION('',(-1.,0.,-1.22464679914735E-16));
#801=DIRECTION('',(-1.22464679914735E-16,0.,1.));
#802=DIRECTION('',(-1.,0.,-1.22464679914735E-16));
#803=DIRECTION('',(-1.22464679914735E-16,0.,1.));
#804=DIRECTION('',(1.,0.,1.22464679914735E-16));
#805=DIRECTION('',(1.22464679914735E-16,0.,-1.));
#806=DIRECTION('',(-1.,0.,-1.22464679914735E-16));
#807=DIRECTION('',(1.22464679914735E-16,0.,-1.));
#808=DIRECTION('',(-1.,0.,-1.22464679914735E-16));
#809=DIRECTION('',(-1.22464679914735E-16,0.,1.));
#810=DIRECTION('',(-1.,0.,-1.22464679914735E-16));
#811=DIRECTION('',(-1.22464679914735E-16,0.,1.));
#812=DIRECTION('',(-1.,0.,-1.22464679914735E-16));
#813=DIRECTION('',(1.22464679914735E-16,0.,-1.));
#814=DIRECTION('',(-1.,0.,-1.22464679914735E-16));
#815=DIRECTION('',(-1.22464679914735E-16,0.,1.));
#816=DIRECTION('',(-1.,0.,-1.22464679914735E-16));
#817=DIRECTION('',(-1.22464679914735E-16,0.,1.));
#818=DIRECTION('',(1.,0.,1.22464679914735E-16));
#819=DIRECTION('',(1.22464679914735E-16,0.,-1.));
#820=DIRECTION('',(-1.,0.,-1.22464679914735E-16));
#821=DIRECTION('',(0.,1.,0.));
#822=DIRECTION('',(1.22464679914735E-16,0.,-1.));
#823=DIRECTION('',(1.22464679914735E-16,0.,-1.));
#824=DIRECTION('',(1.22464679914735E-16,0.,-1.));
#825=DIRECTION('',(1.,0.,1.22464679914735E-16));
#826=DIRECTION('',(1.22464679914735E-16,0.,-1.));
#827=DIRECTION('',(1.22464679914735E-16,0.,-1.));
#828=DIRECTION('',(0.,-1.,0.));
#829=DIRECTION('',(-1.22464679914735E-16,0.,1.));
#830=DIRECTION('',(1.22464679914735E-16,0.,-1.));
#831=DIRECTION('',(-1.,0.,-1.22464679914735E-16));
#832=DIRECTION('',(-1.22464679914735E-16,0.,1.));
#833=DIRECTION('',(0.,1.,0.));
#834=DIRECTION('',(1.22464679914735E-16,0.,-1.));
#835=DIRECTION('',(1.22464679914735E-16,0.,-1.));
#836=DIRECTION('',(1.22464679914735E-16,0.,-1.));
#837=DIRECTION('',(1.,0.,1.22464679914735E-16));
#838=DIRECTION('',(1.22464679914735E-16,0.,-1.));
#839=DIRECTION('',(1.22464679914735E-16,0.,-1.));
#840=DIRECTION('',(0.,-1.,0.));
#841=DIRECTION('',(-1.22464679914735E-16,0.,1.));
#842=DIRECTION('',(1.22464679914735E-16,0.,-1.));
#843=DIRECTION('',(-1.,0.,-1.22464679914735E-16));
#844=DIRECTION('',(-1.22464679914735E-16,0.,1.));
#845=DIRECTION('',(0.,1.,0.));
#846=DIRECTION('',(1.22464679914735E-16,0.,-1.));
#847=DIRECTION('',(1.22464679914735E-16,0.,-1.));
#848=DIRECTION('',(1.22464679914735E-16,0.,-1.));
#849=DIRECTION('',(1.,0.,1.22464679914735E-16));
#850=DIRECTION('',(1.22464679914735E-16,0.,-1.));
#851=DIRECTION('',(1.22464679914735E-16,0.,-1.));
#852=DIRECTION('',(0.,-1.,0.));
#853=DIRECTION('',(-1.22464679914735E-16,0.,1.));
#854=DIRECTION('',(1.22464679914735E-16,0.,-1.));
#855=DIRECTION('',(-1.,0.,-1.22464679914735E-16));
#856=DIRECTION('',(-1.22464679914735E-16,0.,1.));
#857=DIRECTION('',(1.,0.,1.22464679914735E-16));
#858=DIRECTION('',(1.22464679914735E-16,0.,-1.));
#859=DIRECTION('',(1.22464679914735E-16,0.,-1.));
#860=DIRECTION('',(1.22464679914735E-16,0.,-1.));
#861=DIRECTION('',(0.,1.,0.));
#862=DIRECTION('',(1.22464679914735E-16,0.,-1.));
#863=DIRECTION('',(1.22464679914735E-16,0.,-1.));
#864=DIRECTION('',(-1.,0.,-1.22464679914735E-16));
#865=DIRECTION('',(-1.22464679914735E-16,0.,1.));
#866=DIRECTION('',(1.22464679914735E-16,0.,-1.));
#867=DIRECTION('',(0.,-1.,0.));
#868=DIRECTION('',(-1.22464679914735E-16,0.,1.));
#869=CARTESIAN_POINT('',(0.,0.,0.));
#870=CARTESIAN_POINT('',(0.134899457730353,-0.0949074424437014,-0.00593902799963949));
#871=CARTESIAN_POINT('',(-0.00260054226964713,-0.0949074424437014,-0.00793902799963951));
#872=CARTESIAN_POINT('',(-0.0403005422696471,-0.0949074424437014,-0.00793902799963951));
#873=CARTESIAN_POINT('',(0.0350994577303529,-0.0949074424437014,-0.0079390279996395));
#874=CARTESIAN_POINT('',(0.0350994577303529,-0.0949074424437014,-0.0059390279996395));
#875=CARTESIAN_POINT('',(0.0350994577303529,-0.0949074424437014,-0.0059390279996395));
#876=CARTESIAN_POINT('',(0.134899457730353,-0.0949074424437014,-0.00593902799963949));
#877=CARTESIAN_POINT('',(-0.0403005422696471,-0.0949074424437014,-0.00593902799963951));
#878=CARTESIAN_POINT('',(-0.0403005422696471,-0.0949074424437014,-0.00593902799963951));
#879=CARTESIAN_POINT('',(-0.0403005422696471,0.0237925575562985,-0.00593902799963951));
#880=CARTESIAN_POINT('',(-0.0403005422696471,0.0237925575562985,-0.00593902799963951));
#881=CARTESIAN_POINT('',(-0.0403005422696471,-0.0350074424437015,-0.00593902799963951));
#882=CARTESIAN_POINT('',(-0.0403005422696471,-0.0350074424437015,-0.00593902799963951));
#883=CARTESIAN_POINT('',(-0.0403005422696471,-0.0350074424437015,-0.00793902799963951));
#884=CARTESIAN_POINT('',(-0.0403005422696471,-0.0649574424437014,-0.00793902799963951));
#885=CARTESIAN_POINT('',(0.134899457730353,-0.0350074424437015,-0.00593902799963949));
#886=CARTESIAN_POINT('',(0.134899457730353,-0.0350074424437015,-0.00593902799963949));
#887=CARTESIAN_POINT('',(0.0350994577303529,-0.0350074424437015,-0.0059390279996395));
#888=CARTESIAN_POINT('',(0.0350994577303529,-0.0350074424437015,-0.0059390279996395));
#889=CARTESIAN_POINT('',(0.0350994577303529,-0.0350074424437015,-0.0079390279996395));
#890=CARTESIAN_POINT('',(-0.00260054226964713,-0.0350074424437015,-0.00793902799963951));
#891=CARTESIAN_POINT('',(-0.00260054226964713,-0.0649574424437014,-0.00793902799963951));
#892=CARTESIAN_POINT('',(0.00539406640630677,-0.0642721111691046,-0.00793902799963951));
#893=CARTESIAN_POINT('',(0.0177240664063068,-0.0642721111691046,-0.0079390279996395));
#894=CARTESIAN_POINT('',(-0.00693593359369323,-0.0642721111691046,-0.00793902799963951));
#895=CARTESIAN_POINT('',(0.0177240664063068,-0.0576321111691046,-0.0079390279996395));
#896=CARTESIAN_POINT('',(0.0177240664063068,-0.0509921111691046,-0.0079390279996395));
#897=CARTESIAN_POINT('',(0.00539406640630677,-0.0509921111691046,-0.00793902799963951));
#898=CARTESIAN_POINT('',(-0.00693593359369323,-0.0509921111691046,-0.00793902799963951));
#899=CARTESIAN_POINT('',(-0.00693593359369323,-0.0576321111691046,-0.00793902799963951));
#900=CARTESIAN_POINT('',(-0.02503833399117,-0.0816729217574,-0.00793902799963951));
#901=CARTESIAN_POINT('',(-0.02503833399117,-0.0880229217574,-0.00793902799963951));
#902=CARTESIAN_POINT('',(-0.02503833399117,-0.0753229217574,-0.00793902799963951));
#903=CARTESIAN_POINT('',(-0.0186883339911699,-0.0880229217574,-0.00793902799963951));
#904=CARTESIAN_POINT('',(-0.01233833399117,-0.0880229217574,-0.00793902799963951));
#905=CARTESIAN_POINT('',(-0.01233833399117,-0.0816729217574,-0.00793902799963951));
#906=CARTESIAN_POINT('',(-0.01233833399117,-0.0753229217574,-0.00793902799963951));
#907=CARTESIAN_POINT('',(-0.0186883339911699,-0.0753229217574,-0.00793902799963951));
#908=CARTESIAN_POINT('',(-0.00900355570472454,-0.0817064045597616,-0.00793902799963951));
#909=CARTESIAN_POINT('',(-0.00900355570472454,-0.0880564045597616,-0.00793902799963951));
#910=CARTESIAN_POINT('',(-0.00900355570472454,-0.0753564045597616,-0.00793902799963951));
#911=CARTESIAN_POINT('',(-0.00265355570472453,-0.0880564045597616,-0.00793902799963951));
#912=CARTESIAN_POINT('',(0.00369644429527546,-0.0880564045597616,-0.00793902799963951));
#913=CARTESIAN_POINT('',(0.00369644429527546,-0.0817064045597616,-0.00793902799963951));
#914=CARTESIAN_POINT('',(0.00369644429527546,-0.0753564045597616,-0.00793902799963951));
#915=CARTESIAN_POINT('',(-0.00265355570472453,-0.0753564045597616,-0.00793902799963951));
#916=CARTESIAN_POINT('',(0.0070628235897725,-0.0817016739904348,-0.00793902799963951));
#917=CARTESIAN_POINT('',(0.0070628235897725,-0.0880516739904348,-0.00793902799963951));
#918=CARTESIAN_POINT('',(0.0070628235897725,-0.0753516739904348,-0.00793902799963951));
#919=CARTESIAN_POINT('',(0.0134128235897725,-0.0880516739904348,-0.00793902799963951));
#920=CARTESIAN_POINT('',(0.0197628235897725,-0.0880516739904348,-0.0079390279996395));
#921=CARTESIAN_POINT('',(0.0197628235897725,-0.0817016739904348,-0.0079390279996395));
#922=CARTESIAN_POINT('',(0.0197628235897725,-0.0753516739904348,-0.0079390279996395));
#923=CARTESIAN_POINT('',(0.0134128235897725,-0.0753516739904348,-0.00793902799963951));
#924=CARTESIAN_POINT('',(0.0350994577303529,0.0237925575562985,-0.0079390279996395));
#925=CARTESIAN_POINT('',(-0.00260054226964713,-0.0649574424437014,-0.00593902799963951));
#926=CARTESIAN_POINT('',(0.0177240664063068,-0.0649574424437014,-0.0059390279996395));
#927=CARTESIAN_POINT('',(0.0177240664063068,-0.0509921111691046,-0.00593902799963951));
#928=CARTESIAN_POINT('',(0.0177240664063068,-0.0642721111691046,-0.0059390279996395));
#929=CARTESIAN_POINT('',(-0.00260054226964713,-0.0642721111691046,-0.00593902799963951));
#930=CARTESIAN_POINT('',(-0.00693593359369323,-0.0642721111691046,-0.00593902799963951));
#931=CARTESIAN_POINT('',(-0.00693593359369323,-0.0649574424437014,-0.00593902799963951));
#932=CARTESIAN_POINT('',(-0.00693593359369323,-0.0509921111691046,-0.00593902799963951));
#933=CARTESIAN_POINT('',(-0.00260054226964713,-0.0509921111691046,-0.00593902799963951));
#934=CARTESIAN_POINT('',(-0.00260054226964713,-0.0880229217574,-0.00593902799963951));
#935=CARTESIAN_POINT('',(-0.01233833399117,-0.0880229217574,-0.00593902799963951));
#936=CARTESIAN_POINT('',(-0.02503833399117,-0.0880229217574,-0.00593902799963951));
#937=CARTESIAN_POINT('',(-0.02503833399117,-0.0649574424437014,-0.00593902799963951));
#938=CARTESIAN_POINT('',(-0.02503833399117,-0.0753229217574,-0.00593902799963951));
#939=CARTESIAN_POINT('',(-0.00260054226964713,-0.0753229217574,-0.00593902799963951));
#940=CARTESIAN_POINT('',(-0.01233833399117,-0.0753229217574,-0.00593902799963951));
#941=CARTESIAN_POINT('',(-0.01233833399117,-0.0649574424437014,-0.00593902799963951));
#942=CARTESIAN_POINT('',(-0.00260054226964713,-0.0880564045597616,-0.00593902799963951));
#943=CARTESIAN_POINT('',(0.00369644429527546,-0.0880564045597616,-0.00593902799963951));
#944=CARTESIAN_POINT('',(-0.00900355570472454,-0.0880564045597616,-0.00593902799963951));
#945=CARTESIAN_POINT('',(-0.00900355570472454,-0.0649574424437014,-0.00593902799963951));
#946=CARTESIAN_POINT('',(-0.00900355570472454,-0.0753564045597616,-0.00593902799963951));
#947=CARTESIAN_POINT('',(-0.00260054226964713,-0.0753564045597616,-0.00593902799963951));
#948=CARTESIAN_POINT('',(0.00369644429527546,-0.0753564045597616,-0.00593902799963951));
#949=CARTESIAN_POINT('',(0.00369644429527546,-0.0649574424437014,-0.00593902799963951));
#950=CARTESIAN_POINT('',(-0.00260054226964713,-0.0880516739904348,-0.00593902799963951));
#951=CARTESIAN_POINT('',(0.0197628235897725,-0.0880516739904348,-0.00593902799963951));
#952=CARTESIAN_POINT('',(0.0070628235897725,-0.0880516739904348,-0.00593902799963951));
#953=CARTESIAN_POINT('',(0.0070628235897725,-0.0649574424437014,-0.00593902799963951));
#954=CARTESIAN_POINT('',(0.0070628235897725,-0.0753516739904348,-0.00593902799963951));
#955=CARTESIAN_POINT('',(-0.00260054226964713,-0.0753516739904348,-0.00593902799963951));
#956=CARTESIAN_POINT('',(0.0197628235897725,-0.0753516739904348,-0.0059390279996395));
#957=CARTESIAN_POINT('',(0.0197628235897725,-0.0649574424437014,-0.0059390279996395));
#958=CARTESIAN_POINT('',(0.0283994577303528,-0.0877074424437014,-0.0059390279996395));
#959=CARTESIAN_POINT('',(0.0244994577303528,-0.0877074424437014,-0.0059390279996395));
#960=CARTESIAN_POINT('',(-0.0336005422696471,-0.0422074424437015,-0.00593902799963951));
#961=CARTESIAN_POINT('',(-0.0375005422696471,-0.0422074424437015,-0.00593902799963951));
#962=CARTESIAN_POINT('',(-0.0336005422696471,-0.0877074424437014,-0.00593902799963951));
#963=CARTESIAN_POINT('',(-0.0375005422696471,-0.0877074424437014,-0.00593902799963951));
#964=CARTESIAN_POINT('',(0.0283994577303528,-0.0417074424437015,-0.0059390279996395));
#965=CARTESIAN_POINT('',(0.0244994577303528,-0.0417074424437015,-0.0059390279996395));
#966=CARTESIAN_POINT('',(0.0350994577303529,0.0237925575562985,-0.0059390279996395));
#967=CARTESIAN_POINT('',(0.0350994577303529,0.0237925575562985,-0.0059390279996395));
#968=CARTESIAN_POINT('',(0.0283994577303528,-0.0417074424437015,-0.000939027999639503));
#969=CARTESIAN_POINT('',(0.0283994577303528,-0.0417074424437015,-0.000939027999639503));
#970=CARTESIAN_POINT('',(0.0268494577303528,-0.0417074424437015,-0.000939027999639503));
#971=CARTESIAN_POINT('',(0.0283994577303528,-0.0417074424437015,-0.0059390279996395));
#972=CARTESIAN_POINT('',(0.0268494577303528,-0.0417074424437015,-0.0059390279996395));
#973=CARTESIAN_POINT('',(0.0283994577303528,-0.0417074424437015,-0.000939027999639503));
#974=CARTESIAN_POINT('',(0.0283994577303528,-0.0417074424437015,-0.000939027999639503));
#975=CARTESIAN_POINT('',(0.0244994577303528,-0.0417074424437015,-0.000939027999639503));
#976=CARTESIAN_POINT('',(0.0283994577303528,-0.0417074424437015,-0.000939027999639503));
#977=CARTESIAN_POINT('',(-0.00260054226964713,-0.0649574424437014,-0.00593902799963951));
#978=CARTESIAN_POINT('',(-0.0336005422696471,-0.0877074424437014,-0.000939027999639512));
#979=CARTESIAN_POINT('',(-0.0336005422696471,-0.0877074424437014,-0.000939027999639512));
#980=CARTESIAN_POINT('',(-0.0351505422696472,-0.0877074424437014,-0.000939027999639512));
#981=CARTESIAN_POINT('',(-0.0336005422696471,-0.0877074424437014,-0.00593902799963951));
#982=CARTESIAN_POINT('',(-0.0351505422696472,-0.0877074424437014,-0.00593902799963951));
#983=CARTESIAN_POINT('',(-0.0336005422696471,-0.0877074424437014,-0.000939027999639512));
#984=CARTESIAN_POINT('',(-0.0336005422696471,-0.0877074424437014,-0.000939027999639512));
#985=CARTESIAN_POINT('',(-0.0375005422696471,-0.0877074424437014,-0.000939027999639512));
#986=CARTESIAN_POINT('',(-0.0336005422696471,-0.0877074424437014,-0.000939027999639512));
#987=CARTESIAN_POINT('',(-0.00260054226964713,-0.0649574424437014,-0.00593902799963951));
#988=CARTESIAN_POINT('',(-0.0336005422696471,-0.0422074424437015,-0.000939027999639512));
#989=CARTESIAN_POINT('',(-0.0336005422696471,-0.0422074424437015,-0.000939027999639512));
#990=CARTESIAN_POINT('',(-0.0351505422696472,-0.0422074424437015,-0.000939027999639512));
#991=CARTESIAN_POINT('',(-0.0336005422696471,-0.0422074424437015,-0.00593902799963951));
#992=CARTESIAN_POINT('',(-0.0351505422696472,-0.0422074424437015,-0.00593902799963951));
#993=CARTESIAN_POINT('',(-0.0336005422696471,-0.0422074424437015,-0.000939027999639512));
#994=CARTESIAN_POINT('',(-0.0336005422696471,-0.0422074424437015,-0.000939027999639512));
#995=CARTESIAN_POINT('',(-0.0375005422696471,-0.0422074424437015,-0.000939027999639512));
#996=CARTESIAN_POINT('',(-0.0336005422696471,-0.0422074424437015,-0.000939027999639512));
#997=CARTESIAN_POINT('',(-0.00260054226964713,-0.0649574424437014,-0.00593902799963951));
#998=CARTESIAN_POINT('',(0.0283994577303528,-0.0877074424437014,-0.000939027999639503));
#999=CARTESIAN_POINT('',(0.0283994577303528,-0.0877074424437014,-0.000939027999639503));
#1000=CARTESIAN_POINT('',(0.0268494577303528,-0.0877074424437014,-0.000939027999639503));
#1001=CARTESIAN_POINT('',(0.0283994577303528,-0.0877074424437014,-0.0059390279996395));
#1002=CARTESIAN_POINT('',(0.0268494577303528,-0.0877074424437014,-0.0059390279996395));
#1003=CARTESIAN_POINT('',(0.0283994577303528,-0.0877074424437014,-0.000939027999639503));
#1004=CARTESIAN_POINT('',(0.0283994577303528,-0.0877074424437014,-0.000939027999639503));
#1005=CARTESIAN_POINT('',(0.0244994577303528,-0.0877074424437014,-0.000939027999639503));
#1006=CARTESIAN_POINT('',(0.0283994577303528,-0.0877074424437014,-0.000939027999639503));
#1007=CARTESIAN_POINT('',(-0.00260054226964713,-0.0649574424437014,-0.00593902799963951));
#1008=CARTESIAN_POINT('',(0.0134128235897725,-0.0753516739904348,0.0520609720003605));
#1009=CARTESIAN_POINT('',(0.00706282358977249,-0.0753516739904348,0.0520609720003605));
#1010=CARTESIAN_POINT('',(0.0197628235897725,-0.0753516739904348,0.0520609720003605));
#1011=CARTESIAN_POINT('',(0.0197628235897725,-0.0817016739904348,0.0520609720003605));
#1012=CARTESIAN_POINT('',(0.0197628235897725,-0.0880516739904348,0.0520609720003605));
#1013=CARTESIAN_POINT('',(0.0134128235897725,-0.0880516739904348,0.0520609720003605));
#1014=CARTESIAN_POINT('',(0.00706282358977249,-0.0880516739904348,0.0520609720003605));
#1015=CARTESIAN_POINT('',(0.00706282358977249,-0.0817016739904348,0.0520609720003605));
#1016=CARTESIAN_POINT('',(-0.00265355570472454,-0.0753564045597616,0.0520609720003605));
#1017=CARTESIAN_POINT('',(-0.00900355570472454,-0.0753564045597616,0.0520609720003605));
#1018=CARTESIAN_POINT('',(0.00369644429527546,-0.0753564045597616,0.0520609720003605));
#1019=CARTESIAN_POINT('',(0.00369644429527546,-0.0817064045597616,0.0520609720003605));
#1020=CARTESIAN_POINT('',(0.00369644429527546,-0.0880564045597616,0.0520609720003605));
#1021=CARTESIAN_POINT('',(-0.00265355570472454,-0.0880564045597616,0.0520609720003605));
#1022=CARTESIAN_POINT('',(-0.00900355570472454,-0.0880564045597616,0.0520609720003605));
#1023=CARTESIAN_POINT('',(-0.00900355570472454,-0.0817064045597616,0.0520609720003605));
#1024=CARTESIAN_POINT('',(-0.0186883339911699,-0.0753229217574,0.0520609720003605));
#1025=CARTESIAN_POINT('',(-0.02503833399117,-0.0753229217574,0.0520609720003605));
#1026=CARTESIAN_POINT('',(-0.01233833399117,-0.0753229217574,0.0520609720003605));
#1027=CARTESIAN_POINT('',(-0.01233833399117,-0.0816729217574,0.0520609720003605));
#1028=CARTESIAN_POINT('',(-0.01233833399117,-0.0880229217574,0.0520609720003605));
#1029=CARTESIAN_POINT('',(-0.0186883339911699,-0.0880229217574,0.0520609720003605));
#1030=CARTESIAN_POINT('',(-0.02503833399117,-0.0880229217574,0.0520609720003605));
#1031=CARTESIAN_POINT('',(-0.02503833399117,-0.0816729217574,0.0520609720003605));
#1032=CARTESIAN_POINT('',(0.0177240664063067,-0.0576321111691046,0.0520609720003605));
#1033=CARTESIAN_POINT('',(0.0177240664063067,-0.0509921111691046,0.0520609720003605));
#1034=CARTESIAN_POINT('',(0.0177240664063067,-0.0642721111691046,0.0520609720003605));
#1035=CARTESIAN_POINT('',(0.00539406640630677,-0.0509921111691046,0.0520609720003605));
#1036=CARTESIAN_POINT('',(-0.00693593359369324,-0.0509921111691046,0.0520609720003605));
#1037=CARTESIAN_POINT('',(-0.00693593359369324,-0.0576321111691046,0.0520609720003605));
#1038=CARTESIAN_POINT('',(-0.00693593359369324,-0.0642721111691046,0.0520609720003605));
#1039=CARTESIAN_POINT('',(0.00539406640630677,-0.0642721111691046,0.0520609720003605));
#1040=MECHANICAL_DESIGN_GEOMETRIC_PRESENTATION_REPRESENTATION('',(#633),
#1041);
#1041=(
GEOMETRIC_REPRESENTATION_CONTEXT(3)
GLOBAL_UNCERTAINTY_ASSIGNED_CONTEXT((#1042))
GLOBAL_UNIT_ASSIGNED_CONTEXT((#1045,#1044,#1043))
REPRESENTATION_CONTEXT('Part 11','TOP_LEVEL_ASSEMBLY_PART')
);
#1042=UNCERTAINTY_MEASURE_WITH_UNIT(LENGTH_MEASURE(1.E-8),#1045,
'DISTANCE_ACCURACY_VALUE','Maximum Tolerance applied to model');
#1043=(
NAMED_UNIT(*)
SI_UNIT($,.STERADIAN.)
SOLID_ANGLE_UNIT()
);
#1044=(
NAMED_UNIT(*)
PLANE_ANGLE_UNIT()
SI_UNIT($,.RADIAN.)
);
#1045=(
LENGTH_UNIT()
NAMED_UNIT(*)
SI_UNIT($,.METRE.)
);
#1046=PRODUCT_DEFINITION_SHAPE('','',#1047);
#1047=PRODUCT_DEFINITION('','',#1049,#1048);
#1048=PRODUCT_DEFINITION_CONTEXT('',#1055,'design');
#1049=PRODUCT_DEFINITION_FORMATION_WITH_SPECIFIED_SOURCE('','',#1051,
 .NOT_KNOWN.);
#1050=PRODUCT_RELATED_PRODUCT_CATEGORY('','',(#1051));
#1051=PRODUCT('Part 11','Part 11','Part 11',(#1053));
#1052=PRODUCT_CATEGORY('','');
#1053=PRODUCT_CONTEXT('',#1055,'mechanical');
#1054=APPLICATION_PROTOCOL_DEFINITION('international standard',
'ap242_managed_model_based_3d_engineering',2020,#1055);
#1055=APPLICATION_CONTEXT('managed model based 3d engineering');
ENDSEC;
END-ISO-10303-21;
